<svg xmlns="http://www.w3.org/2000/svg" width="100" height="100" fill="none" viewBox="0 0 100 100">
    <g clip-path="url(#a)">
        <path fill="#0066DA"
            d="m12.6 77.85 3.85 6.65c.8 1.4 1.95 2.5 3.3 3.3L33.5 64H6c0 1.55.4 3.1 1.2 4.5l5.4 9.35Z" />
        <path fill="#00AC47"
            d="M49.65 36 35.9 12.2c-1.35.8-2.5 1.9-3.3 3.3l-25.4 44A9.06 9.06 0 0 0 6 64h27.5l16.15-28Z" />
        <path fill="#EA4335"
            d="M79.55 87.8c1.35-.8 2.5-1.9 3.3-3.3l1.6-2.75L92.1 68.5c.8-1.4 1.2-2.95 1.2-4.5H65.798l5.852 11.5 7.9 12.3Z" />
        <path fill="#00832D"
            d="M49.65 36 63.4 12.2c-1.35-.8-2.9-1.2-4.5-1.2H40.4c-1.6 0-3.15.45-4.5 1.2L49.65 36Z" />
        <path fill="#2684FC"
            d="M65.8 64H33.5L19.75 87.8c1.35.8 2.9 1.2 4.5 1.2h50.8c1.6 0 3.15-.45 4.5-1.2L65.8 64Z" />
        <path fill="#FFBA00"
            d="m79.4 37.5-12.7-22c-.8-1.4-1.95-2.5-3.3-3.3L49.65 36 65.8 64h27.45c0-1.55-.4-3.1-1.2-4.5l-12.65-22Z" />
    </g>
    <defs>
        <clipPath id="a">
            <path fill="#fff" d="M0 0h87.3v78H0z" transform="translate(6 11)" />
        </clipPath>
    </defs>
</svg>