<svg xmlns="http://www.w3.org/2000/svg" width="100" height="100" fill="none" viewBox="0 0 100 100">
    <g clip-path="url(#a)">
        <path fill="#fff" d="m70 30-18-2-22 2-2 20 2 20 20 2.5L70 70l2-20.5L70 30Z" />
        <path fill="#1A73E8"
            d="M38.205 61.03c-1.495-1.01-2.53-2.485-3.095-4.435l3.47-1.43c.315 1.2.865 2.13 1.65 2.79.78.66 1.73.985 2.84.985 1.135 0 2.11-.345 2.925-1.035s1.225-1.57 1.225-2.635c0-1.09-.43-1.98-1.29-2.67-.86-.69-1.94-1.035-3.23-1.035h-2.005V48.13h1.8c1.11 0 2.045-.3 2.805-.9.76-.6 1.14-1.42 1.14-2.465 0-.93-.34-1.67-1.02-2.225-.68-.555-1.54-.835-2.585-.835-1.02 0-1.83.27-2.43.815a4.782 4.782 0 0 0-1.31 2.005l-3.435-1.43c.455-1.29 1.29-2.43 2.515-3.415 1.225-.985 2.79-1.48 4.69-1.48 1.405 0 2.67.27 3.79.815 1.12.545 2 1.3 2.635 2.26.635.965.95 2.045.95 3.245 0 1.225-.295 2.26-.885 3.11a6.1 6.1 0 0 1-2.175 1.955v.205a6.604 6.604 0 0 1 2.79 2.175c.725.975 1.09 2.14 1.09 3.5 0 1.36-.345 2.575-1.035 3.64S48.38 61.01 47.17 61.62c-1.215.61-2.58.92-4.095.92-1.755.005-3.375-.5-4.87-1.51ZM59.5 43.81l-3.79 2.755-1.905-2.89 6.835-4.93h2.62V62H59.5V43.81Z" />
        <path fill="#EA4335" d="m70 88 18-18-9-4-9 4-4 9 4 9Z" />
        <path fill="#34A853" d="m26 79 4 9h40V70H30l-4 9Z" />
        <path fill="#4285F4" d="M18 12c-3.315 0-6 2.685-6 6v52l9 4 9-4V30h40l4-9-4-9H18Z" />
        <path fill="#188038" d="M12 70v12c0 3.315 2.685 6 6 6h12V70H12Z" />
        <path fill="#FBBC04" d="M70 30v40h18V30l-9-4-9 4Z" />
        <path fill="#1967D2" d="M88 30V18c0-3.315-2.685-6-6-6H70v18h18Z" />
    </g>
    <defs>
        <clipPath id="a">
            <path fill="#fff" d="M0 0h76v76H0z" transform="translate(12 12)" />
        </clipPath>
    </defs>
</svg>