<svg xmlns="http://www.w3.org/2000/svg" width="100" height="100" fill="none" viewBox="0 0 100 100">
    <path fill="#FF7A59"
        d="M70.355 36.198v-9.475a7.295 7.295 0 0 0 4.207-6.576v-.218a7.296 7.296 0 0 0-7.297-7.296h-.217a7.296 7.296 0 0 0-7.297 7.296v.218a7.295 7.295 0 0 0 4.207 6.576v9.475a20.661 20.661 0 0 0-9.824 4.325l-25.986-20.24a8.143 8.143 0 0 0 .293-2.046 8.22 8.22 0 1 0-8.231 8.204 8.132 8.132 0 0 0 4.048-1.101l25.588 19.91a20.725 20.725 0 0 0 .318 23.346l-7.783 7.785a6.684 6.684 0 0 0-1.945-.317 6.75 6.75 0 0 0-4.768 11.525 6.75 6.75 0 0 0 11.524-4.769 6.663 6.663 0 0 0-.317-1.945l7.7-7.702a20.76 20.76 0 1 0 15.78-36.976Zm-3.192 31.163a10.65 10.65 0 1 1 0-21.296 10.65 10.65 0 0 1 .011 21.29" />
</svg>