<svg xmlns="http://www.w3.org/2000/svg" width="100" height="100" fill="none" viewBox="0 0 100 100">
  <g>
    <g clip-path="url(#b)">
      <path fill="#fff" d="m14.814 14.45 44.266-3.27c5.438-.466 6.834-.152 10.254 2.334l14.13 9.954c2.33 1.712 3.106 2.179 3.106 4.043v54.594c0 3.422-1.242 5.446-5.592 5.755l-51.404 3.113c-3.264.155-4.819-.312-6.528-2.49L12.64 74.952c-1.866-2.49-2.64-4.355-2.64-6.534V19.89c0-2.797 1.242-5.13 4.814-5.44Z"/>
      <path fill="#000" fill-rule="evenodd" d="m59.08 11.181-44.266 3.27C11.242 14.76 10 17.093 10 19.89v48.527c0 2.178.774 4.042 2.64 6.534l10.406 13.53c1.71 2.178 3.264 2.646 6.528 2.49l51.405-3.111c4.347-.31 5.592-2.334 5.592-5.755V27.512c0-1.768-.698-2.278-2.754-3.787l-14.483-10.21c-3.419-2.487-4.816-2.8-10.254-2.335v.001ZM30.736 26.618c-4.198.283-5.15.347-7.534-1.592l-6.06-4.82c-.616-.625-.307-1.403 1.245-1.558l42.555-3.11c3.573-.312 5.434.934 6.832 2.022l7.298 5.288c.312.157 1.088 1.088.154 1.088L31.28 26.58l-.544.037ZM25.842 81.64V35.293c0-2.024.622-2.957 2.483-3.114L78.8 29.224c1.712-.155 2.486.933 2.486 2.954v46.038c0 2.024-.312 3.736-3.107 3.89l-48.301 2.8c-2.795.154-4.035-.776-4.035-3.266Zm47.68-43.862c.31 1.4 0 2.8-1.4 2.96l-2.328.462v34.218c-2.021 1.088-3.882 1.71-5.437 1.71-2.486 0-3.107-.779-4.968-3.11L44.165 50.066V73.24l4.816 1.09s0 2.8-3.886 2.8l-10.712.622c-.312-.624 0-2.179 1.086-2.488l2.797-.776v-30.64l-3.882-.315c-.312-1.4.464-3.421 2.64-3.578l11.494-.774 15.84 24.262V41.979l-4.038-.464c-.312-1.715.93-2.96 2.482-3.112l10.72-.625Z" clip-rule="evenodd"/>
    </g>
  </g>
  <defs>
    <clipPath id="b">
      <path fill="#fff" d="M0 0h80v80H0z" transform="translate(10 11)"/>
    </clipPath>
  </defs>
</svg>