<svg width="1014" height="601" viewBox="0 0 1014 601" fill="none" xmlns="http://www.w3.org/2000/svg">
    <g filter="url(#filter0_d_0_1)">
        <path
            d="M93.225 469.256L110.742 486.74L159.698 440.523C142.802 434.089 109.979 452.43 93.225 469.256Z"
            style="fill: var(--dark)" />
        <path
            d="M154.313 530.198C148.718 524.603 136.797 512.715 136.797 512.715L182.92 463.671C189.346 480.514 171.067 513.402 154.313 530.198Z"
            style="fill: var(--dark)" />
        <path
            d="M221.188 419.834L240.243 383.006L203.451 402.151C191.633 408.294 180.724 416.045 171.033 425.182L108.34 484.312L139.199 515.112L198.209 452.306C207.332 442.595 215.065 431.667 221.188 419.834Z"
            style="fill: var(--primary)" />
        <path
            d="M182.021 454.251C189.145 454.245 194.915 448.464 194.909 441.339C194.902 434.215 189.121 428.445 181.996 428.451C174.872 428.458 169.102 434.239 169.109 441.364C169.115 448.488 174.896 454.258 182.021 454.251Z"
            style="fill: var(--dark)" />
        <path
            d="M182.016 449.641C186.595 449.637 190.303 445.922 190.299 441.343C190.294 436.765 186.579 433.057 182.001 433.061C177.422 433.066 173.714 436.781 173.719 441.359C173.723 445.938 177.438 449.646 182.016 449.641Z"
            style="fill: var(--dark-1)" />
        <path opacity="0.3"
            d="M149.618 504.022L119.4 473.861L144.097 450.578L172.855 479.29L149.618 504.022Z"
            style="fill: var(--dark-1)" />
        <path
            d="M100.082 496.87C77.483 498.721 70.007 513.198 67.466 532.431C66.175 542.242 65.604 552.173 57.38 557.921C56.885 558.257 56.513 558.746 56.319 559.312C56.125 559.878 56.119 560.492 56.303 561.062C56.487 561.631 56.851 562.126 57.34 562.472C57.829 562.817 58.416 562.995 59.015 562.979C89.354 562 103.49 547.136 105.264 540.935C104.8 544.176 103.967 547.354 102.783 550.407C102.565 550.946 102.523 551.54 102.662 552.104C102.802 552.668 103.116 553.173 103.559 553.549C104.003 553.924 104.554 554.15 105.133 554.193C105.712 554.237 106.291 554.097 106.786 553.793C115.291 548.455 125.961 538.625 126.656 522.694C120.388 513.83 100.082 496.87 100.082 496.87Z"
            style="fill: var(--primary)" />
        <path opacity="0.2"
            d="M100.082 496.87C77.483 498.721 70.007 513.198 67.466 532.431C66.175 542.242 65.604 552.173 57.38 557.921C56.885 558.257 56.513 558.746 56.319 559.312C56.125 559.878 56.119 560.492 56.303 561.062C56.487 561.631 56.851 562.126 57.34 562.472C57.829 562.817 58.416 562.995 59.015 562.979C89.354 562 103.49 547.136 105.264 540.935C104.8 544.176 103.967 547.354 102.783 550.407C102.565 550.946 102.523 551.54 102.662 552.104C102.802 552.668 103.116 553.173 103.559 553.549C104.003 553.924 104.554 554.15 105.133 554.193C105.712 554.237 106.291 554.097 106.786 553.793C115.291 548.455 125.961 538.625 126.656 522.694C120.388 513.83 100.082 496.87 100.082 496.87Z"
            style="fill: var(--dark)" />
        <path d="M130.173 529.521L93.938 493.356L113.214 489.167L134.324 510.237L130.173 529.521Z"
            style="fill: var(--primary)" />
    </g>
    <path
        d="M54.271 69.613C69.371 69.613 81.613 57.372 81.613 42.272C81.613 27.171 69.371 14.93 54.271 14.93C39.171 14.93 26.93 27.171 26.93 42.272C26.93 57.372 39.171 69.613 54.271 69.613Z"
        style="fill: var(--primary)" />
    <path opacity="0.2"
        d="M44.961 51.851C44.961 52.734 44.699 53.597 44.208 54.331C43.718 55.065 43.021 55.637 42.205 55.974C41.389 56.312 40.492 56.4 39.626 56.227C38.761 56.055 37.965 55.629 37.342 55.004C36.718 54.38 36.294 53.584 36.122 52.718C35.951 51.852 36.04 50.954 36.379 50.139C36.718 49.324 37.29 48.628 38.025 48.138C38.76 47.649 39.623 47.388 40.506 47.39C41.091 47.39 41.671 47.505 42.212 47.729C42.753 47.954 43.244 48.283 43.658 48.697C44.072 49.112 44.4 49.603 44.624 50.144C44.847 50.685 44.962 51.266 44.961 51.851Z"
        fill="#9CABC9" />
    <path opacity="0.2"
        d="M38.636 38.978C38.642 39.499 38.494 40.009 38.209 40.445C37.925 40.881 37.517 41.222 37.038 41.426C36.559 41.63 36.031 41.687 35.519 41.589C35.008 41.492 34.537 41.244 34.167 40.878C33.797 40.512 33.544 40.045 33.44 39.535C33.336 39.025 33.386 38.496 33.583 38.014C33.781 37.532 34.117 37.12 34.55 36.831C34.982 36.541 35.491 36.386 36.011 36.386C36.701 36.386 37.364 36.658 37.855 37.144C38.347 37.628 38.627 38.287 38.636 38.978Z"
        fill="#9CABC9" />
    <path
        d="M27.783 48.925C27.901 49.398 4.37899 71.969 10.441 76.771C16.504 81.575 42.015 69.246 63.759 51.687C85.504 34.129 105.332 12.772 99.893 7.15602C94.454 1.53902 67.289 18.224 67.289 18.224L70.57 20.291C70.57 20.291 86.974 9.75302 92.223 13.841C97.472 17.929 82.61 33.913 61.699 49.174C40.788 64.436 20.526 75.151 17.39 70.972C14.253 66.792 29.049 52.842 29.049 52.842L27.783 48.925Z"
        style="fill: var(--primary)" />
    <path opacity="0.4"
        d="M27.783 48.925C27.901 49.398 4.37899 71.969 10.441 76.771C16.504 81.575 42.015 69.246 63.759 51.687C85.504 34.129 105.332 12.772 99.893 7.15602C94.454 1.53902 67.289 18.224 67.289 18.224L70.57 20.291C70.57 20.291 86.974 9.75302 92.223 13.841C97.472 17.929 82.61 33.913 61.699 49.174C40.788 64.436 20.526 75.151 17.39 70.972C14.253 66.792 29.049 52.842 29.049 52.842L27.783 48.925Z"
        style="fill: var(--dark)" />
    <path
        d="M984.69 224.526C982.4 223.193 979.43 224.374 977.37 226.047C975.3 227.721 973.57 229.904 971.12 230.928C969.56 231.582 967.77 231.75 966.39 232.709C964.14 234.296 963.74 237.495 964.13 240.221C964.52 242.948 965.48 245.658 965.14 248.392C964.89 250.395 963.96 252.401 964.47 254.359C965.18 257.097 968.33 258.401 969.86 260.782C970.96 262.488 971.26 264.791 972.91 265.987C974.81 267.377 977.46 266.567 979.81 266.781C982.69 267.04 985.17 268.895 987.92 269.828C990.14 270.548 992.5 270.677 994.77 270.203C997.05 269.728 999.16 268.666 1000.9 267.122C1002.65 265.531 1003.93 263.5 1005.65 261.879C1007.12 260.494 1008.9 259.412 1010.1 257.788C1011.31 256.164 1011.79 254.272 1012.28 252.381C1013.01 249.617 1013.74 246.743 1013.21 243.934C1012.36 239.452 1008.54 236.192 1006.55 232.088C1005.77 230.488 1005.21 228.658 1003.77 227.614C1002.24 226.504 1000.18 226.598 998.39 225.994C995.83 225.13 993.9 222.844 991.28 222.174C990.07 221.887 988.8 221.957 987.64 222.375C986.47 222.793 985.45 223.542 984.7 224.53"
        style="fill: var(--primary)" />
    <g opacity="0.2">
        <path opacity="0.2"
            d="M984.69 224.526C982.4 223.193 979.43 224.374 977.37 226.047C975.3 227.721 973.57 229.904 971.12 230.928C969.56 231.582 967.77 231.75 966.39 232.709C964.14 234.296 963.74 237.495 964.13 240.221C964.52 242.948 965.48 245.658 965.14 248.392C964.89 250.395 963.96 252.401 964.47 254.359C965.18 257.097 968.33 258.401 969.86 260.782C970.96 262.488 971.26 264.791 972.91 265.987C974.81 267.377 977.46 266.567 979.81 266.781C982.69 267.04 985.17 268.895 987.92 269.828C990.14 270.548 992.5 270.677 994.77 270.203C997.05 269.728 999.16 268.666 1000.9 267.122C1002.65 265.531 1003.93 263.5 1005.65 261.879C1007.12 260.494 1008.9 259.412 1010.1 257.788C1011.31 256.164 1011.79 254.272 1012.28 252.381C1013.01 249.617 1013.74 246.743 1013.21 243.934C1012.36 239.452 1008.54 236.192 1006.55 232.088C1005.77 230.488 1005.21 228.658 1003.77 227.614C1002.24 226.504 1000.18 226.598 998.39 225.994C995.83 225.13 993.9 222.844 991.28 222.174C990.07 221.887 988.8 221.957 987.64 222.375C986.47 222.793 985.45 223.542 984.7 224.53"
            fill="#9CABC9" />
    </g>
    <path
        d="M989.14 265.615C999.91 265.233 1008.33 256.193 1007.95 245.424C1007.57 234.655 998.53 226.234 987.76 226.616C976.99 226.997 968.57 236.037 968.95 246.806C969.33 257.575 978.37 265.996 989.14 265.615Z"
        style="fill: var(--primary)" />
    <path opacity="0.4"
        d="M982.7 249.338C982.31 249.833 981.78 250.203 981.19 250.4C980.59 250.597 979.94 250.611 979.34 250.443C978.73 250.274 978.19 249.929 977.78 249.452C977.37 248.974 977.11 248.386 977.03 247.761C976.96 247.136 977.07 246.502 977.35 245.94C977.64 245.378 978.08 244.914 978.63 244.604C979.18 244.295 979.8 244.155 980.43 244.203C981.06 244.251 981.66 244.484 982.16 244.872C982.82 245.393 983.25 246.155 983.35 246.993C983.45 247.83 983.22 248.673 982.7 249.338Z"
        fill="black" />
    <path opacity="0.4"
        d="M984.81 239.325C984.59 239.613 984.28 239.828 983.93 239.942C983.58 240.056 983.21 240.065 982.86 239.966C982.51 239.868 982.19 239.667 981.95 239.39C981.71 239.113 981.56 238.771 981.52 238.408C981.47 238.044 981.54 237.676 981.7 237.349C981.87 237.023 982.13 236.752 982.45 236.573C982.76 236.392 983.13 236.311 983.49 236.338C983.86 236.366 984.21 236.501 984.49 236.726C984.69 236.876 984.85 237.062 984.97 237.274C985.09 237.486 985.16 237.718 985.19 237.96C985.22 238.201 985.2 238.446 985.14 238.68C985.07 238.914 984.96 239.134 984.81 239.325Z"
        fill="black" />
    <path
        d="M146.692 337.526C144.398 336.193 141.433 337.374 139.369 339.047C137.305 340.721 135.57 342.904 133.119 343.928C131.556 344.582 129.772 344.75 128.39 345.709C126.136 347.296 125.742 350.495 126.132 353.221C126.523 355.948 127.477 358.658 127.144 361.392C126.893 363.395 125.956 365.401 126.466 367.359C127.177 370.097 130.327 371.401 131.861 373.782C132.962 375.488 133.263 377.791 134.907 378.987C136.811 380.377 139.46 379.567 141.807 379.781C144.686 380.04 147.174 381.895 149.925 382.828C152.135 383.548 154.496 383.677 156.772 383.203C159.048 382.728 161.16 381.666 162.898 380.122C164.646 378.531 165.928 376.5 167.648 374.879C169.115 373.494 170.896 372.412 172.101 370.788C173.306 369.164 173.787 367.272 174.284 365.381C175.012 362.617 175.744 359.743 175.214 356.934C174.363 352.452 170.542 349.192 168.552 345.088C167.775 343.488 167.207 341.658 165.768 340.614C164.243 339.504 162.178 339.598 160.394 338.994C157.832 338.13 155.895 335.844 153.276 335.174C152.069 334.887 150.805 334.957 149.637 335.375C148.469 335.793 147.447 336.542 146.697 337.53"
        style="fill: var(--primary)" />
    <g opacity="0.2">
        <path opacity="0.2"
            d="M146.692 337.526C144.398 336.193 141.433 337.374 139.369 339.047C137.305 340.721 135.57 342.904 133.119 343.928C131.556 344.582 129.772 344.75 128.39 345.709C126.136 347.296 125.742 350.495 126.132 353.221C126.523 355.948 127.477 358.658 127.144 361.392C126.893 363.395 125.956 365.401 126.466 367.359C127.177 370.097 130.327 371.401 131.861 373.782C132.962 375.488 133.263 377.791 134.907 378.987C136.811 380.377 139.46 379.567 141.807 379.781C144.686 380.04 147.174 381.895 149.925 382.828C152.135 383.548 154.496 383.677 156.772 383.203C159.048 382.728 161.16 381.666 162.898 380.122C164.646 378.531 165.928 376.5 167.648 374.879C169.115 373.494 170.896 372.412 172.101 370.788C173.306 369.164 173.787 367.272 174.284 365.381C175.012 362.617 175.744 359.743 175.214 356.934C174.363 352.452 170.542 349.192 168.552 345.088C167.775 343.488 167.207 341.658 165.768 340.614C164.243 339.504 162.178 339.598 160.394 338.994C157.832 338.13 155.895 335.844 153.276 335.174C152.069 334.887 150.805 334.957 149.637 335.375C148.469 335.793 147.447 336.542 146.697 337.53"
            fill="#9CABC9" />
    </g>
    <path
        d="M151.141 378.615C161.91 378.233 170.331 369.193 169.949 358.424C169.568 347.655 160.528 339.234 149.759 339.616C138.99 339.997 130.569 349.037 130.951 359.806C131.332 370.575 140.372 378.996 151.141 378.615Z"
        style="fill: var(--primary)" />
    <path opacity="0.4"
        d="M144.698 362.338C144.31 362.833 143.784 363.203 143.186 363.4C142.588 363.597 141.945 363.611 141.338 363.443C140.731 363.274 140.189 362.929 139.778 362.452C139.368 361.974 139.108 361.386 139.032 360.761C138.956 360.136 139.067 359.502 139.351 358.94C139.635 358.378 140.08 357.914 140.629 357.604C141.177 357.295 141.805 357.155 142.432 357.203C143.06 357.251 143.66 357.484 144.155 357.872C144.819 358.393 145.249 359.155 145.351 359.993C145.453 360.83 145.218 361.673 144.698 362.338Z"
        fill="black" />
    <path opacity="0.4"
        d="M146.812 352.325C146.586 352.613 146.28 352.828 145.933 352.942C145.585 353.056 145.211 353.065 144.859 352.966C144.506 352.868 144.191 352.667 143.952 352.39C143.713 352.113 143.563 351.771 143.518 351.408C143.474 351.044 143.539 350.676 143.704 350.349C143.868 350.023 144.126 349.752 144.445 349.573C144.764 349.392 145.129 349.311 145.494 349.338C145.858 349.366 146.207 349.501 146.495 349.726C146.687 349.876 146.847 350.062 146.966 350.274C147.086 350.486 147.163 350.718 147.192 350.96C147.221 351.201 147.203 351.446 147.138 351.68C147.072 351.914 146.962 352.134 146.812 352.325Z"
        fill="black" />
    <path
        d="M853.1 123.276C847.43 122.164 841.26 124.537 837.66 129.013C834.05 133.49 833.06 139.823 834.91 145.246C836.75 150.669 841.3 155.064 846.75 156.994C850.72 158.404 855.39 158.481 858.96 156.261C862.04 154.355 863.96 151.023 865 147.562C866.6 142.289 866.36 136.346 863.67 131.523C860.99 126.701 856.7 122.889 851.13 123.002"
        style="fill: var(--primary-light)" />
    <path
        d="M11.94 330.166C8.39301 329.499 4.539 330.922 2.286 333.608C0.0330029 336.294 -0.585 340.094 0.568 343.347C1.721 346.601 4.56501 349.238 7.96601 350.397C10.453 351.243 13.37 351.288 15.603 349.956C17.528 348.813 18.724 346.814 19.376 344.737C20.376 341.573 20.226 338.008 18.546 335.114C16.866 332.22 14.185 329.934 10.705 330.001"
        style="fill: var(--primary-light)" />
    <path
        d="M960.94 0.166002C957.39 -0.500998 953.54 0.922003 951.29 3.608C949.03 6.294 948.41 10.094 949.57 13.347C950.72 16.601 953.56 19.238 956.97 20.397C959.45 21.243 962.37 21.288 964.6 19.956C966.53 18.813 967.72 16.814 968.38 14.737C969.38 11.573 969.23 8.008 967.55 5.114C965.87 2.22 963.18 -0.0659913 959.71 0.00100867"
        style="fill: var(--primary-light)" />
    <path
        d="M822.63 463.07L823.06 463.86C823.55 464.747 824.29 465.473 825.18 465.948L825.97 466.384L825.18 466.811C824.28 467.288 823.55 468.017 823.06 468.908L822.63 469.689L822.19 468.908C821.7 468.021 820.97 467.293 820.08 466.811L819.29 466.384L820.08 465.948C820.97 465.467 821.7 464.743 822.19 463.86L822.63 463.07Z"
        style="fill: var(--primary-light)" />
    <path
        d="M318.471 501.614L318.897 502.395C319.387 503.283 320.121 504.011 321.013 504.493L321.812 504.92L321.013 505.355C320.124 505.836 319.39 506.561 318.897 507.444L318.471 508.234L318.035 507.444C317.542 506.561 316.808 505.836 315.919 505.355L315.12 504.92L315.919 504.493C316.811 504.011 317.545 503.283 318.035 502.395L318.471 501.614Z"
        style="fill: var(--primary-light)" />
    <path
        d="M839.94 551.918L840.68 553.28C841.52 554.815 842.78 556.076 844.31 556.912L845.67 557.656L844.31 558.392C842.78 559.228 841.52 560.489 840.68 562.024L839.94 563.386L839.2 562.024C838.36 560.489 837.1 559.228 835.57 558.392L834.21 557.656L835.57 556.912C837.1 556.076 838.36 554.815 839.2 553.28L839.94 551.918Z"
        style="fill: var(--primary-light)" />
    <path
        d="M759.944 11.918L760.679 13.28C761.515 14.815 762.776 16.076 764.311 16.912L765.673 17.656L764.311 18.392C762.776 19.228 761.515 20.489 760.679 22.024L759.944 23.386L759.199 22.024C758.363 20.489 757.102 19.228 755.567 18.392L754.205 17.656L755.567 16.912C757.102 16.076 758.363 14.815 759.199 13.28L759.944 11.918Z"
        style="fill: var(--primary-light)" />
    <path
        d="M969.94 451.918L970.68 453.28C971.52 454.815 972.78 456.076 974.31 456.912L975.67 457.656L974.31 458.392C972.78 459.228 971.52 460.489 970.68 462.024L969.94 463.386L969.2 462.024C968.36 460.489 967.1 459.228 965.57 458.392L964.21 457.656L965.57 456.912C967.1 456.076 968.36 454.815 969.2 453.28L969.94 451.918Z"
        style="fill: var(--primary-light)" />
    <path
        d="M299.729 588.855L300.474 590.217C301.31 591.752 302.571 593.013 304.106 593.849L305.468 594.594L304.106 595.338C302.571 596.174 301.31 597.435 300.474 598.97L299.729 600.323L298.994 598.97C298.158 597.435 296.897 596.174 295.362 595.338L294 594.594L295.362 593.849C296.897 593.013 298.158 591.752 298.994 590.217L299.729 588.855Z"
        style="fill: var(--primary-light)" />
    <path
        d="M304.5 89.855L304.565 91.217C304.637 92.752 304.747 94.013 304.881 94.849L305 95.594L304.881 96.338C304.747 97.174 304.637 98.435 304.565 99.97L304.5 101.323L304.435 99.97C304.363 98.435 304.253 97.174 304.119 96.338L304 95.594L304.119 94.849C304.253 94.013 304.363 92.752 304.435 91.217L304.5 89.855Z"
        style="fill: var(--primary-light)" />
    <path
        d="M489.729 98.855L490.474 100.217C491.31 101.752 492.571 103.013 494.106 103.849L495.468 104.594L494.106 105.338C492.571 106.174 491.31 107.435 490.474 108.97L489.729 110.323L488.994 108.97C488.158 107.435 486.897 106.174 485.362 105.338L484 104.594L485.362 103.849C486.897 103.013 488.158 101.752 488.994 100.217L489.729 98.855Z"
        style="fill: var(--primary-light)" />
    <path
        d="M69.729 168.855L70.474 170.217C71.31 171.752 72.571 173.013 74.106 173.849L75.468 174.594L74.106 175.338C72.571 176.174 71.31 177.435 70.474 178.97L69.729 180.323L68.994 178.97C68.158 177.435 66.897 176.174 65.362 175.338L64 174.594L65.362 173.849C66.897 173.013 68.158 171.752 68.994 170.217L69.729 168.855Z"
        style="fill: var(--primary-light)" />
    <path
        d="M879.73 348.855L880.47 350.217C881.31 351.752 882.57 353.013 884.11 353.849L885.47 354.594L884.11 355.338C882.57 356.174 881.31 357.435 880.47 358.97L879.73 360.323L878.99 358.97C878.16 357.435 876.9 356.174 875.36 355.338L874 354.594L875.36 353.849C876.9 353.013 878.16 351.752 878.99 350.217L879.73 348.855Z"
        style="fill: var(--primary-light)" />
    <path
        d="M205.711 26L206.456 27.362C207.292 28.897 208.553 30.158 210.088 30.994L211.45 31.738L210.088 32.483C208.553 33.319 207.292 34.58 206.456 36.115L205.711 37.468L204.967 36.115C204.131 34.58 202.87 33.319 201.335 32.483L200 31.702L201.353 30.958C202.888 30.122 204.149 28.861 204.985 27.326L205.711 26Z"
        style="fill: var(--primary-light)" />
    <path
        d="M701.991 400.59L702.727 401.952C703.563 403.487 704.824 404.749 706.359 405.584L707.721 406.329L706.359 407.064C704.824 407.9 703.563 409.161 702.727 410.696L701.991 412.058L701.247 410.696C700.411 409.161 699.15 407.9 697.615 407.064L696.253 406.329L697.615 405.584C699.15 404.749 700.411 403.487 701.247 401.952L701.991 400.59Z"
        fill="#B7C1D7" />
    <defs>
        <filter id="filter0_d_0_1" x="52.1691" y="383.006" width="192.074" height="187.974"
            filterUnits="userSpaceOnUse" color-interpolation-filters="sRGB">
            <feFlood flood-opacity="0" result="BackgroundImageFix" />
            <feColorMatrix in="SourceAlpha" type="matrix"
                values="0 0 0 0 0 0 0 0 0 0 0 0 0 0 0 0 0 0 127 0" result="hardAlpha" />
            <feOffset dy="4" />
            <feGaussianBlur stdDeviation="2" />
            <feComposite in2="hardAlpha" operator="out" />
            <feColorMatrix type="matrix" values="0 0 0 0 0 0 0 0 0 0 0 0 0 0 0 0 0 0 0.25 0" />
            <feBlend mode="normal" in2="BackgroundImageFix" result="effect1_dropShadow_0_1" />
            <feBlend mode="normal" in="SourceGraphic" in2="effect1_dropShadow_0_1" result="shape" />
        </filter>
    </defs>
</svg>
    