<svg width="408" height="414" viewBox="0 0 408 414" fill="none" xmlns="http://www.w3.org/2000/svg">
    <path
        d="M248.2 384.06C248.2 383.67 246.87 345.01 240.58 338.89C234.47 332.95 227.45 338.67 227.15 338.89L226.52 338.13C226.6 338.06 234.52 331.6 241.27 338.13C247.84 344.52 249.13 382.36 249.18 383.97L248.2 384.06Z"
        fill="#263238" />
    <path
        d="M248.74 391.66C248.69 391.2 244.44 345.24 261.22 325.98L261.96 326.63C245.46 345.57 249.67 391.1 249.71 391.56L248.74 391.66Z"
        fill="#263238" />
    <path
        d="M248.11 386.8L247.11 386.73C247.11 386.21 250.4 334.49 238.11 323.17L238.77 322.44C251.43 334.08 248.26 384.65 248.11 386.8Z"
        fill="#263238" />
    <path
        d="M249.72 386.77H248.72C248.72 385.35 249.13 351.83 258.65 346.38C259.554 345.794 260.585 345.434 261.657 345.33C262.729 345.225 263.81 345.38 264.81 345.78C270.56 348.16 273.42 358.4 273.53 358.84L272.53 359.1C272.53 359 269.69 348.88 264.38 346.69C263.519 346.352 262.59 346.225 261.67 346.319C260.749 346.413 259.865 346.725 259.09 347.23C250.11 352.4 249.72 386.42 249.72 386.77Z"
        fill="#263238" />
    <path
        d="M246 386.79L245 386.74C245 386.47 246.43 360.25 239.36 351.02C237.64 348.78 235.78 347.71 233.82 347.85C229.18 348.17 225.29 354.96 225.25 355.03L224.4 354.54C224.57 354.24 228.58 347.23 233.75 346.87C236.06 346.7 238.21 347.87 240.14 350.42C247.47 360 246.07 385.7 246 386.79Z"
        fill="#263238" />
    <path
        d="M247.56 390.36C247.37 387.81 242.94 327.95 250.74 317.36L251.53 317.95C243.94 328.21 248.53 389.62 248.53 390.24L247.56 390.36Z"
        fill="#263238" />
    <path
        d="M268.35 349.07C268.35 349.07 263.35 350.91 265.06 354.87C269.82 366.02 281.17 367.21 281.17 367.21C281.17 367.21 286.5 358.78 282.17 352.21C276.11 343.21 268.48 346.16 268.35 349.07Z"
        style="fill: var(--primary)" />
    <path
        d="M246.6 344.08C246.6 344.08 251.6 343.88 251.86 348.17C252.12 352.46 241.07 364.34 241.07 364.34C241.07 364.34 233.17 361.49 234.86 350.77C236.55 340.05 245.36 341.44 246.6 344.08Z"
        style="fill: var(--primary)" />
    <path
        d="M249 319.06C248.382 318.966 247.796 318.721 247.294 318.348C246.792 317.975 246.389 317.485 246.12 316.92C243.78 311.3 251.84 305.25 262.63 308.45C262.63 308.45 262.91 317.94 257.11 321.68C251.31 325.42 249 319.06 249 319.06Z"
        style="fill: var(--primary)" />
    <path
        d="M230.53 348.49C230.53 348.49 232.27 346.11 229.64 345.88C227.01 345.65 215.64 350.74 218.64 362.39C218.64 362.39 233.25 357.62 233.75 352.74C234.25 347.86 230.53 348.49 230.53 348.49Z"
        style="fill: var(--primary)" />
    <path
        d="M261.67 323.23C261.937 322.522 262.356 321.88 262.896 321.35C263.437 320.819 264.087 320.413 264.8 320.16C267.28 319.26 276.47 319.83 276.6 331.85C276.6 331.85 262.46 334.2 260.71 329.62C258.96 325.04 261.67 323.23 261.67 323.23Z"
        style="fill: var(--primary)" />
    <path
        d="M254 333.22C254.272 332.758 254.713 332.419 255.23 332.276C255.746 332.132 256.298 332.194 256.77 332.45C257.848 333.1 258.771 333.978 259.474 335.022C260.177 336.066 260.643 337.252 260.839 338.495C261.035 339.739 260.957 341.01 260.61 342.22C260.263 343.43 259.655 344.55 258.83 345.5C258.83 345.5 249.34 339.79 250.12 335.79C250.88 332.1 254 333.22 254 333.22Z"
        style="fill: var(--primary)" />
    <path
        d="M230.79 336.12C230.79 336.12 232.16 334.33 230.16 334.12C228.16 333.91 219.16 336.3 221.25 345.28C221.25 345.28 232.25 344.46 232.68 340.73C233.11 337 230.79 336.12 230.79 336.12Z"
        style="fill: var(--primary)" />
    <path d="M262.12 410.79H235.34L232.45 383.07H265.01L262.12 410.79Z" fill="#263238" />
    <path d="M269.52 379.27H227.95V386.86H269.52V379.27Z" fill="#263238" />
    <path opacity="0.3"
        d="M240.09 360.63C240.031 360.629 239.973 360.607 239.928 360.569C239.882 360.531 239.851 360.478 239.84 360.42C239.06 354.82 241.7 348.18 246.43 343.9C246.479 343.855 246.544 343.831 246.611 343.834C246.677 343.837 246.74 343.866 246.785 343.915C246.83 343.964 246.854 344.029 246.851 344.096C246.848 344.162 246.819 344.225 246.77 344.27C242.16 348.44 239.57 354.91 240.34 360.35C240.349 360.415 240.331 360.48 240.292 360.533C240.253 360.585 240.195 360.62 240.13 360.63H240.09Z"
        fill="black" />
    <path opacity="0.3"
        d="M258.51 342.12C258.452 342.119 258.396 342.099 258.351 342.063C258.305 342.027 258.273 341.976 258.26 341.92C257.635 338.817 256.108 335.968 253.87 333.73C253.824 333.682 253.798 333.617 253.798 333.55C253.798 333.483 253.824 333.418 253.87 333.37C253.919 333.326 253.984 333.301 254.05 333.301C254.116 333.301 254.181 333.326 254.23 333.37C256.537 335.681 258.113 338.62 258.76 341.82C258.767 341.852 258.768 341.884 258.762 341.916C258.757 341.948 258.745 341.978 258.727 342.006C258.709 342.033 258.686 342.056 258.659 342.074C258.632 342.092 258.602 342.104 258.57 342.11L258.51 342.12Z"
        fill="black" />
    <path opacity="0.3"
        d="M279.29 360C279.242 360.002 279.195 359.99 279.154 359.965C279.113 359.94 279.08 359.904 279.06 359.86C276.729 355.232 272.927 351.511 268.25 349.28C268.215 349.271 268.182 349.255 268.153 349.232C268.125 349.209 268.102 349.18 268.086 349.147C268.07 349.114 268.061 349.078 268.06 349.042C268.06 349.005 268.067 348.969 268.082 348.936C268.097 348.902 268.119 348.873 268.146 348.849C268.174 348.825 268.206 348.807 268.241 348.797C268.276 348.787 268.313 348.785 268.349 348.79C268.385 348.796 268.42 348.81 268.45 348.83C273.234 351.106 277.125 354.909 279.51 359.64C279.539 359.7 279.543 359.769 279.523 359.832C279.502 359.895 279.458 359.948 279.4 359.98L279.29 360Z"
        fill="black" />
    <path opacity="0.3"
        d="M274 328.94C273.956 328.941 273.912 328.931 273.874 328.91C273.835 328.889 273.803 328.858 273.78 328.82C272.494 326.795 270.59 325.239 268.35 324.38C265.99 323.47 264 322.83 261.78 323.47C261.748 323.479 261.715 323.482 261.683 323.479C261.65 323.475 261.619 323.465 261.59 323.449C261.561 323.433 261.536 323.412 261.515 323.387C261.494 323.361 261.479 323.332 261.47 323.3C261.454 323.236 261.463 323.169 261.494 323.112C261.526 323.054 261.578 323.011 261.64 322.99C264.01 322.31 266.08 322.99 268.53 323.91C270.874 324.809 272.866 326.44 274.21 328.56C274.244 328.616 274.254 328.683 274.239 328.746C274.224 328.81 274.185 328.865 274.13 328.9C274.092 328.927 274.046 328.941 274 328.94Z"
        fill="black" />
    <path
        d="M241.84 325.25C241.84 325.25 245.16 325.65 245.35 323.62C245.54 321.59 234.35 313.68 225.23 320.22C225.23 320.22 228.05 329.28 234.75 330.93C241.45 332.58 241.84 325.25 241.84 325.25Z"
        style="fill: var(--primary)" />
    <path opacity="0.3"
        d="M241.74 325.67C241.701 325.669 241.663 325.66 241.629 325.643C241.594 325.625 241.564 325.601 241.54 325.57C238.21 321.09 229.76 319.44 226.86 320.5C226.829 320.512 226.796 320.518 226.762 320.517C226.729 320.517 226.696 320.509 226.665 320.495C226.635 320.482 226.608 320.462 226.585 320.437C226.562 320.413 226.545 320.384 226.533 320.353C226.522 320.321 226.517 320.288 226.519 320.254C226.52 320.221 226.529 320.188 226.544 320.158C226.558 320.128 226.579 320.101 226.604 320.079C226.629 320.057 226.658 320.041 226.69 320.03C229.69 318.95 238.36 320.46 241.94 325.27C241.98 325.323 241.997 325.39 241.987 325.455C241.978 325.521 241.943 325.58 241.89 325.62C241.845 325.65 241.794 325.667 241.74 325.67Z"
        fill="black" />
    <path opacity="0.3"
        d="M223.43 342C223.388 342.015 223.342 342.015 223.3 342C223.243 341.967 223.202 341.912 223.185 341.849C223.168 341.785 223.177 341.717 223.21 341.66C225.1 338.56 228.78 336.83 230.81 336.08C230.872 336.058 230.941 336.061 231.001 336.089C231.061 336.117 231.107 336.168 231.13 336.23C231.15 336.292 231.146 336.36 231.118 336.419C231.09 336.479 231.041 336.525 230.98 336.55C228.98 337.28 225.45 338.95 223.64 341.92C223.614 341.949 223.581 341.971 223.544 341.985C223.508 341.999 223.469 342.004 223.43 342Z"
        fill="black" />
    <path opacity="0.3"
        d="M220.21 358.21C220.171 358.22 220.129 358.22 220.09 358.21C220.061 358.194 220.035 358.173 220.015 358.148C219.994 358.122 219.979 358.092 219.969 358.061C219.96 358.029 219.957 357.996 219.961 357.963C219.964 357.931 219.974 357.899 219.99 357.87C222.287 353.524 225.998 350.092 230.51 348.14C230.573 348.119 230.641 348.122 230.702 348.147C230.762 348.173 230.812 348.22 230.84 348.28C230.863 348.343 230.862 348.412 230.836 348.473C230.81 348.534 230.761 348.584 230.7 348.61C226.293 350.507 222.669 353.856 220.43 358.1C220.407 358.137 220.375 358.167 220.336 358.187C220.297 358.206 220.253 358.214 220.21 358.21Z"
        fill="black" />
    <path opacity="0.3"
        d="M249.45 319.08C249.417 319.089 249.383 319.089 249.35 319.08C249.32 319.067 249.292 319.048 249.27 319.024C249.247 319 249.229 318.972 249.218 318.941C249.207 318.91 249.202 318.877 249.204 318.844C249.206 318.811 249.215 318.779 249.23 318.75C250.148 316.824 251.448 315.106 253.053 313.699C254.657 312.293 256.531 311.228 258.56 310.57C258.619 310.561 258.678 310.574 258.729 310.605C258.779 310.637 258.816 310.685 258.834 310.741C258.852 310.798 258.85 310.859 258.827 310.914C258.804 310.968 258.763 311.013 258.71 311.04C256.751 311.68 254.942 312.712 253.395 314.074C251.848 315.436 250.594 317.098 249.71 318.96C249.685 319.005 249.647 319.041 249.6 319.063C249.553 319.085 249.5 319.091 249.45 319.08Z"
        fill="black" />
    <path opacity="0.3" d="M232.85 386.87L233.37 391.84H264.1L264.62 386.86L232.85 386.87Z"
        fill="black" />
    <path
        d="M169.39 364.96H102.81C101.142 364.96 99.79 366.312 99.79 367.98V409.28C99.79 410.948 101.142 412.3 102.81 412.3H169.39C171.058 412.3 172.41 410.948 172.41 409.28V367.98C172.41 366.312 171.058 364.96 169.39 364.96Z"
        style="fill: var(--primary)" />
    <path opacity="0.5"
        d="M169.39 364.96H102.81C101.142 364.96 99.79 366.312 99.79 367.98V409.28C99.79 410.948 101.142 412.3 102.81 412.3H169.39C171.058 412.3 172.41 410.948 172.41 409.28V367.98C172.41 366.312 171.058 364.96 169.39 364.96Z"
        fill="white" />
    <path d="M157.98 372.47H115.09V375.2H157.98V372.47Z" style="fill: var(--primary)" />
    <path
        d="M111.53 373.83C111.532 374.203 111.423 374.568 111.217 374.878C111.012 375.189 110.718 375.431 110.374 375.575C110.03 375.718 109.651 375.757 109.286 375.684C108.92 375.612 108.584 375.433 108.321 375.169C108.057 374.906 107.878 374.57 107.806 374.204C107.733 373.839 107.772 373.46 107.915 373.116C108.059 372.772 108.301 372.478 108.612 372.273C108.922 372.067 109.287 371.958 109.66 371.96C110.155 371.963 110.629 372.16 110.979 372.511C111.33 372.861 111.527 373.335 111.53 373.83Z"
        style="fill: var(--primary)" />
    <path d="M133.65 381.54H109.85V405.34H133.65V381.54Z" style="fill: var(--primary)" />
    <path opacity="0.4" d="M133.65 381.54H109.85V405.34H133.65V381.54Z" fill="white" />
    <path d="M132.28 382.91H111.21V403.98H132.28V382.91Z" style="fill: var(--primary)" />
    <path opacity="0.7" d="M132.28 382.91H111.21V403.98H132.28V382.91Z" fill="white" />
    <path d="M111.21 403.98L118.37 394.46L123.1 397.7L128.82 391.38L132.28 394.62V403.98H111.21Z"
        style="fill: var(--primary)" />
    <path
        d="M121.75 390.59C123.191 390.59 124.36 389.422 124.36 387.98C124.36 386.539 123.191 385.37 121.75 385.37C120.309 385.37 119.14 386.539 119.14 387.98C119.14 389.422 120.309 390.59 121.75 390.59Z"
        style="fill: var(--primary)" />
    <path d="M166.16 390.72H138.71V393.45H166.16V390.72Z" fill="#263238" />
    <path d="M150.69 398.11H138.71V400.84H150.69V398.11Z" fill="#263238" />
    <path d="M166.16 383.32H138.71V386.05H166.16V383.32Z" fill="#263238" />
    <path
        d="M200.29 356.03H120.01C118.342 356.03 116.99 357.382 116.99 359.05V409.28C116.99 410.948 118.342 412.3 120.01 412.3H200.29C201.958 412.3 203.31 410.948 203.31 409.28V359.05C203.31 357.382 201.958 356.03 200.29 356.03Z"
        style="fill: var(--primary)" />
    <path opacity="0.7"
        d="M200.29 356.03H120.01C118.342 356.03 116.99 357.382 116.99 359.05V409.28C116.99 410.948 118.342 412.3 120.01 412.3H200.29C201.958 412.3 203.31 410.948 203.31 409.28V359.05C203.31 357.382 201.958 356.03 200.29 356.03Z"
        fill="white" />
    <path d="M186.16 364.96H135.18V368.2H186.16V364.96Z" style="fill: var(--primary)" />
    <path
        d="M128.72 368.81C129.952 368.81 130.95 367.812 130.95 366.58C130.95 365.348 129.952 364.35 128.72 364.35C127.488 364.35 126.49 365.348 126.49 366.58C126.49 367.812 127.488 368.81 128.72 368.81Z"
        style="fill: var(--primary)" />
    <path d="M157.24 375.74H128.95V404.03H157.24V375.74Z" style="fill: var(--primary)" />
    <path opacity="0.4" d="M157.24 375.74H128.95V404.03H157.24V375.74Z" fill="white" />
    <path d="M155.61 377.36H130.57V402.4H155.61V377.36Z" style="fill: var(--primary)" />
    <path opacity="0.7" d="M155.61 377.36H130.57V402.4H155.61V377.36Z" fill="white" />
    <path d="M130.57 402.41L139.07 391.09L144.71 394.95L151.5 387.43L155.61 391.28V402.41H130.57Z"
        style="fill: var(--primary)" />
    <path
        d="M146.19 383.39C146.188 384.003 146.005 384.601 145.663 385.11C145.321 385.618 144.836 386.014 144.269 386.247C143.703 386.48 143.08 386.54 142.479 386.419C141.878 386.299 141.327 386.002 140.894 385.569C140.462 385.135 140.168 384.582 140.049 383.981C139.93 383.38 139.992 382.757 140.227 382.191C140.462 381.626 140.859 381.142 141.369 380.802C141.878 380.462 142.477 380.28 143.09 380.28C143.498 380.28 143.902 380.361 144.279 380.517C144.655 380.673 144.998 380.903 145.286 381.192C145.574 381.48 145.802 381.823 145.957 382.201C146.112 382.578 146.191 382.982 146.19 383.39Z"
        style="fill: var(--primary)" />
    <path d="M195.88 386.64H163.25V389.88H195.88V386.64Z" fill="#263238" />
    <path d="M177.49 395.44H163.25V398.68H177.49V395.44Z" fill="#263238" />
    <path d="M195.88 377.85H163.25V381.09H195.88V377.85Z" fill="#263238" />
    <path
        d="M361.05 57.29H58.47C54.7586 57.29 51.75 60.2987 51.75 64.01V294.38C51.75 298.091 54.7586 301.1 58.47 301.1H361.05C364.761 301.1 367.77 298.091 367.77 294.38V64.01C367.77 60.2987 364.761 57.29 361.05 57.29Z"
        style="fill: var(--primary)" />
    <path opacity="0.6"
        d="M361.05 57.29H58.47C54.7586 57.29 51.75 60.2987 51.75 64.01V294.38C51.75 298.091 54.7586 301.1 58.47 301.1H361.05C364.761 301.1 367.77 298.091 367.77 294.38V64.01C367.77 60.2987 364.761 57.29 361.05 57.29Z"
        fill="white" />
    <path
        d="M338.09 105.94H273.12C271.452 105.94 270.1 107.292 270.1 108.96V136.15C270.1 137.818 271.452 139.17 273.12 139.17H338.09C339.758 139.17 341.11 137.818 341.11 136.15V108.96C341.11 107.292 339.758 105.94 338.09 105.94Z"
        fill="white" />
    <path d="M327 113.28H285.06V115.95H327V113.28Z" style="fill: var(--primary)" />
    <path d="M332.22 121.71H277.91V124.38H332.22V121.71Z" fill="#263238" />
    <path d="M304.75 128.8H277.91V131.47H304.75V128.8Z" fill="#263238" />
    <path
        d="M281.58 114.62C281.58 114.984 281.472 115.34 281.27 115.642C281.068 115.945 280.78 116.181 280.444 116.32C280.108 116.459 279.738 116.496 279.381 116.425C279.024 116.354 278.696 116.178 278.439 115.921C278.182 115.664 278.006 115.336 277.935 114.979C277.864 114.622 277.901 114.252 278.04 113.916C278.179 113.58 278.415 113.292 278.718 113.09C279.02 112.888 279.376 112.78 279.74 112.78C279.982 112.779 280.222 112.825 280.446 112.917C280.67 113.009 280.873 113.145 281.044 113.316C281.215 113.487 281.351 113.691 281.443 113.914C281.535 114.138 281.581 114.378 281.58 114.62Z"
        style="fill: var(--primary)" />
    <path
        d="M56.54 56.5999H363.89C364.919 56.5999 365.906 57.0086 366.634 57.7363C367.361 58.4639 367.77 59.4508 367.77 60.4799V71.4799H51.68V61.4799C51.6774 60.84 51.8011 60.2058 52.0442 59.6139C52.2873 59.0219 52.6448 58.4838 53.0964 58.0304C53.5479 57.577 54.0846 57.2172 54.6755 56.9717C55.2665 56.7262 55.9001 56.5998 56.54 56.5999Z"
        style="fill: var(--primary)" />
    <path opacity="0.3"
        d="M360.23 63.9998C360.23 64.6248 360.045 65.2358 359.697 65.7554C359.35 66.2751 358.857 66.6801 358.279 66.9193C357.702 67.1585 357.066 67.2211 356.454 67.0991C355.841 66.9772 355.277 66.6762 354.836 66.2343C354.394 65.7924 354.093 65.2293 353.971 64.6163C353.849 64.0034 353.911 63.368 354.151 62.7906C354.39 62.2132 354.795 61.7196 355.314 61.3724C355.834 61.0252 356.445 60.8398 357.07 60.8398C357.907 60.8425 358.709 61.1763 359.302 61.7683C359.894 62.3603 360.227 63.1626 360.23 63.9998Z"
        fill="white" />
    <path opacity="0.3"
        d="M351.24 63.9998C351.24 64.6248 351.055 65.2358 350.707 65.7554C350.36 66.2751 349.867 66.6801 349.289 66.9193C348.712 67.1585 348.076 67.2211 347.463 67.0991C346.851 66.9772 346.287 66.6762 345.846 66.2343C345.404 65.7924 345.103 65.2293 344.981 64.6163C344.859 64.0034 344.921 63.368 345.161 62.7906C345.4 62.2132 345.805 61.7196 346.324 61.3724C346.844 61.0252 347.455 60.8398 348.08 60.8398C348.495 60.8398 348.906 60.9216 349.289 61.0804C349.673 61.2392 350.021 61.472 350.314 61.7654C350.608 62.0588 350.841 62.4072 350.999 62.7906C351.158 63.174 351.24 63.5849 351.24 63.9998Z"
        fill="white" />
    <path opacity="0.3"
        d="M342.26 63.9998C342.26 64.6248 342.075 65.2358 341.727 65.7554C341.38 66.2751 340.887 66.6801 340.309 66.9193C339.732 67.1585 339.096 67.2211 338.484 67.0991C337.871 66.9772 337.307 66.6762 336.866 66.2343C336.424 65.7924 336.123 65.2293 336.001 64.6163C335.879 64.0034 335.941 63.368 336.181 62.7906C336.42 62.2132 336.825 61.7196 337.344 61.3724C337.864 61.0252 338.475 60.8398 339.1 60.8398C339.515 60.8398 339.926 60.9216 340.309 61.0804C340.693 61.2392 341.041 61.472 341.334 61.7654C341.628 62.0588 341.861 62.4072 342.019 62.7906C342.178 63.174 342.26 63.5849 342.26 63.9998Z"
        fill="white" />
    <path
        d="M125.85 50.47H101.05C100.917 50.47 100.79 50.4173 100.696 50.3235C100.603 50.2298 100.55 50.1026 100.55 49.97C100.553 49.8382 100.606 49.7125 100.699 49.6192C100.792 49.526 100.918 49.4725 101.05 49.47H125.85C125.983 49.47 126.11 49.5226 126.204 49.6164C126.297 49.7102 126.35 49.8374 126.35 49.97C126.35 50.1026 126.297 50.2298 126.204 50.3235C126.11 50.4173 125.983 50.47 125.85 50.47Z"
        style="fill: var(--primary)" />
    <path
        d="M137.85 50.47H132.68C132.547 50.47 132.42 50.4173 132.326 50.3235C132.233 50.2298 132.18 50.1026 132.18 49.97C132.183 49.8382 132.236 49.7125 132.329 49.6192C132.423 49.526 132.548 49.4725 132.68 49.47H137.85C137.983 49.47 138.11 49.5226 138.204 49.6164C138.297 49.7102 138.35 49.8374 138.35 49.97C138.35 50.1026 138.297 50.2298 138.204 50.3235C138.11 50.4173 137.983 50.47 137.85 50.47Z"
        style="fill: var(--primary)" />
    <path d="M155.6 291.86H66.27V89.55H155.6V291.86ZM67.27 290.86H154.6V90.55H67.27V290.86Z"
        style="fill: var(--primary)" />
    <path
        d="M252.36 291.86H163V89.55H252.34L252.36 291.86ZM164.02 290.86H251.36V90.55H164L164.02 290.86Z"
        style="fill: var(--primary)" />
    <path d="M349.11 291.86H259.77V89.55H349.11V291.86ZM260.77 290.86H348.11V90.55H260.77V290.86Z"
        style="fill: var(--primary)" />
    <path
        d="M142.88 103.77H77.91C76.2421 103.77 74.89 105.122 74.89 106.79V133.98C74.89 135.648 76.2421 137 77.91 137H142.88C144.548 137 145.9 135.648 145.9 133.98V106.79C145.9 105.122 144.548 103.77 142.88 103.77Z"
        fill="white" />
    <path d="M131.79 111.12H89.85V113.79H131.79V111.12Z" style="fill: var(--primary)" />
    <path d="M137.02 119.55H82.71V122.22H137.02V119.55Z" fill="#263238" />
    <path d="M109.55 126.64H82.71V129.31H109.55V126.64Z" fill="#263238" />
    <path
        d="M86.37 112.46C86.368 112.821 86.259 113.174 86.0567 113.474C85.8545 113.773 85.568 114.006 85.2334 114.143C84.8988 114.28 84.5312 114.315 84.1769 114.243C83.8226 114.172 83.4974 113.997 83.2425 113.74C82.9876 113.484 82.8143 113.158 82.7445 112.803C82.6747 112.449 82.7115 112.081 82.8503 111.747C82.9891 111.413 83.2236 111.128 83.5243 110.928C83.8251 110.727 84.1785 110.62 84.54 110.62C84.7812 110.62 85.0199 110.668 85.2426 110.76C85.4653 110.853 85.6675 110.988 85.8375 111.159C86.0076 111.33 86.1422 111.533 86.2336 111.757C86.325 111.98 86.3713 112.219 86.37 112.46Z"
        style="fill: var(--primary)" />
    <path
        d="M142.88 229.15H77.91C76.2421 229.15 74.89 230.502 74.89 232.17V259.36C74.89 261.028 76.2421 262.38 77.91 262.38H142.88C144.548 262.38 145.9 261.028 145.9 259.36V232.17C145.9 230.502 144.548 229.15 142.88 229.15Z"
        fill="white" />
    <path d="M131.79 236.5H89.85V239.17H131.79V236.5Z" style="fill: var(--primary)" />
    <path d="M137.02 244.92H82.71V247.59H137.02V244.92Z" fill="#263238" />
    <path d="M109.55 252.01H82.71V254.68H109.55V252.01Z" fill="#263238" />
    <path
        d="M86.37 237.83C86.37 238.192 86.2627 238.546 86.0616 238.847C85.8605 239.148 85.5747 239.382 85.2403 239.521C84.9059 239.659 84.538 239.695 84.183 239.625C83.828 239.554 83.5019 239.38 83.246 239.124C82.9901 238.868 82.8158 238.542 82.7452 238.187C82.6745 237.832 82.7108 237.464 82.8493 237.13C82.9878 236.795 83.2224 236.509 83.5233 236.308C83.8242 236.107 84.1781 236 84.54 236C85.0253 236 85.4908 236.193 85.834 236.536C86.1772 236.879 86.37 237.345 86.37 237.83Z"
        style="fill: var(--primary)" />
    <path
        d="M240.17 162.54H175.2C173.532 162.54 172.18 163.892 172.18 165.56V205.81C172.18 207.478 173.532 208.83 175.2 208.83H240.17C241.838 208.83 243.19 207.478 243.19 205.81V165.56C243.19 163.892 241.838 162.54 240.17 162.54Z"
        fill="white" />
    <path d="M229.08 169.89H187.14V172.56H229.08V169.89Z" style="fill: var(--primary)" />
    <path
        d="M183.66 171.22C183.662 171.585 183.556 171.942 183.354 172.246C183.153 172.55 182.865 172.787 182.529 172.928C182.192 173.068 181.821 173.106 181.464 173.035C181.106 172.964 180.777 172.789 180.519 172.531C180.261 172.273 180.086 171.944 180.015 171.586C179.944 171.229 179.982 170.858 180.122 170.521C180.263 170.185 180.5 169.897 180.804 169.696C181.108 169.494 181.465 169.388 181.83 169.39C182.315 169.39 182.781 169.583 183.124 169.926C183.467 170.269 183.66 170.735 183.66 171.22Z"
        style="fill: var(--primary)" />
    <path
        d="M240.17 108.15H175.2C173.532 108.15 172.18 109.502 172.18 111.17V151.42C172.18 153.088 173.532 154.44 175.2 154.44H240.17C241.838 154.44 243.19 153.088 243.19 151.42V111.17C243.19 109.502 241.838 108.15 240.17 108.15Z"
        fill="white" />
    <path d="M229.08 115.5H187.14V118.17H229.08V115.5Z" style="fill: var(--primary)" />
    <path
        d="M183.66 116.83C183.662 117.195 183.556 117.552 183.354 117.856C183.153 118.16 182.865 118.398 182.529 118.538C182.192 118.679 181.821 118.716 181.464 118.645C181.106 118.574 180.777 118.399 180.519 118.141C180.261 117.883 180.086 117.554 180.015 117.197C179.944 116.839 179.982 116.468 180.122 116.131C180.263 115.795 180.5 115.507 180.804 115.306C181.108 115.105 181.465 114.998 181.83 115C182.315 115 182.781 115.193 183.124 115.536C183.467 115.879 183.66 116.345 183.66 116.83Z"
        style="fill: var(--primary)" />
    <path d="M205.28 124.37H182.01V147.64H205.28V124.37Z" style="fill: var(--primary)" />
    <path opacity="0.4" d="M205.28 124.37H182.01V147.64H205.28V124.37Z" fill="white" />
    <path d="M203.94 125.71H183.34V146.31H203.94V125.71Z" style="fill: var(--primary)" />
    <path opacity="0.7" d="M203.94 125.71H183.34V146.31H203.94V125.71Z" fill="white" />
    <path d="M183.34 146.31L190.34 137L194.98 140.17L200.56 133.99L203.95 137.16V146.31H183.34Z"
        style="fill: var(--primary)" />
    <path
        d="M196.2 130.66C196.202 131.167 196.053 131.663 195.773 132.086C195.492 132.508 195.092 132.838 194.624 133.033C194.156 133.228 193.641 133.28 193.143 133.181C192.646 133.083 192.188 132.839 191.83 132.48C191.471 132.121 191.227 131.664 191.129 131.167C191.03 130.669 191.082 130.154 191.277 129.686C191.472 129.217 191.801 128.818 192.224 128.537C192.647 128.257 193.143 128.108 193.65 128.11C194.325 128.113 194.973 128.382 195.45 128.86C195.928 129.337 196.197 129.984 196.2 130.66Z"
        style="fill: var(--primary)" />
    <path d="M237.07 133.34H210.23V136.01H237.07V133.34Z" fill="#263238" />
    <path d="M221.94 140.58H210.23V143.25H221.94V140.58Z" fill="#263238" />
    <path d="M237.07 126.11H210.23V128.78H237.07V126.11Z" fill="#263238" />
    <path
        d="M205.28 189.79L209.82 177.32C211.511 177.934 213.059 178.886 214.37 180.119C215.68 181.352 216.725 182.839 217.44 184.49L205.28 189.79Z"
        style="fill: var(--primary)" />
    <path opacity="0.6"
        d="M205.28 189.79L209.82 177.32C211.511 177.934 213.059 178.886 214.37 180.119C215.68 181.352 216.725 182.839 217.44 184.49L205.28 189.79Z"
        fill="white" />
    <path
        d="M205.28 189.79L209.15 202.48C207.14 203.094 205.013 203.221 202.945 202.853C200.876 202.484 198.924 201.629 197.25 200.358C195.577 199.088 194.229 197.438 193.317 195.544C192.406 193.651 191.957 191.568 192.008 189.467C192.059 187.366 192.608 185.308 193.61 183.461C194.612 181.614 196.038 180.031 197.772 178.843C199.505 177.655 201.496 176.895 203.58 176.627C205.664 176.359 207.782 176.589 209.76 177.3L205.28 189.79Z"
        style="fill: var(--primary)" />
    <path
        d="M205.28 189.79L217.47 184.55C218.205 186.26 218.573 188.105 218.548 189.967C218.524 191.828 218.108 193.663 217.328 195.353C216.548 197.043 215.422 198.55 214.021 199.776C212.621 201.002 210.978 201.92 209.2 202.47L205.28 189.79Z"
        style="fill: var(--primary)" />
    <path opacity="0.3"
        d="M205.28 189.79L217.47 184.55C218.205 186.26 218.573 188.105 218.548 189.967C218.524 191.828 218.108 193.663 217.328 195.353C216.548 197.043 215.422 198.55 214.021 199.776C212.621 201.002 210.978 201.92 209.2 202.47L205.28 189.79Z"
        fill="black" />
    <path d="M291.24 149.86H272.73V168.37H291.24V149.86Z" style="fill: var(--primary)" />
    <path d="M194.66 219.01H176.15V237.52H194.66V219.01Z" style="fill: var(--primary)" />
    <path d="M217.07 219.01H198.56V237.52H217.07V219.01Z" style="fill: var(--primary)" />
    <path d="M240.42 219.01H221.91V237.52H240.42V219.01Z" fill="#263238" />
    <path d="M194.77 242.89H176.26V261.4H194.77V242.89Z" fill="white" />
    <path d="M315.28 149.86H296.77V168.37H315.28V149.86Z" fill="white" />
    <path
        d="M84.18 62.0701C81.8741 68.5029 77.7124 74.1074 72.2212 78.1749C66.73 82.2424 60.1559 84.5902 53.3304 84.9212C46.5048 85.2523 39.7343 83.5519 33.8752 80.035C28.0161 76.5181 23.3315 71.3427 20.4138 65.1633C17.4961 58.9839 16.4765 52.078 17.4838 45.3191C18.491 38.5601 21.48 32.2517 26.0727 27.1916C30.6654 22.1314 36.6556 18.5469 43.2855 16.8912C49.9155 15.2356 56.8876 15.5832 63.32 17.8901C71.9444 20.9832 78.987 27.3752 82.8989 35.6604C86.8108 43.9455 87.2716 53.4452 84.18 62.0701Z"
        style="fill: var(--primary)" />
    <path opacity="0.3"
        d="M84.18 62.0701C81.8741 68.5029 77.7124 74.1074 72.2212 78.1749C66.73 82.2424 60.1559 84.5902 53.3304 84.9212C46.5048 85.2523 39.7343 83.5519 33.8752 80.035C28.0161 76.5181 23.3315 71.3427 20.4138 65.1633C17.4961 58.9839 16.4765 52.078 17.4838 45.3191C18.491 38.5601 21.48 32.2517 26.0727 27.1916C30.6654 22.1314 36.6556 18.5469 43.2855 16.8912C49.9155 15.2356 56.8876 15.5832 63.32 17.8901C71.9444 20.9832 78.987 27.3752 82.8989 35.6604C86.8108 43.9455 87.2716 53.4452 84.18 62.0701Z"
        fill="black" />
    <path
        d="M73.6388 73.9584C87.1314 60.4658 87.1314 38.5899 73.6388 25.0973C60.1462 11.6047 38.2703 11.6047 24.7777 25.0973C11.2851 38.5899 11.2851 60.4658 24.7777 73.9584C38.2703 87.451 60.1462 87.451 73.6388 73.9584Z"
        style="fill: var(--primary)" />
    <path
        d="M62.261 75.0929C76.3765 67.8821 81.9738 50.5938 74.763 36.4783C67.5522 22.3629 50.2639 16.7656 36.1484 23.9764C22.033 31.1872 16.4357 48.4755 23.6465 62.5909C30.8573 76.7064 48.1456 82.3037 62.261 75.0929Z"
        fill="white" />
    <path
        d="M45.81 73.8901L46.74 67.1401H47.14L46.37 74.0001L45.81 73.8901ZM35.35 69.8901C35.1871 69.7892 35.0302 69.679 34.88 69.5601L38.88 64.0401L39.21 64.2701L35.35 69.8901ZM57.51 72.7301L55.2 66.3201L55.6 66.1701L58.03 72.5401L57.51 72.7301ZM27.51 61.1301L27.25 60.6301L33.34 57.5701L33.53 57.9301L27.51 61.1301ZM67.33 66.2201L62.33 61.6201L62.61 61.3101L67.8 65.7201L67.69 65.8601L67.33 66.2201ZM24.62 49.6801V49.1101L31.44 49.2201C31.44 49.3601 31.44 49.4901 31.44 49.6301L24.62 49.6801ZM66.4 54.0001L66.49 53.6301L73.12 55.2001C73.12 55.3901 73.03 55.5801 72.98 55.7701L66.4 54.0001ZM33.4 41.3401L27.4 38.1901L27.65 37.7101L33.65 40.9601L33.4 41.3401ZM66.52 45.5101L66.42 45.1101L73 43.4901C73 43.6701 73.09 43.8501 73.13 44.0401L66.52 45.5101ZM39 35.0001L35.09 29.4201L35.54 29.1001L39.35 34.7601L39 35.0001ZM62.68 38.0001L62.41 37.7001L67.47 33.1401L67.85 33.5701L62.68 38.0001ZM47 31.9101L46.14 25.1501L46.72 25.0801L47.39 31.8601L47 31.9101ZM55.78 33.0001L55.4 32.8501L57.77 26.4601L58.3 26.6701L55.78 33.0001Z"
        fill="black" />
    <path
        d="M49.36 51.2C49.2613 51.198 49.1648 51.1704 49.08 51.12L37.74 43.55C37.6304 43.4767 37.5542 43.363 37.528 43.2338C37.5017 43.1046 37.5276 42.9702 37.6 42.86C37.6752 42.7497 37.7906 42.6733 37.9214 42.6471C38.0523 42.6209 38.1882 42.6471 38.3 42.72L49.11 49.93L54.11 35.93C54.131 35.8665 54.1644 35.8078 54.2084 35.7575C54.2524 35.7072 54.3061 35.6662 54.3662 35.637C54.4263 35.6078 54.4917 35.5909 54.5585 35.5874C54.6252 35.5838 54.692 35.5937 54.7549 35.6165C54.8177 35.6392 54.8754 35.6743 54.9245 35.7197C54.9735 35.7652 55.013 35.8199 55.0405 35.8809C55.068 35.9418 55.083 36.0076 55.0847 36.0745C55.0863 36.1413 55.0745 36.2078 55.05 36.27L49.85 50.83C49.8234 50.9008 49.782 50.9651 49.7286 51.0185C49.6751 51.072 49.6108 51.1134 49.54 51.14L49.36 51.2Z"
        fill="black" />
    <path
        d="M51.39 50.3C51.2787 50.708 51.0491 51.0739 50.73 51.3514C50.411 51.629 50.0169 51.8058 49.5974 51.8596C49.178 51.9133 48.752 51.8416 48.3733 51.6535C47.9946 51.4653 47.6801 51.1692 47.4695 50.8025C47.259 50.4357 47.1618 50.0148 47.1903 49.5929C47.2187 49.171 47.3715 48.767 47.6294 48.4318C47.8873 48.0967 48.2387 47.8455 48.6393 47.7099C49.0398 47.5743 49.4716 47.5604 49.88 47.67C50.1521 47.7431 50.4072 47.8691 50.6305 48.0409C50.8538 48.2128 51.041 48.427 51.1813 48.6714C51.3216 48.9158 51.4122 49.1854 51.4481 49.4649C51.4839 49.7444 51.4641 50.0282 51.39 50.3Z"
        fill="black" />
    <path opacity="0.3"
        d="M23.87 41.3799C25.4612 36.9348 28.1249 32.9511 31.6247 29.7821C35.1245 26.6131 39.3523 24.3568 43.933 23.2134C48.5138 22.0699 53.306 22.0746 57.8845 23.227C62.4631 24.3795 66.6864 26.6441 70.18 29.8199C67.5492 26.9691 64.3677 24.6812 60.8278 23.0944C57.288 21.5077 53.4631 20.6551 49.5845 20.588C45.7058 20.521 41.8538 21.241 38.2612 22.7044C34.6687 24.1679 31.41 26.3445 28.6823 29.1027C25.9545 31.8609 23.8142 35.1435 22.3907 38.7521C20.9672 42.3607 20.29 46.2205 20.4001 50.0981C20.5102 53.9758 21.4052 57.7909 23.0311 61.313C24.6571 64.835 26.9801 67.9909 29.86 70.5899C26.2824 66.7364 23.8318 61.9745 22.7755 56.8235C21.7192 51.6726 22.0978 46.3304 23.87 41.3799Z"
        fill="black" />
    <path
        d="M396.67 91.79H373.28C370.401 91.7927 367.642 92.938 365.607 94.9744C363.573 97.0108 362.43 99.7715 362.43 102.65V115.75C362.43 118.629 363.573 121.389 365.607 123.426C367.642 125.462 370.401 126.607 373.28 126.61H378.6L379.45 132.61L385.9 126.61H396.67C399.549 126.607 402.308 125.462 404.343 123.426C406.377 121.389 407.52 118.629 407.52 115.75V102.65C407.52 99.7715 406.377 97.0108 404.343 94.9744C402.308 92.938 399.549 91.7927 396.67 91.79Z"
        style="fill: var(--primary)" />
    <path
        d="M390.5 109.24C390.5 109.792 390.664 110.331 390.97 110.79C391.277 111.249 391.713 111.606 392.222 111.818C392.732 112.029 393.293 112.084 393.834 111.976C394.375 111.869 394.873 111.603 395.263 111.213C395.653 110.823 395.919 110.325 396.026 109.784C396.134 109.243 396.079 108.682 395.868 108.172C395.656 107.662 395.299 107.227 394.84 106.92C394.381 106.614 393.842 106.45 393.29 106.45C392.55 106.45 391.84 106.744 391.317 107.267C390.794 107.79 390.5 108.5 390.5 109.24Z"
        fill="white" />
    <path
        d="M381 109.24C381 109.792 381.164 110.331 381.47 110.79C381.777 111.249 382.213 111.606 382.722 111.818C383.232 112.029 383.793 112.084 384.334 111.976C384.875 111.869 385.373 111.603 385.763 111.213C386.153 110.823 386.419 110.325 386.526 109.784C386.634 109.243 386.579 108.682 386.368 108.172C386.156 107.662 385.799 107.227 385.34 106.92C384.881 106.614 384.342 106.45 383.79 106.45C383.05 106.45 382.34 106.744 381.817 107.267C381.294 107.79 381 108.5 381 109.24Z"
        fill="white" />
    <path
        d="M371.2 109.24C371.198 109.794 371.361 110.336 371.667 110.798C371.973 111.26 372.41 111.62 372.922 111.834C373.433 112.047 373.996 112.104 374.54 111.997C375.084 111.89 375.584 111.625 375.976 111.233C376.369 110.842 376.637 110.343 376.745 109.8C376.854 109.256 376.799 108.693 376.588 108.181C376.376 107.669 376.017 107.231 375.557 106.923C375.096 106.614 374.554 106.45 374 106.45C373.259 106.45 372.548 106.744 372.024 107.267C371.499 107.789 371.203 108.499 371.2 109.24Z"
        fill="white" />
    <path
        d="M397.27 89.6699H382.44C382.351 89.6845 382.27 89.7302 382.212 89.7989C382.153 89.8676 382.121 89.9548 382.121 90.0449C382.121 90.1351 382.153 90.2222 382.212 90.2909C382.27 90.3596 382.351 90.4053 382.44 90.4199H397.27C397.359 90.4053 397.44 90.3596 397.498 90.2909C397.557 90.2222 397.589 90.1351 397.589 90.0449C397.589 89.9548 397.557 89.8676 397.498 89.7989C397.44 89.7302 397.359 89.6845 397.27 89.6699Z"
        style="fill: var(--primary)" />
    <path
        d="M380.58 89.6699H379.34C379.239 89.6699 379.143 89.71 379.071 89.7812C379 89.8525 378.96 89.9491 378.96 90.0499C378.963 90.149 379.004 90.2431 379.075 90.3122C379.146 90.3813 379.241 90.42 379.34 90.4199H380.58C380.669 90.4053 380.75 90.3596 380.808 90.2909C380.867 90.2222 380.899 90.1351 380.899 90.0449C380.899 89.9548 380.867 89.8676 380.808 89.7989C380.75 89.7302 380.669 89.6845 380.58 89.6699Z"
        style="fill: var(--primary)" />
    <path
        d="M384.39 231.47C384.39 231.47 383.88 240.31 379.57 255.79C376.862 265.353 373.576 274.744 369.73 283.91C367.58 289.09 365.11 294.59 362.28 300.37C361 303 359.63 305.68 358.2 308.42C356.55 355.27 330.26 402.9 330.26 402.9C328.8 403.65 323.71 402.83 323.75 401.35C327.64 395.17 335.3 335.13 340.24 306.66C340.55 302.78 340.99 298.66 341.54 294.35C342.98 282.85 345.12 270.35 347.23 259.35C350.49 242.03 353.6 228.45 353.6 228.45L362.26 229.29L384.39 231.47Z"
        fill="#E1BFB9" />
    <path
        d="M394.73 296.33C394.03 301.37 393.13 306.763 392.03 312.51C401.42 343.84 382.1 405 382.1 405C378.84 405.65 375.95 405.23 374.48 404.13C378.12 385.7 375.48 337.79 372.67 309.13C372.42 306.53 372.1 303.68 371.76 300.63C371.18 295.46 370.48 289.77 369.76 283.88C368.51 274.04 367.11 263.68 365.85 254.49C364.3 243.39 362.96 234 362.26 229.28C361.98 227.21 361.81 226.04 361.81 226.04L388.9 229C388.9 229 395.8 236.73 396.9 260.87C397.243 272.731 396.517 284.599 394.73 296.33Z"
        fill="#E1BFB9" />
    <path
        d="M382.78 413H381.26L380.84 411.14L375.84 413.41H363.16C363.16 413.41 361.16 411.41 367.16 409.78C367.457 409.7 367.745 409.589 368.02 409.45C371.23 407.94 375.81 402.84 375.81 402.84H382.81C383.019 403.162 383.209 403.496 383.38 403.84C384.13 405.35 385.41 408.61 382.78 413Z"
        fill="#263238" />
    <path
        d="M383.37 403.83C382.45 402.83 378.27 407.3 375.21 408.83C372.47 410.18 369.4 410.83 368.05 409.41C371.26 407.89 376.32 401.3 376.32 401.3H381.91C381.91 401.3 383 403.17 383.37 403.83Z"
        fill="#E1BFB9" />
    <path
        d="M330 413H328.52L328.1 411.14L323.1 413.41H310.37C310.37 413.41 308.37 411.41 314.37 409.78C314.664 409.7 314.949 409.589 315.22 409.45C318.44 407.94 323.02 402.84 323.02 402.84H330C330.218 403.156 330.409 403.491 330.57 403.84C331.33 405.35 332.64 408.61 330 413Z"
        fill="#263238" />
    <path
        d="M330.56 403.83C329.65 402.83 325.48 407.3 322.41 408.83C319.68 410.18 316.61 410.83 315.24 409.41C318.46 407.89 324.24 400.81 324.24 400.81L329.16 401.3C329.16 401.3 330.24 403.17 330.56 403.83Z"
        fill="#E1BFB9" />
    <path
        d="M353.08 226.07H389.08L390.08 230.71C390.08 230.71 403.31 249.01 396.6 294.71C396.6 294.71 367.6 298.05 340.35 292.2C340.35 292.2 346.47 245.31 352.87 230L353.08 226.07Z"
        fill="#263238" />
    <path
        d="M340 154.94C341.073 158.408 341.718 161.995 341.92 165.62C341.92 165.62 361.52 163.72 365.49 158.55C369.46 153.38 367.2 129.19 356.49 129.55C353.532 129.68 350.647 130.515 348.076 131.985C345.506 133.455 343.323 135.517 341.71 138.001C340.097 140.484 339.101 143.317 338.803 146.263C338.506 149.209 338.916 152.184 340 154.94Z"
        fill="#263238" />
    <path
        d="M344.75 134.46C343.062 136.01 341.796 137.965 341.074 140.139C340.351 142.314 340.195 144.638 340.62 146.89C342.05 151.35 344.23 154.29 346.27 158.5L353.51 129.57C350.78 130.65 349.4 130.3 344.75 134.46Z"
        fill="#263238" />
    <path
        d="M359.94 129.64C369.79 131.32 374.37 136.55 375.03 143.32C375.69 150.09 369.03 158.83 367.77 159.37L363.82 160.82C363.82 160.82 368.18 150.74 366.37 148.05C364.56 145.36 363.25 145.32 363.25 145.32L359.94 129.64Z"
        fill="#263238" />
    <path
        d="M350.56 131C354.9 127.93 360.03 129.69 363.07 131C364.766 131.979 366.235 133.305 367.381 134.893C368.527 136.48 369.324 138.292 369.72 140.21C370.38 143.84 371.18 148.26 369.32 150.56C368.807 151.211 368.164 151.75 367.433 152.14C366.701 152.531 365.897 152.766 365.07 152.83L344.07 139.5C345.478 136.163 347.711 133.238 350.56 131Z"
        fill="#263238" />
    <path
        d="M359 180.31C360.65 181.48 361.82 180.77 363.53 179.68C373.8 173.68 369.58 169.01 369.58 169.01C367.05 166.95 366.43 164.01 366.38 159.44C366.371 159.305 366.35 159.171 366.32 159.04C366.209 158.446 365.911 157.903 365.47 157.49C364.908 156.931 364.148 156.617 363.355 156.617C362.562 156.617 361.802 156.931 361.24 157.49L356.58 159.79V160C357.01 162.44 357.42 164.32 357.68 165.81C357.691 165.995 357.718 166.179 357.76 166.36C357.771 166.545 357.798 166.729 357.84 166.91C358.09 168.97 355.19 172.6 353.91 173.57C353.18 174.2 353.47 176.35 359 180.31Z"
        fill="#E1BFB9" />
    <path
        d="M367.05 141.76C368.4 150.2 369.15 153.76 365.98 159.04C361.21 167.04 350.8 167.04 346.98 159.17C343.59 152.1 341.93 139.5 349.16 134.17C356.39 128.84 365.7 133.3 367.05 141.76Z"
        fill="#E1BFB9" />
    <path
        d="M372.09 148.28C371.863 149.162 371.465 149.99 370.918 150.718C370.37 151.445 369.684 152.058 368.9 152.52C366.9 153.67 364.75 150.44 364.9 148.03C364.982 146.941 365.451 145.918 366.221 145.144C366.991 144.371 368.012 143.897 369.1 143.81C371.34 143.67 372.68 146 372.09 148.28Z"
        fill="#E1BFB9" />
    <path opacity="0.2"
        d="M367.32 149.35C367.262 149.349 367.206 149.329 367.161 149.293C367.115 149.257 367.083 149.206 367.07 149.15C366.89 148.269 367.067 147.353 367.562 146.603C368.057 145.853 368.83 145.33 369.71 145.15C369.776 145.138 369.844 145.152 369.9 145.189C369.956 145.227 369.996 145.284 370.01 145.35C370.022 145.415 370.007 145.482 369.97 145.536C369.932 145.59 369.875 145.628 369.81 145.64C369.064 145.794 368.409 146.237 367.987 146.872C367.566 147.507 367.412 148.282 367.56 149.03C367.567 149.062 367.568 149.095 367.563 149.128C367.557 149.16 367.545 149.192 367.527 149.219C367.51 149.247 367.487 149.271 367.46 149.29C367.433 149.309 367.402 149.323 367.37 149.33L367.32 149.35Z"
        fill="black" />
    <path
        d="M356.75 147.38C356.95 148.27 356.67 149.12 356.12 149.28C355.57 149.44 354.98 148.84 354.78 147.95C354.58 147.06 354.86 146.21 355.41 146.05C355.96 145.89 356.55 146.48 356.75 147.38Z"
        fill="#263238" />
    <path
        d="M348.54 149.57C348.73 150.44 348.44 151.26 347.9 151.42C347.36 151.58 346.77 151.01 346.58 150.15C346.39 149.29 346.67 148.45 347.22 148.3C347.77 148.15 348.35 148.71 348.54 149.57Z"
        fill="#263238" />
    <path
        d="M357.65 143.84C357.6 143.862 357.545 143.873 357.49 143.873C357.435 143.873 357.38 143.862 357.33 143.84C356.876 143.598 356.37 143.471 355.855 143.471C355.34 143.471 354.834 143.598 354.38 143.84C354.335 143.868 354.285 143.887 354.232 143.896C354.18 143.904 354.126 143.902 354.075 143.889C354.023 143.876 353.975 143.852 353.933 143.82C353.891 143.787 353.856 143.746 353.83 143.7C353.78 143.596 353.77 143.478 353.801 143.368C353.832 143.257 353.903 143.162 354 143.1C354.57 142.787 355.21 142.622 355.86 142.622C356.51 142.622 357.15 142.787 357.72 143.1C357.816 143.155 357.888 143.245 357.919 143.351C357.951 143.457 357.941 143.571 357.89 143.67C357.831 143.751 357.746 143.811 357.65 143.84Z"
        fill="#263238" />
    <path
        d="M344.65 146.15C344.603 146.146 344.558 146.132 344.516 146.11C344.475 146.088 344.439 146.057 344.41 146.02C344.35 145.929 344.324 145.82 344.337 145.712C344.35 145.604 344.4 145.504 344.48 145.43C344.885 144.971 345.401 144.625 345.98 144.425C346.558 144.225 347.178 144.178 347.78 144.29C347.833 144.305 347.883 144.33 347.926 144.365C347.97 144.399 348.006 144.442 348.033 144.49C348.06 144.538 348.077 144.591 348.083 144.646C348.09 144.701 348.085 144.757 348.07 144.81C348.055 144.863 348.029 144.913 347.995 144.956C347.961 144.999 347.918 145.036 347.87 145.063C347.822 145.089 347.769 145.107 347.714 145.113C347.659 145.119 347.603 145.115 347.55 145.1C347.07 145.022 346.579 145.067 346.121 145.229C345.663 145.392 345.253 145.667 344.93 146.03C344.894 146.068 344.85 146.098 344.802 146.118C344.754 146.139 344.702 146.15 344.65 146.15Z"
        fill="#263238" />
    <path
        d="M350.66 148.56C350.392 150.536 349.923 152.479 349.26 154.36C349.224 154.456 349.211 154.56 349.222 154.663C349.233 154.765 349.267 154.864 349.322 154.951C349.377 155.038 349.452 155.111 349.54 155.165C349.628 155.218 349.727 155.251 349.83 155.26C350.614 155.281 351.388 155.087 352.07 154.7L350.66 148.56Z"
        fill="#CD877B" />
    <path d="M355.73 146L353.73 146.07C353.73 146.07 355.13 147.21 355.73 146Z" fill="#263238" />
    <path d="M347.42 148.26L345.42 148.33C345.42 148.33 346.82 149.47 347.42 148.26Z" fill="#263238" />
    <path
        d="M353 156.91C353.752 157.552 354.454 158.251 355.1 159C355.25 158.91 355.4 158.83 355.54 158.73C357.54 157.49 358.02 156.26 357.98 155.27C357.951 154.789 357.807 154.323 357.56 153.91C357.428 153.671 357.263 153.452 357.07 153.26C356.197 154.573 355.047 155.679 353.7 156.5C353.3 156.75 353 156.91 353 156.91Z"
        fill="#263238" />
    <path
        d="M353.7 156.47L354.33 157.07C356.18 155.89 357.33 154.81 357.56 153.88C357.428 153.641 357.263 153.422 357.07 153.23C356.197 154.543 355.047 155.649 353.7 156.47Z"
        fill="white" />
    <path
        d="M355.54 158.7C357.54 157.46 358.02 156.23 357.98 155.24C357.237 155.728 356.587 156.344 356.06 157.06C355.718 157.538 355.536 158.112 355.54 158.7Z"
        fill="#DE5753" />
    <path
        d="M364.51 144.34C364.51 144.34 358.7 139.72 357.7 135.05C357.7 135.05 339.8 134.37 344.09 148.92C344.09 148.92 338.09 136.76 351.71 132.11C365.33 127.46 371.62 145.28 366.42 152.83C366.38 152.77 368.11 147.24 364.51 144.34Z"
        fill="#263238" />
    <path
        d="M345.65 135.11C344.125 137.222 343.312 139.765 343.33 142.37C343.66 144.2 346.4 145.07 346.4 145.07L348.71 140.52L349.35 144.03C351.42 143.504 353.299 142.402 354.769 140.852C356.238 139.301 357.237 137.366 357.65 135.27L354 130.81C354 130.81 347.05 133.37 345.65 135.11Z"
        fill="#263238" />
    <path
        d="M388.1 211.91L390.66 231.06L350.91 228.43C351.16 234.19 354.76 214.43 354.33 211.43C353.14 207.75 347.07 202.18 345.46 197.73C343.74 191.54 347.29 174.53 348.46 173.99C349.87 173.34 351.62 173.4 352.69 172.92C356.88 171.92 366.42 168.53 370.69 168C371.51 167.92 372.33 167.77 373.15 167.68C373.15 167.68 389.3 166.9 390.01 173.47C387.665 186.141 387.022 199.069 388.1 211.91Z"
        style="fill: var(--primary)" />
    <path opacity="0.2" d="M389.15 207.47L380.65 186.31L383.33 205.44L376.11 210.7L389.15 207.47Z"
        fill="black" />
    <path opacity="0.2"
        d="M370.91 224.35C371.43 224.28 374.98 219.78 374.98 219.78H389.15L388.57 215.41C388.97 215.1 372.07 215.85 372.07 215.85L370.91 221.16V224.35Z"
        fill="black" />
    <path
        d="M383.07 169.23C383.76 169.31 386.56 167.72 391.63 174.23C396.7 180.74 404.33 211.37 402.63 214.59C400.93 217.81 370.88 218.36 370.88 218.36V210.57L387.76 206.74C387.76 206.74 378.18 183.68 379.69 177.74C381.2 171.8 383.07 169.23 383.07 169.23Z"
        style="fill: var(--primary)" />
    <path
        d="M375.48 167.56C374.882 170.805 373.369 173.811 371.119 176.225C368.869 178.638 365.975 180.357 362.78 181.18C360.49 181.73 357.93 180.47 356.12 178.97C354.296 177.443 353.076 175.315 352.68 172.97C360.63 169.81 367.83 167 375.48 167.56Z"
        fill="#E1BFB9" />
    <path
        d="M350.12 173.82C350.12 173.82 346.94 173.47 344.12 176.97C339.96 182.17 324.41 197.75 324.41 197.75L302 187.17L298.22 194.38C298.22 194.38 319.82 210.83 325.56 210.79C334.82 210.73 348.21 197.19 348.21 197.19L350.12 173.82Z"
        style="fill: var(--primary)" />
    <path
        d="M367.88 184.72H300.18C298.512 184.72 297.16 186.072 297.16 187.74V229.77C297.16 231.438 298.512 232.79 300.18 232.79H367.88C369.548 232.79 370.9 231.438 370.9 229.77V187.74C370.9 186.072 369.548 184.72 367.88 184.72Z"
        style="fill: var(--primary)" />
    <path opacity="0.9"
        d="M367.88 184.72H300.18C298.512 184.72 297.16 186.072 297.16 187.74V229.77C297.16 231.438 298.512 232.79 300.18 232.79H367.88C369.548 232.79 370.9 231.438 370.9 229.77V187.74C370.9 186.072 369.548 184.72 367.88 184.72Z"
        fill="white" />
    <path d="M356.25 192.35H312.7V195.12H356.25V192.35Z" style="fill: var(--primary)" />
    <path
        d="M307.18 195.64C308.229 195.64 309.08 194.789 309.08 193.74C309.08 192.691 308.229 191.84 307.18 191.84C306.131 191.84 305.28 192.691 305.28 193.74C305.28 194.789 306.131 195.64 307.18 195.64Z"
        style="fill: var(--primary)" />
    <path d="M331.53 201.57H307.37V225.73H331.53V201.57Z" style="fill: var(--primary)" />
    <path opacity="0.4" d="M331.53 201.57H307.37V225.73H331.53V201.57Z" fill="white" />
    <path d="M330.15 202.95H308.76V224.34H330.15V202.95Z" style="fill: var(--primary)" />
    <path opacity="0.7" d="M330.15 202.95H308.76V224.34H330.15V202.95Z" fill="white" />
    <path d="M308.75 224.35L316.02 214.68L320.83 217.97L326.63 211.55L330.15 214.84V224.35H308.75Z"
        style="fill: var(--primary)" />
    <path
        d="M322.1 208.1C322.1 208.624 321.945 209.136 321.653 209.572C321.362 210.008 320.948 210.348 320.464 210.548C319.98 210.749 319.447 210.801 318.933 210.699C318.419 210.597 317.947 210.344 317.576 209.974C317.206 209.603 316.953 209.131 316.851 208.617C316.749 208.103 316.801 207.57 317.002 207.086C317.202 206.602 317.542 206.188 317.978 205.897C318.414 205.605 318.926 205.45 319.45 205.45C320.153 205.45 320.827 205.729 321.324 206.226C321.821 206.723 322.1 207.397 322.1 208.1Z"
        style="fill: var(--primary)" />
    <path d="M364.56 210.88H336.68V213.65H364.56V210.88Z" fill="#263238" />
    <path d="M348.84 218.39H336.68V221.16H348.84V218.39Z" fill="#263238" />
    <path d="M364.56 203.37H336.68V206.14H364.56V203.37Z" fill="#263238" />
    <path
        d="M370.83 211.8C370.83 211.8 363.94 213.55 363.3 214.92C362.66 216.29 364.82 216.18 364.82 216.18C364.82 216.18 362.45 216.44 362.43 217.46C362.43 218.68 364.65 218.56 364.65 218.56C364.65 218.56 362.73 218.86 362.77 219.76C362.81 220.66 365.37 220.76 365.37 220.76C365.37 220.76 364.06 221.22 364.44 221.84C364.82 222.46 370.25 222.66 371.85 221.64C373.45 220.62 373.45 213.64 373.14 212.13C372.83 210.62 372.69 209.79 370.78 207.48L370.83 211.81V211.8Z"
        fill="#E1BFB9" />
    <path opacity="0.2"
        d="M364.82 216.3L368.92 215.65C368.98 215.65 369.01 215.59 369.01 215.52C369.005 215.492 368.99 215.468 368.968 215.451C368.945 215.435 368.918 215.427 368.89 215.43L364.79 216.08C364.762 216.087 364.739 216.104 364.724 216.129C364.709 216.153 364.704 216.182 364.71 216.21C364.711 216.223 364.715 216.236 364.721 216.247C364.728 216.259 364.736 216.269 364.746 216.278C364.756 216.286 364.768 216.292 364.781 216.296C364.794 216.3 364.807 216.301 364.82 216.3Z"
        fill="black" />
    <path opacity="0.2"
        d="M364.78 218.67L368.78 218.36C368.806 218.353 368.83 218.337 368.846 218.316C368.862 218.294 368.871 218.267 368.87 218.24C368.87 218.17 368.87 218.14 368.76 218.13L364.76 218.44C364.732 218.447 364.707 218.464 364.691 218.488C364.674 218.512 364.667 218.541 364.67 218.57C364.68 218.63 364.72 218.68 364.78 218.67Z"
        fill="black" />
    <path opacity="0.2"
        d="M365.51 220.86L368.51 220.71C368.524 220.709 368.539 220.705 368.551 220.698C368.564 220.691 368.576 220.682 368.585 220.671C368.594 220.66 368.601 220.647 368.606 220.633C368.61 220.619 368.611 220.604 368.61 220.59C368.608 220.562 368.595 220.535 368.575 220.515C368.555 220.495 368.528 220.482 368.5 220.48L365.5 220.63C365.486 220.631 365.472 220.635 365.46 220.642C365.447 220.649 365.436 220.658 365.428 220.67C365.419 220.681 365.413 220.694 365.41 220.708C365.407 220.722 365.407 220.736 365.41 220.75C365.41 220.777 365.42 220.804 365.439 220.824C365.457 220.845 365.483 220.857 365.51 220.86Z"
        fill="black" />
    <path
        d="M297.18 208.45C297.18 208.45 304.07 210.2 304.71 211.57C305.35 212.94 303.19 212.83 303.19 212.83C303.19 212.83 305.55 213.09 305.58 214.11C305.58 215.33 303.35 215.21 303.35 215.21C303.35 215.21 305.27 215.51 305.23 216.41C305.19 217.31 302.64 217.41 302.64 217.41C302.64 217.41 303.95 217.87 303.57 218.49C303.19 219.11 297.76 219.31 296.16 218.29C294.56 217.27 294.55 210.29 294.87 208.78C295.19 207.27 295.32 206.44 297.23 204.13L297.18 208.46V208.45Z"
        fill="#E1BFB9" />
    <path opacity="0.2"
        d="M303.18 213L299.08 212.35C299.052 212.343 299.029 212.325 299.014 212.301C298.999 212.277 298.994 212.248 299 212.22C299.004 212.193 299.018 212.169 299.038 212.151C299.058 212.133 299.083 212.122 299.11 212.12L303.21 212.78C303.225 212.782 303.238 212.788 303.251 212.795C303.263 212.803 303.274 212.814 303.283 212.826C303.291 212.838 303.297 212.852 303.3 212.866C303.303 212.881 303.303 212.895 303.3 212.91C303.293 212.936 303.278 212.96 303.256 212.976C303.234 212.992 303.207 213.001 303.18 213Z"
        fill="black" />
    <path opacity="0.2"
        d="M303.23 215.32L299.23 215.01C299.205 215.002 299.183 214.987 299.168 214.967C299.153 214.946 299.144 214.921 299.144 214.895C299.144 214.869 299.153 214.844 299.168 214.823C299.183 214.802 299.205 214.787 299.23 214.78L303.23 215.09C303.245 215.092 303.258 215.097 303.271 215.105C303.283 215.113 303.294 215.124 303.303 215.136C303.311 215.148 303.317 215.162 303.32 215.176C303.323 215.19 303.323 215.205 303.32 215.22C303.32 215.245 303.311 215.269 303.294 215.287C303.278 215.306 303.255 215.317 303.23 215.32Z"
        fill="black" />
    <path opacity="0.2"
        d="M302.49 217.51L299.49 217.36C299.49 217.36 299.4 217.3 299.4 217.24C299.4 217.211 299.412 217.183 299.432 217.162C299.453 217.141 299.481 217.13 299.51 217.13L302.51 217.28C302.535 217.287 302.556 217.302 302.572 217.323C302.587 217.344 302.596 217.369 302.596 217.395C302.596 217.421 302.587 217.446 302.572 217.467C302.556 217.487 302.535 217.502 302.51 217.51H302.49Z"
        fill="black" />
    <path
        d="M15.05 177.45C15.05 177.45 8.66 200.07 12.75 204.01C16.84 207.95 31.13 205.33 30.4 205.01C29.67 204.69 34.05 177.5 34.34 178.49C34.63 179.48 15.05 177.45 15.05 177.45Z"
        fill="#CD877B" />
    <path
        d="M120.77 146.63H55.8C54.1321 146.63 52.78 147.982 52.78 149.65V212.59C52.78 214.258 54.1321 215.61 55.8 215.61H120.77C122.438 215.61 123.79 214.258 123.79 212.59V149.65C123.79 147.982 122.438 146.63 120.77 146.63Z"
        style="fill: var(--primary)" />
    <path opacity="0.9"
        d="M120.77 146.63H55.8C54.1321 146.63 52.78 147.982 52.78 149.65V212.59C52.78 214.258 54.1321 215.61 55.8 215.61H120.77C122.438 215.61 123.79 214.258 123.79 212.59V149.65C123.79 147.982 122.438 146.63 120.77 146.63Z"
        fill="white" />
    <path d="M109.69 153.98H67.75V156.65H109.69V153.98Z" style="fill: var(--primary)" />
    <path d="M114.91 194.82H60.6V197.49H114.91V194.82Z" fill="#263238" />
    <path d="M87.44 201.91H60.6V204.58H87.44V201.91Z" fill="#263238" />
    <path
        d="M64.26 155.31C64.26 155.672 64.1527 156.026 63.9516 156.327C63.7505 156.628 63.4647 156.862 63.1303 157.001C62.7959 157.139 62.428 157.175 62.073 157.105C61.718 157.034 61.3919 156.86 61.136 156.604C60.8801 156.348 60.7058 156.022 60.6352 155.667C60.5646 155.312 60.6008 154.944 60.7393 154.61C60.8778 154.275 61.1124 153.989 61.4133 153.788C61.7143 153.587 62.0681 153.48 62.43 153.48C62.6703 153.48 62.9083 153.527 63.1303 153.619C63.3523 153.711 63.5541 153.846 63.724 154.016C63.8939 154.186 64.0287 154.388 64.1207 154.61C64.2127 154.832 64.26 155.07 64.26 155.31Z"
        style="fill: var(--primary)" />
    <path d="M114.91 164.16H91.64V187.43H114.91V164.16Z" style="fill: var(--primary)" />
    <path opacity="0.4" d="M114.91 164.16H91.64V187.43H114.91V164.16Z" fill="white" />
    <path d="M113.57 165.49H92.97V186.09H113.57V165.49Z" style="fill: var(--primary)" />
    <path opacity="0.7" d="M113.57 165.49H92.97V186.09H113.57V165.49Z" fill="white" />
    <path d="M92.97 186.1L99.97 176.79L104.6 179.96L110.19 173.78L113.58 176.94V186.1H92.97Z"
        style="fill: var(--primary)" />
    <path
        d="M105.83 170.45C105.832 170.957 105.683 171.453 105.403 171.876C105.122 172.298 104.722 172.628 104.254 172.823C103.786 173.018 103.271 173.07 102.773 172.971C102.276 172.873 101.818 172.629 101.46 172.27C101.101 171.911 100.857 171.454 100.759 170.957C100.66 170.459 100.712 169.944 100.907 169.476C101.102 169.007 101.431 168.608 101.854 168.327C102.277 168.047 102.773 167.898 103.28 167.9C103.956 167.9 104.605 168.169 105.083 168.647C105.561 169.125 105.83 169.774 105.83 170.45Z"
        style="fill: var(--primary)" />
    <path d="M87.12 164.16H63.85V187.43H87.12V164.16Z" style="fill: var(--primary)" />
    <path opacity="0.4" d="M87.12 164.16H63.85V187.43H87.12V164.16Z" fill="white" />
    <path d="M85.78 165.49H65.18V186.09H85.78V165.49Z" style="fill: var(--primary)" />
    <path opacity="0.7" d="M85.78 165.49H65.18V186.09H85.78V165.49Z" fill="white" />
    <path d="M65.18 186.1L72.18 176.79L76.81 179.96L82.4 173.78L85.78 176.94V186.1H65.18Z"
        style="fill: var(--primary)" />
    <path
        d="M78 170.45C78.002 170.957 77.8535 171.453 77.5734 171.875C77.2933 172.297 76.8942 172.627 76.4266 172.822C75.959 173.017 75.444 173.07 74.9467 172.972C74.4495 172.874 73.9924 172.631 73.6334 172.274C73.2743 171.916 73.0295 171.46 72.9299 170.963C72.8304 170.466 72.8805 169.951 73.0739 169.483C73.2674 169.014 73.5955 168.614 74.0167 168.332C74.4379 168.05 74.9333 167.9 75.44 167.9C76.1172 167.9 76.7669 168.168 77.2467 168.646C77.7265 169.124 77.9974 169.773 78 170.45Z"
        style="fill: var(--primary)" />
    <path d="M22.59 381.77V401.4L31.7 402.11L34.9 383.67C30.73 380.66 26.62 379.94 22.59 381.77Z"
        fill="#CD877B" />
    <path
        d="M22.89 399.35C22 401.94 21.89 412.54 21.89 412.54H41.21C42.36 408.71 40.58 406.09 38.33 405.75C37.1571 405.333 36.1341 404.578 35.39 403.58C35.39 403.46 34.2 397.58 33.47 397.29C33.47 397.29 32.97 396.68 32.54 397.29C32.1594 398.117 31.8904 398.992 31.74 399.89C28.77 395.85 25.82 396.4 22.89 399.35Z"
        fill="#263238" />
    <path
        d="M22.66 402.43C23.7167 402 24.8683 401.858 25.9977 402.018C27.127 402.178 28.194 402.634 29.09 403.34C29.42 403.59 29.74 403 29.41 402.75C28.4454 401.991 27.2983 401.499 26.0838 401.324C24.8692 401.148 23.6299 401.295 22.49 401.75C22.11 401.9 22.28 402.56 22.66 402.41V402.43Z"
        fill="white" />
    <path
        d="M41.2 411H22.2C22.1098 411 22.0233 410.964 21.9596 410.9C21.8958 410.836 21.86 410.75 21.86 410.66C21.86 410.57 21.8958 410.483 21.9596 410.419C22.0233 410.356 22.1098 410.32 22.2 410.32H41.2C41.2433 410.321 41.286 410.331 41.3255 410.349C41.3651 410.367 41.4007 410.392 41.4305 410.423C41.4602 410.455 41.4834 410.492 41.4987 410.533C41.5141 410.573 41.5213 410.616 41.52 410.66C41.5213 410.703 41.5141 410.746 41.4987 410.787C41.4834 410.827 41.4602 410.865 41.4305 410.896C41.4007 410.928 41.3651 410.953 41.3255 410.971C41.286 410.989 41.2433 410.999 41.2 411Z"
        fill="white" />
    <path
        d="M19.21 391.44L38.64 392.44C43 378.31 47.3 327.67 47.75 312.44C48.28 294.27 54.75 248.68 49.03 239.19C43.31 229.7 17.27 237.26 17.27 237.26C17.27 237.26 20.51 292.78 19.21 310.48C18.09 325.9 16.35 371 19.21 391.44Z"
        fill="#263238" />
    <path d="M40.73 387.36L39.47 393.85L18.42 393.17L17.65 386.93L40.73 387.36Z" style="fill: var(--primary)" />
    <path d="M61.92 379.21V401.36L70.69 402.09L75 381.35C71.46 378.51 67.37 377.13 61.92 379.21Z"
        fill="#CD877B" />
    <path
        d="M61.9 399.4C61 401.99 60.9 412.59 60.9 412.59H83.1C84.25 408.76 81.85 406.49 79.6 406.14C78.6 405.99 75.23 404.57 74.4 403.63C74.4 403.51 73.22 397.63 72.49 397.34C72.49 397.34 71.98 396.72 71.56 397.34C71.1803 398.171 70.9114 399.049 70.76 399.95C67.78 395.9 64.82 396.44 61.9 399.4Z"
        fill="#263238" />
    <path
        d="M61.66 402.47C62.7165 402.039 63.8683 401.897 64.9979 402.057C66.1275 402.216 67.1944 402.673 68.09 403.38C68.43 403.64 68.74 403.04 68.41 402.79C67.4465 402.033 66.3012 401.542 65.0886 401.367C63.876 401.191 62.6386 401.337 61.5 401.79C61.12 401.95 61.28 402.61 61.66 402.45V402.47Z"
        fill="white" />
    <path
        d="M83.14 411.06H61.14C61.0966 411.059 61.054 411.049 61.0144 411.031C60.9749 411.013 60.9392 410.988 60.9095 410.956C60.8798 410.925 60.8566 410.888 60.8412 410.847C60.8259 410.806 60.8187 410.763 60.82 410.72C60.8172 410.631 60.8491 410.545 60.9089 410.48C60.9687 410.415 61.0516 410.375 61.14 410.37H83.14C83.2302 410.37 83.3166 410.406 83.3804 410.469C83.4442 410.533 83.48 410.62 83.48 410.71C83.48 410.8 83.4442 410.887 83.3804 410.95C83.3166 411.014 83.2302 411.05 83.14 411.05V411.06Z"
        fill="white" />
    <path
        d="M58 391.44L77.25 392.44C79.6 376.8 89.02 319.86 88.25 308.96C87.31 295.64 76.16 237.96 72.01 233.52C67.86 229.08 37.5 240.6 37.5 240.6C37.5 240.6 49.97 290.19 59.81 311.6C61.86 316.13 56.43 372.43 58 391.44Z"
        fill="#263238" />
    <path d="M79.47 387.85L78.48 393.85L57.08 392.48L56.65 386.19L79.47 387.85Z" style="fill: var(--primary)" />
    <g opacity="0.3">
        <path
            d="M44.87 273.83C44.5 273.02 44.13 272.21 43.79 271.38C41.9791 266.95 40.5375 262.378 39.48 257.71C36.2951 257.37 33.1587 256.672 30.13 255.63C29.74 255.5 29.91 254.84 30.3 254.97C35.0866 256.616 40.1301 257.389 45.19 257.25C45.6 257.25 45.59 257.92 45.19 257.93C43.5216 257.975 41.8521 257.922 40.19 257.77C41.2552 262.406 42.6967 266.948 44.5 271.35C46.3784 275.68 48.4949 279.904 50.84 284C51.06 284.37 50.51 284.72 50.3 284.34C48.6 281.34 46.95 278.26 45.46 275.11C45.32 278.86 44.9 290.48 44.46 305.86C43.65 332.41 37.46 375.57 35.69 387.22H35C36.71 375.76 43 332.43 43.78 305.84C44.35 287.65 44.84 274.73 44.87 273.83Z"
            fill="white" />
        <path
            d="M21.85 310.08C27.4502 309.748 33.0687 309.912 38.64 310.57C39.04 310.57 39.04 311.3 38.64 311.25C33.0684 310.597 27.4502 310.433 21.85 310.76C21.45 310.78 21.45 310.1 21.85 310.08Z"
            fill="white" />
        <path
            d="M84.8 310.14C84.36 301.8 74.8 266.42 74.68 266.07C74.6562 265.985 74.6645 265.894 74.7032 265.815C74.7419 265.736 74.8084 265.673 74.89 265.64C74.9314 265.628 74.9749 265.625 75.0176 265.631C75.0602 265.637 75.1012 265.651 75.1379 265.674C75.1746 265.697 75.2062 265.726 75.2307 265.762C75.2551 265.797 75.2719 265.838 75.28 265.88C75.68 267.33 84.99 301.69 85.43 310.1C85.8 317.33 75.81 384.23 75.38 387.1C75.3749 387.179 75.34 387.252 75.2824 387.306C75.2248 387.36 75.1489 387.39 75.07 387.39C74.9841 387.369 74.9095 387.315 74.8613 387.241C74.8131 387.167 74.7947 387.077 74.81 386.99C74.87 386.27 85.17 317.3 84.8 310.14Z"
            fill="white" />
        <path
            d="M79.35 262.4C72.13 259.45 69.79 250.88 68.08 243.54C68.0682 243.501 68.0642 243.459 68.0684 243.418C68.0726 243.377 68.0847 243.338 68.1042 243.301C68.1237 243.265 68.1502 243.233 68.1821 243.207C68.2139 243.181 68.2506 243.162 68.29 243.15C68.3294 243.138 68.3707 243.134 68.4117 243.138C68.4526 243.142 68.4923 243.155 68.5285 243.174C68.5647 243.194 68.5967 243.22 68.6227 243.252C68.6487 243.284 68.6682 243.321 68.68 243.36C70.34 250.42 72.54 258.89 79.52 261.75C79.89 261.9 79.73 262.56 79.35 262.4Z"
            fill="white" />
        <path
            d="M63.19 310.73L77.26 309.73C77.67 309.73 77.67 310.39 77.26 310.42L63.19 311.42C62.78 311.45 62.78 310.76 63.19 310.73Z"
            fill="white" />
    </g>
    <path
        d="M60.46 117C60.46 117.82 60.82 118.43 61.34 118.52C61.86 118.61 62.34 117.92 62.34 117.09C62.34 116.26 61.99 115.66 61.48 115.57C60.97 115.48 60.56 116.18 60.46 117Z"
        fill="#263238" />
    <path
        d="M60.79 116.86C61.0798 119.487 61.7327 122.062 62.73 124.51C62.0925 124.744 61.4117 124.837 60.7348 124.782C60.0578 124.726 59.401 124.524 58.81 124.19L60.79 116.86Z"
        fill="#A24E3F" />
    <path
        d="M59 114.35C58.8949 114.362 58.789 114.337 58.7 114.28C58.6556 114.236 58.6203 114.184 58.5962 114.127C58.5721 114.069 58.5597 114.007 58.5597 113.945C58.5597 113.883 58.5721 113.821 58.5962 113.763C58.6203 113.706 58.6556 113.654 58.7 113.61C59.1765 113.018 59.7891 112.549 60.4855 112.245C61.1819 111.94 61.9416 111.808 62.7 111.86C62.8204 111.873 62.9309 111.932 63.0077 112.026C63.0844 112.119 63.1212 112.239 63.11 112.36C63.0925 112.485 63.0277 112.598 62.9291 112.676C62.8304 112.754 62.7054 112.791 62.58 112.78C61.9865 112.753 61.3952 112.868 60.8557 113.117C60.3163 113.366 59.8445 113.741 59.48 114.21C59.422 114.277 59.3458 114.326 59.2607 114.351C59.1755 114.376 59.085 114.375 59 114.35Z"
        fill="#263238" />
    <path
        d="M60.81 127.8C60.701 128.234 60.5674 128.661 60.41 129.08C59.5332 131.496 57.9429 133.588 55.85 135.08C55.3205 135.457 54.7621 135.791 54.18 136.08C51.9499 137.252 49.4018 137.674 46.9128 137.285C44.4238 136.896 42.1262 135.716 40.36 133.92C35.74 129.33 35.86 124.03 35.36 115.06C35.2212 113.13 35.5398 111.194 36.29 109.41C37.5988 106.382 40.0455 103.989 43.1024 102.749C46.1593 101.509 49.5812 101.52 52.63 102.78C61.52 106.37 62.75 119.71 60.81 127.8Z"
        fill="#CD877B" />
    <path opacity="0.2"
        d="M55.81 135.07C54.1421 136.27 52.1987 137.031 50.1592 137.283C48.1197 137.535 46.0497 137.269 44.14 136.51C44.5541 135.445 45.1018 134.437 45.77 133.51C49.1969 133.068 52.6786 133.609 55.81 135.07Z"
        fill="black" />
    <path
        d="M37.44 146.7C41.94 150.7 52.96 149.24 52.96 149.24C52.96 149.24 59.83 147.39 58.38 145.24C54.38 144.58 52.38 142.72 51.56 140.34C51.1232 138.865 50.9872 137.318 51.16 135.79C51.2185 134.937 51.3321 134.088 51.5 133.25L37.88 123.34C39.66 129.93 41.84 142 37.44 146.7Z"
        fill="#CD877B" />
    <path
        d="M55.81 119.64L57.81 120.36L56.81 116.36C56.81 116.36 59.69 112.04 56.81 108.29C56.81 108.29 64.81 105.92 60.27 101.81C58.6 100.28 56.52 101.81 51.03 99.4699C48.03 98.1899 38.75 98.0899 38.28 101.81C38.28 101.81 31.57 101.81 30.85 113.04C30.6414 116.34 31.1704 119.645 32.3985 122.716C33.6266 125.786 35.523 128.544 37.95 130.79C37.95 130.79 46.06 132.67 50.03 129.48C54 126.29 55.81 119.64 55.81 119.64Z"
        fill="#263238" />
    <path
        d="M50.63 120.27C50.8001 121.118 51.1577 121.918 51.6768 122.61C52.1959 123.302 52.8633 123.869 53.63 124.27C55.49 125.04 56.72 122.47 56.44 119.78C56.19 117.38 54.93 114.01 52.94 114.46C50.95 114.91 50 117.85 50.63 120.27Z"
        fill="#CD877B" />
    <path
        d="M23.59 144.55C23.59 144.55 20.43 145.55 18.85 146.09C15.57 147.29 13.41 150.94 12.22 154.53C9.32 163.29 4.63 184.04 4.63 184.04L21.63 187.61L30.71 168.06L23.59 144.55Z"
        style="fill: var(--primary)" />
    <path opacity="0.5"
        d="M23.59 144.55C23.59 144.55 19.04 145.39 16.59 147.37C14.4598 149.283 12.9254 151.768 12.17 154.53C9.27 163.29 4.58 184.04 4.58 184.04L21.58 187.61L30.66 168.06L23.59 144.55Z"
        fill="white" />
    <path
        d="M64.8 145.55C59.8 145.01 44.34 141.55 23.59 144.55L18.74 221.27C18.3102 228.582 17.4857 235.866 16.27 243.09C37.36 252.14 62.27 249.55 76.42 241.94C76.25 242.26 75.79 233.89 75.07 221.62C73.79 200.01 71.71 166.31 69.07 146.81C68.94 146.32 65.3 145.61 64.8 145.55Z"
        style="fill: var(--primary)" />
    <g opacity="0.5">
        <path
            d="M64.8 145.55C59.8 145.01 44.34 141.55 23.59 144.55L18.74 221.27C18.3102 228.582 17.4857 235.866 16.27 243.09C37.36 252.14 62.27 249.55 76.42 241.94C76.25 242.26 75.79 233.89 75.07 221.62C73.79 200.01 71.71 166.31 69.07 146.81C68.94 146.32 65.3 145.61 64.8 145.55Z"
            fill="white" />
    </g>
    <path
        d="M37.21 143.75C37.6166 142.26 38.4978 140.944 39.72 140L51.27 140.89L56.69 144.47L37.21 143.75Z"
        style="fill: var(--primary)" />
    <path opacity="0.5"
        d="M37.21 143.75C37.612 142.255 38.4895 140.932 39.71 139.98L51.27 140.87L56.69 144.45L37.21 143.75Z"
        fill="white" />
    <path opacity="0.2"
        d="M64.26 169.43C66.11 178.08 68.77 195.02 73.79 200.92L72.6 183.78L64.26 169.43Z"
        fill="black" />
    <path opacity="0.2" d="M20.56 187.37L21.01 165.22L16.36 186.32L20.56 187.37Z" fill="black" />
    <path
        d="M73.12 176.27C72.47 176.52 84.99 204.67 90.12 204.93C95.25 205.19 119.12 194.29 119.12 194.29L113.75 187.89L95.67 188.89L86.45 169.26L73.12 176.27Z"
        fill="#CD877B" />
    <path
        d="M66.83 146.52C60.34 150.8 57.12 160.52 74.52 190.52L93.31 179C89.51 172 85.48 166.89 81.01 156.73C72 143.75 66.83 146.52 66.83 146.52Z"
        style="fill: var(--primary)" />
    <path opacity="0.5"
        d="M66.83 146.52C60.34 150.8 57.12 160.52 74.52 190.52L93.31 179C89.51 172 85.48 166.89 81.01 156.73C72 143.75 66.83 146.52 66.83 146.52Z"
        fill="white" />
    <path
        d="M127.52 187.7C127.52 186.05 127.02 184.27 126.13 184.21C125.24 184.15 120.52 184.21 120.52 184.21C120.522 183.906 120.446 183.606 120.297 183.34C120.149 183.075 119.935 182.852 119.675 182.694C119.415 182.536 119.119 182.448 118.815 182.438C118.511 182.429 118.209 182.498 117.94 182.64C116.54 183.38 115.02 184.39 114.63 185.42C114.347 186.318 113.969 187.183 113.5 188L116.73 195.43C116.73 195.43 122.73 199.37 124.11 197.98C124.507 197.614 124.825 197.171 125.043 196.677C125.262 196.183 125.376 195.65 125.38 195.11C125.38 195.11 126.77 193.18 126.64 191.92C126.51 190.66 127.52 189.34 127.52 187.7Z"
        fill="#CD877B" />
</svg>
    