<svg width="340" height="311" viewBox="0 0 340 311" fill="none" xmlns="http://www.w3.org/2000/svg">
    <path d="M259.6 51.0293H103.96V310.499H259.6V51.0293Z" style="fill: var(--primary)" />
    <path opacity="0.5" d="M259.6 51.0293H103.96V310.499H259.6V51.0293Z" fill="white" />
    <path d="M239.35 51.0293H83.71V310.499H239.35V51.0293Z" style="fill: var(--primary)" />
    <path opacity="0.7" d="M239.35 51.0293H83.71V310.499H239.35V51.0293Z" fill="white" />
    <g opacity="0.2">
        <path d="M244.08 51L243.59 183.55L243.11 51H244.08Z" fill="black" />
        <path d="M248.26 51L247.78 197.02L247.3 51H248.26Z" fill="black" />
        <path d="M257.24 51L256.76 118.32L256.28 51H257.24Z" fill="black" />
        <path d="M247.3 309.57L247.78 218.85L248.26 309.57H247.3Z" fill="black" />
        <path d="M251.7 310.539L252.19 131.439L252.67 310.539H251.7Z" fill="black" />
        <path d="M256.28 309.569L256.76 223.039L257.24 309.569H256.28Z" fill="black" />
        <path d="M252.67 51L252.19 109.67L251.7 51H252.67Z" fill="black" />
        <path d="M243.11 310.04L243.59 208.4L244.08 310.04H243.11Z" fill="black" />
    </g>
    <path
        d="M76.65 88.0605H91V128.851H76.65C76.3026 128.851 75.9694 128.713 75.7237 128.467C75.478 128.221 75.34 127.888 75.34 127.541V89.3806C75.3387 89.2077 75.3716 89.0363 75.4368 88.8762C75.5021 88.7161 75.5984 88.5705 75.7201 88.4478C75.8419 88.3251 75.9868 88.2277 76.1464 88.1612C76.3059 88.0948 76.4771 88.0605 76.65 88.0605Z"
        style="fill: var(--darker)" />
    <path
        d="M91.58 120.851C91.4527 120.851 91.3306 120.8 91.2406 120.71C91.1506 120.62 91.1 120.498 91.1 120.371V115.771L71.2 111.621C70.8302 112.14 70.3432 112.564 69.7785 112.86C69.2137 113.155 68.5873 113.313 67.95 113.321C66.7602 113.178 65.6641 112.604 64.8689 111.707C64.0737 110.811 63.6346 109.654 63.6346 108.456C63.6346 107.257 64.0737 106.101 64.8689 105.204C65.6641 104.308 66.7602 103.734 67.95 103.591C68.588 103.6 69.2147 103.76 69.7794 104.057C70.3441 104.354 70.8308 104.78 71.2 105.301L91.1 101.141V97.3706C91.1026 97.2441 91.154 97.1235 91.2434 97.034C91.3329 96.9446 91.4535 96.8932 91.58 96.8906C91.7073 96.8906 91.8294 96.9412 91.9194 97.0312C92.0094 97.1212 92.06 97.2433 92.06 97.3706V101.531C92.0606 101.642 92.0233 101.75 91.9542 101.837C91.8851 101.925 91.7884 101.986 91.68 102.011L71.08 106.301C70.9862 106.323 70.888 106.315 70.7985 106.279C70.7091 106.244 70.6328 106.181 70.58 106.101C70.307 105.643 69.9227 105.262 69.4629 104.993C69.0031 104.723 68.4827 104.575 67.95 104.561C67.0229 104.71 66.1791 105.184 65.5701 105.899C64.961 106.613 64.6265 107.522 64.6265 108.461C64.6265 109.4 64.961 110.308 65.5701 111.023C66.1791 111.737 67.0229 112.212 67.95 112.361C68.4827 112.346 69.0031 112.198 69.4629 111.929C69.9227 111.659 70.307 111.278 70.58 110.821C70.6325 110.739 70.7083 110.676 70.7975 110.638C70.8867 110.601 70.9852 110.591 71.08 110.611L91.68 114.911C91.7876 114.934 91.8841 114.993 91.9533 115.078C92.0224 115.164 92.0601 115.271 92.06 115.381V120.381C92.06 120.443 92.0475 120.505 92.0233 120.563C91.999 120.621 91.9635 120.673 91.9188 120.717C91.8741 120.76 91.8211 120.795 91.7629 120.818C91.7048 120.841 91.6426 120.852 91.58 120.851Z"
        style="fill: var(--primary)" />
    <path
        d="M92.19 87.9408V99.2308H90.41V87.9408C90.41 87.7047 90.5038 87.4784 90.6707 87.3114C90.8376 87.1445 91.064 87.0508 91.3 87.0508C91.536 87.0508 91.7624 87.1445 91.9293 87.3114C92.0962 87.4784 92.19 87.7047 92.19 87.9408Z"
        style="fill: var(--darker)" />
    <path d="M92.19 103.9H90.41V113.02H92.19V103.9Z" style="fill: var(--darker)" />
    <path
        d="M90.41 117.689H92.19V128.999C92.19 129.235 92.0962 129.462 91.9293 129.629C91.7624 129.796 91.536 129.889 91.3 129.889C91.064 129.889 90.8376 129.796 90.6707 129.629C90.5038 129.462 90.41 129.235 90.41 128.999V117.689Z"
        style="fill: var(--darker)" />
    <path
        d="M76.65 232.68H91V273.47H76.65C76.3026 273.47 75.9694 273.332 75.7237 273.086C75.478 272.84 75.34 272.507 75.34 272.16V234C75.3387 233.827 75.3716 233.655 75.4368 233.495C75.5021 233.335 75.5984 233.19 75.7201 233.067C75.8419 232.944 75.9868 232.847 76.1464 232.78C76.3059 232.714 76.4771 232.68 76.65 232.68Z"
        style="fill: var(--darker)" />
    <path
        d="M91.58 265.47C91.517 265.47 91.4546 265.457 91.3963 265.433C91.3381 265.409 91.2852 265.374 91.2406 265.329C91.196 265.284 91.1607 265.231 91.1365 265.173C91.1124 265.115 91.1 265.053 91.1 264.99V260.39L71.2 256.24C70.8302 256.759 70.3432 257.183 69.7785 257.479C69.2137 257.774 68.5873 257.932 67.95 257.94C66.7602 257.797 65.6641 257.223 64.8689 256.326C64.0737 255.43 63.6346 254.273 63.6346 253.075C63.6346 251.876 64.0737 250.719 64.8689 249.823C65.6641 248.927 66.7602 248.353 67.95 248.21C68.588 248.219 69.2147 248.379 69.7794 248.676C70.3441 248.973 70.8308 249.399 71.2 249.92L91.1 245.76V242C91.1026 241.873 91.154 241.752 91.2434 241.663C91.3329 241.573 91.4535 241.522 91.58 241.52C91.7073 241.52 91.8294 241.57 91.9194 241.66C92.0094 241.75 92.06 241.872 92.06 242V246.17C92.0583 246.279 92.02 246.385 91.9511 246.47C91.8822 246.555 91.7868 246.615 91.68 246.64L71.08 250.94C70.9853 250.956 70.8877 250.945 70.7991 250.908C70.7104 250.871 70.6343 250.809 70.58 250.73C70.307 250.272 69.9227 249.891 69.4629 249.622C69.0031 249.352 68.4827 249.204 67.95 249.19C67.0229 249.338 66.1791 249.813 65.5701 250.528C64.961 251.242 64.6265 252.151 64.6265 253.09C64.6265 254.029 64.961 254.937 65.5701 255.652C66.1791 256.366 67.0229 256.841 67.95 256.99C68.4827 256.975 69.0031 256.827 69.4629 256.558C69.9227 256.288 70.307 255.907 70.58 255.45C70.6325 255.368 70.7083 255.305 70.7975 255.267C70.8867 255.23 70.9852 255.22 71.08 255.24L91.68 259.54C91.7876 259.562 91.8841 259.622 91.9533 259.707C92.0224 259.793 92.0601 259.9 92.06 260.01V265.01C92.0587 265.071 92.0453 265.132 92.0204 265.189C91.9956 265.245 91.9599 265.296 91.9153 265.339C91.8707 265.382 91.8182 265.415 91.7606 265.438C91.7031 265.46 91.6417 265.471 91.58 265.47Z"
        style="fill: var(--primary)" />
    <path
        d="M92.19 232.56V243.85H90.41V232.56C90.41 232.324 90.5038 232.097 90.6707 231.931C90.8376 231.764 91.064 231.67 91.3 231.67C91.536 231.67 91.7624 231.764 91.9293 231.931C92.0962 232.097 92.19 232.324 92.19 232.56Z"
        style="fill: var(--darker)" />
    <path d="M92.19 248.52H90.41V257.64H92.19V248.52Z" style="fill: var(--darker)" />
    <path
        d="M90.41 262.311H92.19V273.601C92.19 273.837 92.0962 274.063 91.9293 274.23C91.7624 274.397 91.536 274.491 91.3 274.491C91.064 274.491 90.8376 274.397 90.6707 274.23C90.5038 274.063 90.41 273.837 90.41 273.601V262.311Z"
        style="fill: var(--darker)" />
    <path opacity="0.2" d="M166.44 95.3691H104.26V143.009H166.44V95.3691Z" fill="black" />
    <path opacity="0.4"
        d="M104.26 136.531L124.13 120.151L135.35 130.431L154.24 114.461L166.44 126.011V143.011H104.26V136.531Z"
        fill="white" />
    <path opacity="0.4"
        d="M118.41 114.81C121.53 114.81 124.06 112.28 124.06 109.16C124.06 106.039 121.53 103.51 118.41 103.51C115.29 103.51 112.76 106.039 112.76 109.16C112.76 112.28 115.29 114.81 118.41 114.81Z"
        fill="white" />
    <path opacity="0.2" d="M225.65 66.0098H104.26V86.0798H225.65V66.0098Z" fill="black" />
    <path opacity="0.2" d="M225.65 95.3691H174.06V98.0291H225.65V95.3691Z" fill="black" />
    <path opacity="0.2" d="M225.65 102.83H174.06V105.49H225.65V102.83Z" fill="black" />
    <path opacity="0.2" d="M225.65 110.279H174.06V112.939H225.65V110.279Z" fill="black" />
    <path opacity="0.2" d="M225.65 117.73H174.06V120.39H225.65V117.73Z" fill="black" />
    <path opacity="0.2" d="M225.65 125.189H174.06V127.849H225.65V125.189Z" fill="black" />
    <path opacity="0.2" d="M225.65 132.641H174.06V135.301H225.65V132.641Z" fill="black" />
    <path opacity="0.2" d="M225.65 140.359H174.06V143.019H225.65V140.359Z" fill="black" />
    <path opacity="0.2" d="M225.65 153.84H104.26V156.5H225.65V153.84Z" fill="black" />
    <path opacity="0.2" d="M225.65 160.939H104.26V163.599H225.65V160.939Z" fill="black" />
    <path opacity="0.2" d="M225.65 168.039H104.26V170.699H225.65V168.039Z" fill="black" />
    <path opacity="0.2" d="M225.65 175.141H104.26V177.801H225.65V175.141Z" fill="black" />
    <path opacity="0.2" d="M225.65 182.24H104.26V184.9H225.65V182.24Z" fill="black" />
    <path opacity="0.2" d="M225.65 189.34H104.26V192H225.65V189.34Z" fill="black" />
    <path opacity="0.2" d="M225.65 201.42H163.47V249.06H225.65V201.42Z" fill="black" />
    <path opacity="0.4"
        d="M163.47 242.59L183.34 226.2L194.56 236.49L213.45 220.52L225.65 232.07V249.07H163.47V242.59Z"
        fill="white" />
    <path opacity="0.4"
        d="M183.28 215.211C183.282 216.33 182.952 217.426 182.331 218.358C181.71 219.29 180.827 220.017 179.793 220.447C178.759 220.877 177.621 220.99 176.522 220.773C175.423 220.556 174.414 220.017 173.621 219.226C172.829 218.435 172.289 217.427 172.069 216.328C171.85 215.23 171.962 214.092 172.39 213.057C172.818 212.022 173.543 211.138 174.474 210.515C175.405 209.893 176.5 209.561 177.62 209.561C179.119 209.561 180.558 210.155 181.619 211.215C182.68 212.274 183.277 213.711 183.28 215.211Z"
        fill="white" />
    <path opacity="0.2" d="M104.25 204.09H155.84V201.43H104.25V204.09Z" fill="black" />
    <path opacity="0.2" d="M104.25 211.539H155.84V208.879H104.25V211.539Z" fill="black" />
    <path opacity="0.2" d="M104.25 218.99H155.84V216.33H104.25V218.99Z" fill="black" />
    <path opacity="0.2" d="M104.25 226.439H155.84V223.779H104.25V226.439Z" fill="black" />
    <path opacity="0.2" d="M104.25 233.9H155.84V231.24H104.25V233.9Z" fill="black" />
    <path opacity="0.2" d="M104.25 241.35H155.84V238.69H104.25V241.35Z" fill="black" />
    <path opacity="0.2" d="M104.25 249.07H155.84V246.41H104.25V249.07Z" fill="black" />
    <path opacity="0.2" d="M225.65 258.93H104.26V261.59H225.65V258.93Z" fill="black" />
    <path opacity="0.2" d="M225.65 266.029H104.26V268.689H225.65V266.029Z" fill="black" />
    <path opacity="0.2" d="M225.65 273.131H104.26V275.791H225.65V273.131Z" fill="black" />
    <path opacity="0.2" d="M225.65 280.23H104.26V282.89H225.65V280.23Z" fill="black" />
    <path opacity="0.2" d="M225.65 287.33H104.26V289.99H225.65V287.33Z" fill="black" />
    <path opacity="0.2" d="M225.65 294.43H104.26V297.09H225.65V294.43Z" fill="black" />
    <path
        d="M114.9 161.999C107.56 161.999 101.3 160.639 99.34 156.939C98.742 155.973 98.5333 154.816 98.7561 153.702C98.9789 152.588 99.6165 151.601 100.54 150.939C108.46 144.329 142.07 145.699 147.68 150.109C147.823 150.168 147.951 150.259 148.053 150.375C148.155 150.492 148.229 150.63 148.268 150.78C148.308 150.93 148.312 151.087 148.281 151.238C148.249 151.39 148.183 151.532 148.087 151.654C147.991 151.775 147.868 151.873 147.728 151.939C147.588 152.005 147.435 152.038 147.28 152.034C147.125 152.031 146.973 151.992 146.836 151.92C146.699 151.848 146.581 151.745 146.49 151.619C141.61 147.789 108.89 146.479 101.77 152.419C101.485 152.606 101.24 152.847 101.049 153.13C100.858 153.412 100.726 153.729 100.659 154.063C100.592 154.398 100.592 154.742 100.659 155.076C100.726 155.41 100.859 155.727 101.05 156.009C103.16 160.009 113.87 161.179 127.69 158.919C140.69 156.789 149.85 152.689 150.26 150.179C150.38 149.419 149.39 148.719 148.54 148.269C148.389 148.237 148.247 148.17 148.126 148.074C148.005 147.978 147.908 147.855 147.842 147.714C147.777 147.574 147.744 147.421 147.748 147.266C147.752 147.112 147.792 146.96 147.864 146.823C147.937 146.686 148.04 146.568 148.165 146.478C148.291 146.388 148.436 146.328 148.589 146.304C148.742 146.279 148.898 146.29 149.046 146.336C149.193 146.382 149.328 146.462 149.44 146.569C152 147.919 152.33 149.449 152.16 150.489C151.42 154.989 139.16 158.999 128 160.819C123.671 161.555 119.291 161.95 114.9 161.999Z"
        style="fill: var(--primary)" />
    <path
        d="M229.24 266.629C229.014 266.628 228.796 266.55 228.62 266.409L215.94 255.779C215.799 255.716 215.674 255.62 215.576 255.501C215.478 255.381 215.409 255.24 215.375 255.089C215.341 254.938 215.342 254.781 215.378 254.631C215.415 254.481 215.486 254.341 215.586 254.222C215.686 254.104 215.811 254.011 215.954 253.949C216.096 253.888 216.25 253.86 216.404 253.869C216.559 253.877 216.71 253.921 216.844 253.998C216.979 254.074 217.094 254.181 217.18 254.309L229.86 264.929C230.049 265.098 230.166 265.333 230.188 265.586C230.21 265.838 230.136 266.09 229.98 266.289C229.89 266.398 229.777 266.485 229.649 266.544C229.521 266.602 229.381 266.632 229.24 266.629Z"
        style="fill: var(--primary)" />
    <path
        d="M219.1 267.131C218.921 267.117 218.749 267.055 218.603 266.952C218.456 266.849 218.339 266.708 218.266 266.544C218.192 266.381 218.164 266.2 218.184 266.022C218.204 265.844 218.272 265.674 218.38 265.531C222.241 261.209 225.538 256.414 228.19 251.261C228.222 251.111 228.288 250.97 228.384 250.85C228.479 250.73 228.6 250.633 228.739 250.567C228.877 250.502 229.029 250.469 229.183 250.471C229.336 250.473 229.487 250.511 229.623 250.58C229.76 250.65 229.878 250.751 229.97 250.874C230.061 250.997 230.124 251.139 230.151 251.29C230.179 251.441 230.172 251.596 230.13 251.743C230.088 251.891 230.013 252.027 229.91 252.141C227.18 257.437 223.789 262.366 219.82 266.811C219.731 266.914 219.62 266.996 219.496 267.051C219.371 267.106 219.236 267.133 219.1 267.131Z"
        style="fill: var(--primary)" />
    <path
        d="M102 282.859C101.856 282.857 101.715 282.823 101.586 282.761C101.456 282.699 101.342 282.61 101.25 282.499C100.287 281.295 99.6033 279.891 99.25 278.389C99.1998 278.144 99.244 277.888 99.3736 277.673C99.5033 277.458 99.709 277.3 99.95 277.229C100.197 277.177 100.456 277.219 100.673 277.349C100.89 277.479 101.05 277.686 101.12 277.929C101.305 278.689 101.595 279.419 101.98 280.099C104.052 276.717 106.598 273.65 109.54 270.989C109.734 270.827 109.981 270.744 110.234 270.757C110.486 270.77 110.724 270.878 110.9 271.059C111.062 271.253 111.145 271.501 111.132 271.753C111.119 272.006 111.011 272.244 110.83 272.419C107.661 275.286 104.976 278.646 102.88 282.369C102.801 282.505 102.691 282.62 102.559 282.705C102.427 282.79 102.276 282.843 102.12 282.859H102Z"
        style="fill: var(--primary)" />
    <path
        d="M173.25 121.559H173.13L170.84 121.259C170.4 121.252 169.976 121.093 169.641 120.809C169.305 120.524 169.079 120.132 169 119.699C168.553 117.855 168.375 115.955 168.47 114.059V96.1593C168.471 96.0165 168.503 95.8757 168.564 95.7463C168.624 95.617 168.712 95.5021 168.82 95.4093C168.932 95.3227 169.062 95.261 169.2 95.2282C169.337 95.1955 169.481 95.1924 169.62 95.2193L171.12 95.5193C171.316 95.6185 171.473 95.7794 171.569 95.9771C171.664 96.1748 171.692 96.3984 171.647 96.6133C171.603 96.8282 171.489 97.0226 171.323 97.1665C171.158 97.3103 170.949 97.3956 170.73 97.4093L170.39 97.3393V114.069C170.302 115.779 170.453 117.492 170.84 119.159V119.309H171.04L173.33 119.609C173.535 119.683 173.711 119.821 173.83 120.003C173.949 120.185 174.006 120.401 173.991 120.618C173.976 120.836 173.891 121.042 173.748 121.207C173.606 121.371 173.413 121.484 173.2 121.529L173.25 121.559Z"
        style="fill: var(--primary)" />
    <path
        d="M164.37 102.46H164.32C160.2 102.23 156.03 102.1 151.91 102.08C151.645 102.08 151.39 101.975 151.203 101.787C151.015 101.6 150.91 101.345 150.91 101.08C150.91 100.815 151.015 100.561 151.203 100.373C151.39 100.185 151.645 100.08 151.91 100.08C156.06 100.08 160.27 100.24 164.41 100.47C164.618 100.531 164.8 100.657 164.93 100.83C165.06 101.003 165.13 101.214 165.13 101.43C165.13 101.646 165.06 101.857 164.93 102.03C164.8 102.203 164.618 102.329 164.41 102.39L164.37 102.46Z"
        style="fill: var(--primary)" />
    <path
        d="M155.23 106C155.019 105.961 154.827 105.856 154.68 105.7C154.534 105.543 154.442 105.344 154.417 105.131C154.392 104.919 154.437 104.704 154.543 104.518C154.65 104.332 154.814 104.186 155.01 104.1C157.429 103.656 159.902 103.595 162.34 103.92C163.03 103.98 163.73 104.04 164.42 104.08C164.669 104.103 164.901 104.218 165.07 104.403C165.238 104.588 165.331 104.83 165.33 105.08C165.307 105.329 165.192 105.561 165.007 105.73C164.822 105.898 164.58 105.991 164.33 105.99C163.61 105.99 162.9 105.89 162.19 105.83C159.957 105.524 157.689 105.572 155.47 105.97L155.23 106Z"
        style="fill: var(--primary)" />
    <path
        d="M164.37 109.54H164.21C163.195 109.421 162.171 109.391 161.15 109.45C160.009 109.513 158.864 109.472 157.73 109.33C157.532 109.237 157.37 109.082 157.269 108.889C157.167 108.695 157.132 108.474 157.168 108.258C157.205 108.043 157.31 107.845 157.47 107.695C157.629 107.546 157.833 107.453 158.05 107.43C159.065 107.549 160.089 107.579 161.11 107.52C162.251 107.457 163.396 107.497 164.53 107.64C164.731 107.718 164.9 107.859 165.014 108.042C165.128 108.225 165.18 108.44 165.162 108.654C165.144 108.869 165.057 109.072 164.914 109.233C164.772 109.395 164.581 109.506 164.37 109.55V109.54Z"
        style="fill: var(--primary)" />
    <path
        d="M151.4 113.159C151.145 113.16 150.899 113.063 150.713 112.888C150.527 112.713 150.415 112.474 150.4 112.219C150.4 111.964 150.497 111.719 150.671 111.533C150.846 111.347 151.085 111.235 151.34 111.219L164.34 110.939C164.552 110.997 164.739 111.123 164.872 111.297C165.006 111.472 165.078 111.685 165.078 111.904C165.078 112.124 165.006 112.337 164.872 112.512C164.739 112.686 164.552 112.812 164.34 112.869L151.34 113.149L151.4 113.159Z"
        style="fill: var(--primary)" />
    <path
        d="M164.37 116.6H157.76C157.552 116.539 157.37 116.413 157.24 116.24C157.11 116.067 157.04 115.856 157.04 115.64C157.04 115.423 157.11 115.213 157.24 115.04C157.37 114.867 157.552 114.74 157.76 114.68H164.37C164.578 114.74 164.76 114.867 164.89 115.04C165.02 115.213 165.09 115.423 165.09 115.64C165.09 115.856 165.02 116.067 164.89 116.24C164.76 116.413 164.578 116.539 164.37 116.6Z"
        style="fill: var(--primary)" />
    <path
        d="M144.57 226H144.2C130.86 225.94 117.45 224.14 104.48 222.39C103.24 222.22 101.35 221.97 100.17 220.61C99.6207 219.907 99.2899 219.059 99.2188 218.17C99.1477 217.281 99.3393 216.391 99.77 215.61C100.565 214.207 101.793 213.098 103.27 212.45C106.81 210.71 110.84 210.74 114.4 210.75C121.49 210.75 128.82 210.82 136.1 211.01C142.37 211.18 148.43 211.56 153.7 214.36C153.85 214.394 153.99 214.462 154.11 214.559C154.229 214.656 154.325 214.78 154.389 214.92C154.453 215.06 154.483 215.213 154.479 215.367C154.474 215.521 154.433 215.671 154.361 215.807C154.288 215.943 154.185 216.06 154.06 216.149C153.934 216.239 153.79 216.298 153.638 216.323C153.486 216.347 153.33 216.336 153.183 216.29C153.036 216.245 152.902 216.166 152.79 216.06C147.89 213.46 142.08 213.06 136.05 212.94C128.79 212.74 121.47 212.71 114.39 212.68C111.04 212.68 107.25 212.68 104.12 214.18C103.013 214.648 102.087 215.462 101.48 216.5C101.228 216.938 101.107 217.44 101.132 217.945C101.157 218.451 101.326 218.938 101.62 219.35C102.501 220.071 103.602 220.469 104.74 220.48C117.65 222.22 130.99 224.02 144.21 224.07C147.47 224.07 151.21 223.94 153.92 222.07C154.672 221.553 155.313 220.892 155.806 220.124C156.299 219.357 156.633 218.499 156.79 217.6C156.902 217.026 156.893 216.436 156.764 215.866C156.635 215.296 156.388 214.759 156.04 214.29C155.889 214.085 155.821 213.831 155.851 213.578C155.88 213.326 156.005 213.094 156.2 212.93C156.405 212.783 156.658 212.718 156.908 212.75C157.159 212.781 157.388 212.906 157.55 213.1C158.064 213.776 158.431 214.553 158.628 215.379C158.824 216.206 158.845 217.065 158.69 217.9C158.49 219.059 158.061 220.166 157.427 221.157C156.794 222.148 155.968 223.002 155 223.67C151.91 225.76 148 226 144.57 226Z"
        style="fill: var(--primary)" />
    <path
        d="M219.6 302.459C214.36 302.459 208.87 302.109 203.72 300.179C203.05 299.929 200.99 299.179 200.72 297.269C200.52 295.809 201.52 294.419 203.47 293.459C209.57 290.459 216.6 290.459 222.85 290.639C221.786 290.145 220.673 289.763 219.53 289.499C219.377 289.505 219.224 289.474 219.084 289.411C218.944 289.348 218.821 289.253 218.723 289.135C218.626 289.016 218.557 288.876 218.522 288.727C218.487 288.577 218.487 288.422 218.522 288.272C218.557 288.123 218.626 287.983 218.724 287.865C218.822 287.746 218.945 287.652 219.085 287.588C219.225 287.525 219.378 287.495 219.531 287.501C219.685 287.506 219.835 287.547 219.97 287.619C222.427 288.197 224.748 289.25 226.8 290.719C228.26 291.719 230.67 293.969 230.39 296.899C230.226 297.96 229.781 298.958 229.1 299.788C228.419 300.619 227.528 301.251 226.52 301.619C224.709 302.262 222.79 302.547 220.87 302.459H219.6ZM219.18 292.519C214.18 292.519 208.9 292.919 204.33 295.179C203.45 295.619 202.55 296.329 202.64 296.999C202.73 297.669 203.64 298.089 204.4 298.379C209.67 300.379 215.4 300.579 220.86 300.529C222.532 300.617 224.206 300.383 225.79 299.839C226.476 299.603 227.086 299.189 227.559 298.639C228.031 298.089 228.349 297.423 228.48 296.709C228.68 294.709 226.59 292.939 225.69 292.289C225.22 291.959 224.75 291.649 224.25 291.359C224.265 291.452 224.265 291.547 224.25 291.639C224.252 291.769 224.227 291.897 224.176 292.015C224.126 292.134 224.051 292.241 223.957 292.33C223.863 292.418 223.752 292.486 223.63 292.529C223.508 292.572 223.379 292.589 223.25 292.579C222 292.549 220.58 292.519 219.18 292.519Z"
        style="fill: var(--primary)" />
    <path
        d="M305 0.609375H277.6C275.362 0.609375 273.215 1.49858 271.632 3.08139C270.049 4.6642 269.16 6.81095 269.16 9.04938V32.8894C269.16 35.1278 270.049 37.2746 271.632 38.8574C273.215 40.4402 275.362 41.3294 277.6 41.3294H288.44L291.3 48.8494L294.16 41.3294H305C306.108 41.3294 307.205 41.111 308.228 40.6867C309.252 40.2624 310.182 39.6406 310.964 38.8568C311.747 38.0729 312.368 37.1424 312.791 36.1185C313.214 35.0945 313.431 33.9973 313.43 32.8894V9.04938C313.431 7.94149 313.214 6.84421 312.791 5.82028C312.368 4.79635 311.747 3.86586 310.964 3.082C310.182 2.29814 309.252 1.67629 308.228 1.25202C307.205 0.827749 306.108 0.609374 305 0.609375Z"
        style="fill: var(--primary)" />
    <path opacity="0.7"
        d="M305 0.609375H277.6C275.362 0.609375 273.215 1.49858 271.632 3.08139C270.049 4.6642 269.16 6.81095 269.16 9.04938V32.8894C269.16 35.1278 270.049 37.2746 271.632 38.8574C273.215 40.4402 275.362 41.3294 277.6 41.3294H288.44L291.3 48.8494L294.16 41.3294H305C306.108 41.3294 307.205 41.111 308.228 40.6867C309.252 40.2624 310.182 39.6406 310.964 38.8568C311.747 38.0729 312.368 37.1424 312.791 36.1185C313.214 35.0945 313.431 33.9973 313.43 32.8894V9.04938C313.431 7.94149 313.214 6.84421 312.791 5.82028C312.368 4.79635 311.747 3.86586 310.964 3.082C310.182 2.29814 309.252 1.67629 308.228 1.25202C307.205 0.827749 306.108 0.609374 305 0.609375Z"
        fill="white" />
    <path
        d="M304.92 20.8695C304.92 23.5594 304.122 26.1888 302.628 28.4253C301.134 30.6618 299.01 32.405 296.525 33.4343C294.039 34.4637 291.305 34.733 288.667 34.2082C286.029 33.6835 283.605 32.3882 281.703 30.4862C279.801 28.5842 278.506 26.1609 277.981 23.5228C277.457 20.8846 277.726 18.1501 278.755 15.665C279.785 13.18 281.528 11.0559 283.764 9.56155C286.001 8.06716 288.63 7.26953 291.32 7.26953C293.106 7.26822 294.875 7.6191 296.526 8.3021C298.177 8.9851 299.676 9.98681 300.94 11.25C302.203 12.5131 303.204 14.0129 303.887 15.6635C304.57 17.3141 304.921 19.0832 304.92 20.8695Z"
        style="fill: var(--primary)" />
    <path
        d="M292.25 27.8789V30.0789H290.64V27.8989C288.914 27.8525 287.241 27.288 285.84 26.2789L286.72 24.2789C287.861 25.1343 289.219 25.6508 290.64 25.7689V21.8489C288.47 21.3189 286.13 20.6089 286.13 17.8489C286.13 15.8489 287.59 14.0989 290.64 13.8489V11.6289H292.25V13.8089C293.662 13.867 295.036 14.276 296.25 14.9989L295.45 16.9989C294.471 16.449 293.388 16.1084 292.27 15.9989V19.9989C294.45 20.5189 296.82 21.2089 296.82 23.9389C296.8 25.8389 295.33 27.5689 292.25 27.8789ZM290.64 19.4889V15.9989C289.25 16.2189 288.64 16.9289 288.64 17.7889C288.64 18.6489 289.51 19.1589 290.64 19.4889ZM294.29 24.0189C294.29 23.0189 293.43 22.6089 292.29 22.2789V25.7489C293.68 25.5289 294.29 24.8589 294.29 23.9989V24.0189Z"
        fill="white" />
    <path
        d="M62.6 31.6309H35.2C34.0921 31.6309 32.9951 31.8492 31.9717 32.2735C30.9482 32.6978 30.0185 33.3196 29.2355 34.1035C28.4526 34.8873 27.8319 35.8178 27.4088 36.8418C26.9858 37.8657 26.7687 38.963 26.77 40.0709V63.9109C26.7687 65.0187 26.9858 66.116 27.4088 67.14C27.8319 68.1639 28.4526 69.0944 29.2355 69.8782C30.0185 70.6621 30.9482 71.2839 31.9717 71.7082C32.9951 72.1325 34.0921 72.3509 35.2 72.3509H46L48.86 79.8708L51.72 72.3509H62.6C64.8384 72.3509 66.9852 71.4616 68.568 69.8788C70.1508 68.296 71.04 66.1493 71.04 63.9109V40.0709C71.04 37.8324 70.1508 35.6857 68.568 34.1029C66.9852 32.5201 64.8384 31.6309 62.6 31.6309Z"
        style="fill: var(--primary)" />
    <path opacity="0.7"
        d="M62.6 31.6309H35.2C34.0921 31.6309 32.9951 31.8492 31.9717 32.2735C30.9482 32.6978 30.0185 33.3196 29.2355 34.1035C28.4526 34.8873 27.8319 35.8178 27.4088 36.8418C26.9858 37.8657 26.7687 38.963 26.77 40.0709V63.9109C26.7687 65.0187 26.9858 66.116 27.4088 67.14C27.8319 68.1639 28.4526 69.0944 29.2355 69.8782C30.0185 70.6621 30.9482 71.2839 31.9717 71.7082C32.9951 72.1325 34.0921 72.3509 35.2 72.3509H46L48.86 79.8708L51.72 72.3509H62.6C64.8384 72.3509 66.9852 71.4616 68.568 69.8788C70.1508 68.296 71.04 66.1493 71.04 63.9109V40.0709C71.04 37.8324 70.1508 35.6857 68.568 34.1029C66.9852 32.5201 64.8384 31.6309 62.6 31.6309Z"
        fill="white" />
    <path
        d="M51.0889 65.3023C58.503 64.0989 63.5376 57.113 62.3342 49.699C61.1307 42.2849 54.1448 37.2503 46.7308 38.4537C39.3168 39.6572 34.2821 46.6431 35.4856 54.0571C36.689 61.4711 43.6749 66.5058 51.0889 65.3023Z"
        style="fill: var(--primary)" />
    <path
        d="M47.47 57.9999C47.281 58.0063 47.0929 57.9701 46.9198 57.8939C46.7467 57.8178 46.593 57.7036 46.47 57.5599L41.14 51.2699C41.0168 51.148 40.9202 51.0017 40.8566 50.8404C40.7929 50.6792 40.7635 50.5064 40.7702 50.3332C40.7769 50.1599 40.8195 49.99 40.8955 49.8341C40.9714 49.6782 41.0789 49.5398 41.2112 49.4278C41.3434 49.3157 41.4976 49.2323 41.6638 49.183C41.83 49.1337 42.0047 49.1195 42.1767 49.1414C42.3487 49.1632 42.5142 49.2206 42.6629 49.3098C42.8115 49.3991 42.9399 49.5183 43.04 49.6599L47.42 54.8199L54.66 46.2899C54.8748 46.0366 55.1815 45.8791 55.5125 45.8519C55.8435 45.8247 56.1717 45.9301 56.425 46.1449C56.6783 46.3597 56.8358 46.6664 56.863 46.9974C56.8902 47.3284 56.7848 47.6566 56.57 47.9099L48.38 57.5599C48.2669 57.6921 48.1277 57.7994 47.9711 57.8751C47.8144 57.9509 47.6438 57.9934 47.47 57.9999Z"
        fill="white" />
    <path
        d="M287.16 95.541C280.33 96.971 273.05 124.411 273.05 124.411L279.15 130.991L290.06 110.991L287.16 95.541Z"
        style="fill: var(--darker)" />
    <path opacity="0.2"
        d="M290.06 111.001L289.83 111.431L280.71 128.151L279.15 131.001L273.05 124.411C273.05 124.411 280.32 96.991 287.15 95.541L290.06 111.001Z"
        fill="white" />
    <path opacity="0.1"
        d="M289.83 111.401L280.71 128.121C280.71 127.841 280.71 127.541 280.71 127.211C281.53 114.491 288.62 107.781 288.62 107.781C289.208 108.918 289.616 110.139 289.83 111.401Z"
        fill="black" />
    <path
        d="M338 165.53C338 165.53 317.07 159.97 291.69 168.13C291.69 168.13 287.61 114.97 288.1 107.66C288.59 100.35 327.27 102.5 327.27 102.5C327.27 102.5 328.27 123.78 330.76 136.61C333.25 149.44 339.26 163.06 338 165.53Z"
        style="fill: var(--darker)" />
    <path opacity="0.2"
        d="M338 165.53C338 165.53 317.07 159.97 291.69 168.13C291.69 168.13 287.61 114.97 288.1 107.66C288.59 100.35 327.27 102.5 327.27 102.5C327.27 102.5 328.27 123.78 330.76 136.61C333.25 149.44 339.26 163.06 338 165.53Z"
        fill="black" />
    <path
        d="M279.43 303.711L286.26 305.641L287.89 295.011L288.76 289.331L281.93 287.391L280.77 295.011L279.43 303.711Z"
        fill="#E4897B" />
    <path
        d="M318.7 304.27L325.74 305.2L325.81 295.01L325.86 288.68L318.8 287.76L318.76 295.01L318.7 304.27Z"
        fill="#E4897B" />
    <path opacity="0.2" d="M318.8 287.76L318.76 295.01H325.81L325.86 288.68L318.8 287.76Z"
        fill="black" />
    <path opacity="0.2" d="M280.77 295.011H287.89L288.76 289.331L281.93 287.391L280.77 295.011Z"
        fill="black" />
    <path
        d="M279.52 302.64L287.27 302.43C287.411 302.427 287.549 302.472 287.661 302.558C287.774 302.643 287.854 302.763 287.89 302.9L289.52 309.15C289.565 309.302 289.572 309.463 289.542 309.619C289.513 309.775 289.446 309.921 289.348 310.046C289.251 310.171 289.124 310.271 288.98 310.338C288.836 310.405 288.679 310.436 288.52 310.43C285.72 310.43 281.67 310.43 278.15 310.5C274.04 310.61 271.43 310.41 266.6 310.5C263.69 310.58 262.77 307.66 263.98 307.37C269.5 306.01 273.1 306.28 277.8 303.2C278.31 302.858 278.906 302.664 279.52 302.64Z"
        style="fill: var(--darker)" />
    <path
        d="M278.85 303.641C277.71 303.901 275.69 304.241 274.85 303.571C274.73 303.474 274.635 303.35 274.574 303.209C274.513 303.068 274.488 302.914 274.5 302.761C274.501 302.669 274.526 302.58 274.571 302.501C274.617 302.423 274.682 302.357 274.76 302.31C275.61 301.8 278.51 303.17 278.84 303.31C278.873 303.324 278.901 303.347 278.919 303.378C278.937 303.409 278.945 303.445 278.94 303.481C278.941 303.513 278.933 303.545 278.917 303.573C278.901 303.601 278.878 303.624 278.85 303.641ZM275 302.571H274.94C274.907 302.587 274.88 302.613 274.862 302.645C274.844 302.677 274.836 302.714 274.84 302.751C274.829 302.85 274.844 302.951 274.883 303.043C274.921 303.136 274.982 303.218 275.06 303.28C275.51 303.66 276.68 303.691 278.24 303.391C277.12 302.921 275.55 302.371 275 302.571Z"
        style="fill: var(--primary)" />
    <path
        d="M278.85 303.641H278.73C277.86 303.281 276.1 301.791 276.21 300.991C276.21 300.801 276.35 300.571 276.82 300.511C276.986 300.486 277.156 300.497 277.317 300.542C277.479 300.587 277.63 300.665 277.76 300.771C278.433 301.519 278.852 302.46 278.96 303.461C278.964 303.491 278.959 303.522 278.947 303.55C278.935 303.579 278.915 303.603 278.89 303.621L278.85 303.641ZM276.69 300.881C276.55 300.931 276.54 301.011 276.54 301.031C276.48 301.521 277.68 302.691 278.54 303.191C278.434 302.386 278.085 301.633 277.54 301.031C277.445 300.952 277.334 300.895 277.215 300.862C277.096 300.83 276.972 300.822 276.85 300.841C276.795 300.847 276.741 300.86 276.69 300.881Z"
        style="fill: var(--primary)" />
    <path
        d="M319 302.64L326.76 302.43C326.901 302.427 327.039 302.472 327.151 302.558C327.264 302.643 327.344 302.763 327.38 302.9L329.01 309.15C329.055 309.302 329.062 309.463 329.032 309.619C329.003 309.775 328.936 309.921 328.838 310.046C328.741 310.171 328.614 310.271 328.47 310.338C328.326 310.405 328.169 310.436 328.01 310.43C325.21 310.43 321.16 310.43 317.65 310.5C313.53 310.61 310.92 310.41 306.1 310.5C303.18 310.58 302.27 307.66 303.48 307.37C308.99 306.01 312.59 306.28 317.29 303.2C317.798 302.861 318.39 302.667 319 302.64Z"
        style="fill: var(--darker)" />
    <path
        d="M318.32 303.641C317.19 303.901 315.16 304.241 314.32 303.571C314.204 303.471 314.112 303.347 314.051 303.206C313.99 303.066 313.963 302.913 313.97 302.761C313.971 302.668 313.997 302.578 314.044 302.499C314.092 302.42 314.159 302.355 314.24 302.31C315.08 301.8 317.99 303.17 318.32 303.31C318.35 303.326 318.375 303.351 318.391 303.382C318.407 303.412 318.414 303.446 318.41 303.481C318.412 303.513 318.404 303.545 318.388 303.574C318.373 303.602 318.349 303.625 318.32 303.641ZM314.48 302.571H314.42C314.387 302.587 314.36 302.613 314.342 302.645C314.324 302.677 314.316 302.714 314.32 302.751C314.309 302.85 314.324 302.951 314.363 303.043C314.401 303.136 314.462 303.218 314.54 303.28C314.99 303.66 316.17 303.691 317.72 303.391C316.58 302.921 315 302.371 314.48 302.571Z"
        style="fill: var(--primary)" />
    <path
        d="M318.32 303.641H318.19C317.32 303.281 315.57 301.791 315.67 300.991C315.67 300.801 315.82 300.571 316.28 300.511C316.446 300.486 316.616 300.497 316.778 300.541C316.94 300.586 317.09 300.665 317.22 300.771C317.893 301.52 318.312 302.461 318.42 303.461C318.425 303.491 318.422 303.521 318.412 303.549C318.401 303.577 318.383 303.602 318.36 303.621L318.32 303.641ZM316.15 300.881C316.114 300.892 316.082 300.911 316.056 300.937C316.029 300.963 316.01 300.996 316 301.031C315.94 301.521 317.14 302.691 318 303.191C317.894 302.386 317.545 301.633 317 301.031C316.903 300.953 316.79 300.895 316.67 300.863C316.549 300.83 316.423 300.823 316.3 300.841L316.15 300.881Z"
        style="fill: var(--primary)" />
    <path
        d="M333.22 149.451C336.95 165.631 330.55 292.841 330.55 292.841H318.18L312.89 186.841L293.41 292.841L280.19 291.841C288.83 209.711 296.47 160.681 296.47 160.681V154.481L333.22 149.451Z"
        style="fill: var(--darker)" />
    <path
        d="M326.56 89.5509C326.174 97.2847 326.372 105.037 327.15 112.741C327.66 118.121 328.38 123.211 329.15 127.801C330.93 138.571 332.95 146.631 333.23 149.451L296.46 154.521C283.05 117.031 288.1 97.1309 288.1 97.1309L296.53 92.3309C296.53 92.3309 297.76 92.0009 298.39 91.8509C303.548 90.8373 308.76 90.1195 314 89.7008C315 89.6108 316 89.5409 317 89.5009C322 89.2709 326.56 89.5509 326.56 89.5509Z"
        style="fill: var(--primary)" />
    <g opacity="0.7">
        <path
            d="M326.56 89.5509C326.174 97.2847 326.372 105.037 327.15 112.741C327.66 118.121 328.38 123.211 329.15 127.801C330.93 138.571 332.95 146.631 333.23 149.451L296.46 154.521C283.05 117.031 288.1 97.1309 288.1 97.1309L296.53 92.3309C296.53 92.3309 297.76 92.0009 298.39 91.8509C303.548 90.8373 308.76 90.1195 314 89.7008C315 89.6108 316 89.5409 317 89.5009C322 89.2709 326.56 89.5509 326.56 89.5509Z"
            fill="white" />
    </g>
    <path
        d="M312.72 89.5209C312.72 89.5209 304.29 96.1809 301.72 96.1509C299.94 96.1509 297.36 93.2209 297.36 93.2209C298.45 92.7084 299.403 91.9441 300.14 90.9909C301.9 88.5809 300.88 85.6509 299.45 82.9909L306.84 72.7109C306.984 75.216 307.319 77.7065 307.84 80.1609C308.66 84.1409 310.16 88.0509 312.72 89.5209Z"
        fill="#E4897B" />
    <path opacity="0.2"
        d="M307.83 80.1312C307.06 84.6312 305.09 89.8112 300.17 90.9812C301.93 88.5712 300.91 85.6412 299.48 82.9812L306.87 72.7012C307.002 75.1985 307.323 77.6823 307.83 80.1312Z"
        fill="black" />
    <path
        d="M285.77 68.5904C285.47 71.3704 287 76.6604 290.31 74.1804C293.62 71.7004 286.29 63.8004 285.77 68.5904Z"
        style="fill: var(--darker)" />
    <path
        d="M305.34 68.3508C307.09 75.0008 308.46 78.8008 306.25 83.2008C302.94 89.8208 293.87 89.4208 290.16 83.4108C286.82 78.0008 284.52 68.0408 290.07 63.4108C291.3 62.3823 292.771 61.6825 294.344 61.3769C295.918 61.0713 297.544 61.1699 299.069 61.6634C300.595 62.1569 301.97 63.0292 303.067 64.1987C304.163 65.3682 304.946 66.7968 305.34 68.3508Z"
        fill="#E4897B" />
    <path
        d="M299.89 65.6408L298.39 58.1208C298.39 58.1208 306.27 55.9208 306.74 60.1208C311.61 61.4308 311.87 71.6008 306.59 76.1208C302.81 74.1808 301 65.0008 301 65.0008C300.63 65.1908 300.27 65.4108 299.89 65.6408Z"
        style="fill: var(--darker)" />
    <path
        d="M309.65 73.0014C309.657 73.8544 309.494 74.7003 309.172 75.49C308.849 76.2797 308.372 76.9973 307.77 77.6014C306.15 79.2114 304.2 78.0214 303.71 75.9114C303.27 74.0114 303.58 70.9114 305.71 70.0714C306.167 69.9203 306.654 69.8815 307.13 69.9583C307.605 70.0351 308.055 70.2252 308.441 70.5126C308.828 70.8 309.139 71.1761 309.35 71.6093C309.56 72.0425 309.663 72.52 309.65 73.0014Z"
        fill="#E4897B" />
    <path
        d="M296 73.3412C296.18 73.8712 296 74.3412 295.69 74.5012C295.38 74.6612 294.91 74.2712 294.74 73.7412C294.57 73.2112 294.74 72.6912 295.05 72.5812C295.36 72.4712 295.83 72.8112 296 73.3412Z"
        style="fill: var(--darker)" />
    <path
        d="M290 75.2611C290.18 75.7911 290 76.3111 289.69 76.4311C289.38 76.5511 288.91 76.2011 288.74 75.6711C288.57 75.1411 288.74 74.6111 289.05 74.5011C289.36 74.3911 289.81 74.7311 290 75.2611Z"
        style="fill: var(--darker)" />
    <path
        d="M292 74.9199C291.856 76.6976 291.469 78.4472 290.85 80.1199C291.299 80.2471 291.769 80.279 292.23 80.2136C292.692 80.1481 293.135 79.9868 293.53 79.7399L292 74.9199Z"
        fill="#DE5753" />
    <path
        d="M297 80.8599C296.78 80.9653 296.553 81.0555 296.32 81.1299C296.3 81.136 296.278 81.138 296.257 81.1357C296.236 81.1335 296.216 81.1271 296.197 81.1168C296.178 81.1066 296.162 81.0927 296.149 81.0761C296.135 81.0594 296.126 81.0403 296.12 81.0199C296.107 80.9787 296.11 80.9341 296.128 80.8951C296.147 80.8561 296.18 80.8256 296.22 80.8099C296.886 80.6161 297.497 80.2666 298.001 79.7901C298.505 79.3137 298.889 78.724 299.12 78.0699C299.126 78.0494 299.135 78.0303 299.149 78.0137C299.162 77.997 299.178 77.9832 299.197 77.9729C299.216 77.9627 299.236 77.9563 299.257 77.954C299.278 77.9518 299.3 77.9538 299.32 77.9599C299.341 77.9645 299.362 77.9735 299.379 77.9862C299.397 77.9989 299.412 78.0152 299.423 78.0339C299.435 78.0527 299.442 78.0735 299.445 78.0952C299.448 78.1168 299.446 78.1388 299.44 78.1599C299.241 78.7536 298.922 79.2999 298.502 79.7644C298.082 80.229 297.571 80.602 297 80.8599Z"
        style="fill: var(--darker)" />
    <path
        d="M297.23 70.8103C297.18 70.8393 297.123 70.8546 297.065 70.8546C297.007 70.8546 296.95 70.8393 296.9 70.8103C296.566 70.5655 296.18 70.4018 295.772 70.3324C295.364 70.2629 294.946 70.2896 294.55 70.4103C294.51 70.4292 294.466 70.4397 294.421 70.4412C294.376 70.4426 294.332 70.435 294.29 70.4187C294.249 70.4025 294.211 70.3779 294.179 70.3466C294.147 70.3153 294.122 70.2778 294.105 70.2365C294.088 70.1952 294.08 70.1508 294.08 70.1062C294.081 70.0615 294.091 70.0174 294.109 69.9767C294.127 69.9359 294.154 69.8992 294.186 69.8689C294.219 69.8386 294.258 69.8153 294.3 69.8003C294.802 69.6325 295.337 69.5885 295.859 69.6721C296.381 69.7556 296.876 69.9643 297.3 70.2803C297.336 70.3036 297.367 70.3338 297.391 70.3692C297.415 70.4045 297.432 70.4444 297.44 70.4863C297.448 70.5283 297.448 70.5715 297.44 70.6134C297.431 70.6553 297.414 70.6951 297.39 70.7303C297.345 70.7712 297.29 70.7989 297.23 70.8103Z"
        style="fill: var(--darker)" />
    <path
        d="M286.7 74.0013C286.641 74.0166 286.579 74.0166 286.52 74.0013C286.434 73.9866 286.357 73.9406 286.304 73.8723C286.25 73.8039 286.224 73.718 286.23 73.6313C286.293 73.1154 286.477 72.6217 286.767 72.1907C287.057 71.7596 287.446 71.4034 287.9 71.1513C287.98 71.1165 288.07 71.1137 288.152 71.1435C288.234 71.1733 288.301 71.2334 288.34 71.3113C288.378 71.3896 288.384 71.4798 288.356 71.5622C288.328 71.6446 288.268 71.7126 288.19 71.7513C287.823 71.9493 287.512 72.2361 287.285 72.5855C287.058 72.9349 286.922 73.3358 286.89 73.7513C286.88 73.8049 286.858 73.8554 286.825 73.8988C286.792 73.9422 286.749 73.9773 286.7 74.0013Z"
        style="fill: var(--darker)" />
    <path
        d="M301 65.0005C301 65.0005 288.62 71.9005 283.2 68.6605C277.78 65.4205 283.2 62.6605 283.2 62.6605C283.2 62.6605 281.49 64.5605 283.1 65.5105C283.1 65.5105 283.46 60.1805 288.1 58.5105C287.744 58.9617 287.493 59.4865 287.365 60.047C287.237 60.6074 287.235 61.1894 287.36 61.7505C289.867 59.8125 292.742 58.4041 295.81 57.6105C301.13 56.0605 315.45 57.0705 301 65.0005Z"
        style="fill: var(--darker)" />
    <path
        d="M301.74 96.1497C301.74 96.1497 303.8 98.0197 306.15 99.8297C308.97 97.9497 315.52 93.0397 314.73 89.3197C314.18 88.3197 311.24 87.9297 311.24 87.9297C311.24 87.9297 308.61 92.3497 301.74 96.1497Z"
        style="fill: var(--primary)" />
    <path
        d="M301.74 96.1506C300.402 97.5182 299.267 99.0707 298.37 100.761C295.98 99.5906 296.26 92.4706 296.98 91.6006C298.066 90.8083 299.336 90.3058 300.67 90.1406C300.344 91.1537 300.272 92.231 300.458 93.2786C300.645 94.3262 301.085 95.3122 301.74 96.1506Z"
        style="fill: var(--primary)" />
    <g opacity="0.5">
        <path
            d="M301.74 96.1497C301.74 96.1497 303.8 98.0197 306.15 99.8297C308.97 97.9497 315.52 93.0397 314.73 89.3197C314.18 88.3197 311.24 87.9297 311.24 87.9297C311.24 87.9297 308.61 92.3497 301.74 96.1497Z"
            fill="white" />
        <path
            d="M301.74 96.1506C300.402 97.5182 299.267 99.0707 298.37 100.761C295.98 99.5906 296.26 92.4706 296.98 91.6006C298.066 90.8083 299.336 90.3058 300.67 90.1406C300.344 91.1537 300.272 92.231 300.458 93.2786C300.645 94.3262 301.085 95.3122 301.74 96.1506Z"
            fill="white" />
    </g>
    <path
        d="M314.73 89.32C315.131 98.4674 316.332 107.562 318.32 116.5C321.04 128.62 325.79 142.19 334.09 151.3C334.09 151.3 337.96 160.18 336.7 167.96C336.7 167.96 339.23 166.96 339.7 165.49C340.17 164.02 332.85 146.42 331.07 133.04C329.29 119.66 328.28 89.2799 328.28 89.2799C325.24 88.8482 322.164 88.7309 319.1 88.9299C317.8 88.9999 316.32 89.14 314.73 89.32Z"
        style="fill: var(--darker)" />
    <path opacity="0.2"
        d="M339.74 165.52C339.23 166.96 336.74 168 336.74 168C338 160.21 334.14 151.34 334.14 151.34C333.61 150.76 333.14 150.16 332.59 149.55C327.93 143.81 324.49 136.65 321.95 129.27C320.516 125.095 319.32 120.841 318.37 116.53C318.26 116.06 318.17 115.6 318.06 115.14C316.288 106.754 315.191 98.2405 314.78 89.6798C314.78 89.4698 314.78 89.3598 314.78 89.3598C316.38 89.1798 317.86 89.0698 319.21 88.9998C322.271 88.7999 325.344 88.9205 328.38 89.3598C328.38 89.3598 328.62 96.4198 329.06 105.22C329.06 105.36 329.06 105.48 329.06 105.62C329.19 108.15 329.34 110.8 329.49 113.48C329.79 118.48 330.14 123.48 330.56 127.79C330.74 129.74 330.94 131.55 331.14 133.12C332.89 146.46 340.25 164.1 339.74 165.52Z"
        fill="white" />
    <path
        d="M314.73 89.3212C315.131 98.4686 316.332 107.563 318.32 116.501L323.18 97.1012L318.04 96.6112L323.18 93.6112L319.18 88.9512C317.8 89.0012 316.32 89.1412 314.73 89.3212Z"
        style="fill: var(--darker)" />
    <path
        d="M291.43 170L292.75 170.95C291.501 155.156 291.12 139.306 291.61 123.47C291.61 122.16 291.7 120.9 291.75 119.7C292.75 96.7501 296.29 92.5801 296.52 92.3301L293.19 93.4601L287.19 95.5401C285.38 115.12 291.43 170 291.43 170Z"
        style="fill: var(--darker)" />
    <path opacity="0.2"
        d="M291.43 170L292.75 170.95C291.501 155.156 291.12 139.306 291.61 123.47C291.61 122.16 291.7 120.9 291.75 119.7C292.75 96.7501 296.29 92.5801 296.52 92.3301L293.19 93.4601L287.19 95.5401C285.38 115.12 291.43 170 291.43 170Z"
        fill="white" />
    <path
        d="M292.94 100.37L289.13 102.75C289.13 102.75 290.13 113.98 291.75 119.7C292.75 96.7501 296.29 92.5801 296.52 92.3301L293.19 93.4601C291.36 95.1548 289.828 97.1461 288.66 99.3501L292.94 100.37Z"
        style="fill: var(--darker)" />
    <path opacity="0.2"
        d="M327.25 105.91C327.476 108.542 328.224 111.101 329.45 113.44C329.3 110.77 329.15 108.11 329.02 105.58C328.413 105.56 327.809 105.673 327.25 105.91Z"
        fill="black" />
    <path opacity="0.2"
        d="M308.74 209.381L312.89 186.821L312.09 174.891C312.09 174.891 306.41 195.591 308.74 209.381Z"
        fill="black" />
    <path opacity="0.1"
        d="M330.53 127.751C330.09 127.917 329.65 128.067 329.21 128.201C326.835 128.878 324.38 129.237 321.91 129.271C320.222 129.316 318.533 129.222 316.86 128.991C298.93 126.261 298.39 122.581 298.39 122.581C298.39 122.581 309.62 121.831 314.95 118.581C316.236 117.688 317.284 116.493 318 115.101C321.38 109.291 323.18 99.3105 323.18 99.3105C323.18 99.3105 324.56 100.541 326.46 102.481C327.24 103.271 328.1 104.181 328.99 105.181C328.99 105.321 328.99 105.441 328.99 105.581C329.12 108.111 329.27 110.761 329.42 113.441C329.76 118.441 330.11 123.471 330.53 127.751Z"
        fill="black" />
    <path
        d="M297.32 116.701L297.52 121.251C296.02 125.791 290.52 122.861 290.52 122.861L287.3 122.511C286.737 122.416 286.226 122.123 285.859 121.685C285.493 121.247 285.294 120.692 285.3 120.121L285.13 116.941C285.059 116.291 285.243 115.638 285.644 115.121C286.045 114.604 286.632 114.263 287.28 114.171L290.1 114.001C290.923 113.951 291.745 114.109 292.49 114.461L297.32 116.701Z"
        fill="#E4897B" />
    <path
        d="M328.33 89.3203C339.06 92.3203 330.18 125.32 326.25 126.4C318.8 128.48 296.52 124.4 296.52 124.4V115.7C296.52 115.7 317.97 117.8 319.78 117C322.12 116 323.25 103.5 323.78 97.6203C323.864 95.9835 324.317 94.3868 325.105 92.9496C325.893 91.5124 326.995 90.2717 328.33 89.3203Z"
        style="fill: var(--darker)" />
    <path opacity="0.2"
        d="M328.33 89.3203C339.06 92.3203 330.18 125.32 326.25 126.4C318.8 128.48 296.52 124.4 296.52 124.4V115.7C296.52 115.7 317.97 117.8 319.78 117C322.12 116 323.25 103.5 323.78 97.6203C323.864 95.9835 324.317 94.3868 325.105 92.9496C325.893 91.5124 326.995 90.2717 328.33 89.3203Z"
        fill="white" />
    <path
        d="M286.7 135.001L269.25 136.601C268.904 136.617 268.562 136.524 268.272 136.336C267.981 136.148 267.757 135.873 267.63 135.551L258.28 110.321C258.221 110.169 258.2 110.005 258.219 109.843C258.239 109.681 258.297 109.526 258.39 109.391C258.458 109.287 258.548 109.198 258.653 109.131C258.758 109.064 258.876 109.019 259 109.001L276.48 107.401C276.826 107.389 277.168 107.485 277.458 107.675C277.748 107.864 277.972 108.139 278.1 108.461L287.44 133.691C287.514 133.823 287.553 133.972 287.552 134.123C287.552 134.274 287.513 134.423 287.439 134.555C287.364 134.686 287.257 134.797 287.128 134.875C286.998 134.953 286.851 134.997 286.7 135.001Z"
        style="fill: var(--darker)" />
    <path opacity="0.6"
        d="M286.7 135.001L269.25 136.601C268.904 136.617 268.562 136.524 268.272 136.336C267.981 136.148 267.757 135.873 267.63 135.551L258.28 110.321C258.221 110.169 258.2 110.005 258.219 109.843C258.239 109.681 258.297 109.526 258.39 109.391C258.458 109.287 258.548 109.198 258.653 109.131C258.758 109.064 258.876 109.019 259 109.001L276.48 107.401C276.826 107.389 277.168 107.485 277.458 107.675C277.748 107.864 277.972 108.139 278.1 108.461L287.44 133.691C287.514 133.823 287.553 133.972 287.552 134.123C287.552 134.274 287.513 134.423 287.439 134.555C287.364 134.686 287.257 134.797 287.128 134.875C286.998 134.953 286.851 134.997 286.7 135.001Z"
        fill="white" />
    <path opacity="0.2"
        d="M286.66 135L269.21 136.6C268.864 136.616 268.522 136.523 268.232 136.335C267.941 136.147 267.717 135.872 267.59 135.55L258.24 110.32C258.181 110.168 258.16 110.004 258.179 109.842C258.199 109.68 258.257 109.525 258.35 109.39L275.79 107.79C276.137 107.777 276.479 107.872 276.769 108.062C277.06 108.252 277.284 108.527 277.41 108.85L286.76 134.08C286.819 134.23 286.84 134.392 286.823 134.553C286.805 134.713 286.75 134.866 286.66 135Z"
        fill="white" />
    <path opacity="0.2"
        d="M272.92 121.59C272.969 121.94 272.918 122.295 272.772 122.616C272.626 122.937 272.392 123.211 272.098 123.404C271.803 123.597 271.459 123.703 271.107 123.708C270.754 123.713 270.407 123.619 270.107 123.435C269.806 123.25 269.564 122.985 269.409 122.668C269.253 122.352 269.191 121.998 269.229 121.647C269.267 121.297 269.404 120.964 269.624 120.689C269.843 120.413 270.137 120.206 270.47 120.09C270.73 120.024 271 120.01 271.265 120.049C271.53 120.089 271.784 120.182 272.013 120.322C272.241 120.462 272.439 120.646 272.595 120.864C272.751 121.082 272.861 121.329 272.92 121.59Z"
        fill="black" />
    <path
        d="M261 124.171L262.87 128.251C266.12 132.201 269.29 129.181 269.29 129.181L271.75 128.651C272.59 128.461 272.82 127.501 272.31 126.361L271 123.511C270.746 122.896 270.336 122.359 269.809 121.952C269.283 121.545 268.659 121.282 268 121.191L265.64 121.251C265.013 121.242 264.4 121.442 263.9 121.821L261 124.171Z"
        fill="#E4897B" />
    <path
        d="M83.05 164.001L82.31 162.191C82.1729 161.854 81.9568 161.556 81.6801 161.321C81.4033 161.086 81.074 160.921 80.72 160.841L77.38 160.051C76.7198 159.897 76.0324 159.903 75.375 160.068C74.7175 160.233 74.109 160.553 73.6 161.001L72.96 161.561C73.96 164.651 77.37 167.221 77.37 167.221L78.25 168.071C78.4258 168.249 78.6352 168.39 78.8661 168.487C79.097 168.583 79.3448 168.633 79.595 168.633C79.8452 168.633 80.093 168.583 80.3239 168.487C80.5548 168.39 80.7642 168.249 80.94 168.071L82.63 166.341C82.919 166.033 83.1125 165.648 83.1871 165.233C83.2616 164.818 83.214 164.389 83.05 164.001Z"
        fill="#EBB376" />
    <path
        d="M43.1 129.841C47.92 137.131 52.49 144.571 56.96 152.081L55.2 150.661C58.71 152.111 62.2 153.661 65.68 155.181C68.68 156.581 73.08 158.571 76.03 160.101C76.4333 160.339 76.74 160.712 76.8965 161.154C77.0529 161.596 77.0493 162.078 76.8862 162.518C76.723 162.957 76.4108 163.325 76.0039 163.558C75.597 163.791 75.1214 163.873 74.66 163.791C67.37 161.991 59.83 159.701 52.71 157.381C51.969 157.135 51.3409 156.631 50.94 155.961C45.94 148.781 41.07 141.541 36.42 134.141C35.9906 133.261 35.899 132.253 36.1625 131.31C36.4261 130.367 37.0265 129.553 37.8499 129.023C38.6733 128.493 39.6626 128.284 40.6303 128.434C41.5979 128.585 42.4766 129.085 43.1 129.841Z"
        fill="#E9B376" />
    <path
        d="M51.94 141.999L43 146.109L42 145.109L38.17 141.279L37.64 140.749L41.11 123.539C47.33 127.449 51.94 141.999 51.94 141.999Z"
        style="fill: var(--darker)" />
    <path opacity="0.2"
        d="M42 145.129L38.17 141.299C38.9017 138.601 40.3945 136.171 42.47 134.299C43.2191 137.892 43.0575 141.615 42 145.129Z"
        fill="black" />
    <path
        d="M14.92 125.451C13.55 130.171 13.06 134.271 12.1 137.661C10.4 143.661 6.30001 159.251 4.23001 162.921L31.66 164.271C36 156.891 43 139.001 44 136.641C44.7729 134.825 45.086 132.846 44.9116 130.88C44.7372 128.914 44.0806 127.022 43 125.371C42.4926 124.658 41.8588 124.044 41.13 123.561C40.05 122.851 38.91 122.121 37.79 121.461C34.167 119.487 30.1573 118.326 26.04 118.061C18.54 118.051 16 121.711 14.92 125.451Z"
        style="fill: var(--darker)" />
    <path
        d="M53.84 303.701L58.3 302.481C56.66 280.011 52.25 252.901 48.51 232.571C47.92 229.381 47.35 226.371 46.81 223.571C46.54 222.241 46.3 220.951 46.05 219.721C44.86 213.631 43.86 208.811 43.24 205.841C42.78 203.671 42.52 202.471 42.52 202.471L26.52 207.121L27.85 211.121L32.26 224.441L32.76 225.971L35.67 234.771L40.62 249.771C41.29 272.701 53.84 303.701 53.84 303.701Z"
        fill="#EBB376" />
    <path
        d="M15 302.61L19.6 302.17C22.01 277.8 22.1 247.46 21.78 226.38C21.72 223.11 21.66 220.06 21.6 217.29C21.6 217.15 21.6 217.02 21.6 216.88C21.47 211.39 21.33 207.03 21.23 204.27L21.09 200.92L4.51001 202.77L5.51001 209.67L7.00001 219.81L7.30001 221.81L8.30001 228.72L11.07 247.24C7.89001 269.92 15 302.61 15 302.61Z"
        fill="#EBB376" />
    <path opacity="0.2"
        d="M7.00001 219.81L21.57 217.29C21.57 217.15 21.57 217.02 21.57 216.88C21.44 211.39 21.3 207.03 21.2 204.27L5.51001 209.67L7.00001 219.81Z"
        fill="black" />
    <path opacity="0.2"
        d="M44.84 213.62L29.51 216.22L27.84 211.15L43.24 205.83C43.63 207.72 44.19 210.37 44.84 213.62Z"
        fill="black" />
    <path
        d="M5.12 159C5.12 159 -4.82 182.23 4.47 215.91L22.58 213.84V196.48L26.5 213.21L44.66 209.56C39.08 182.23 34 169.83 34 169.83L33.09 160.57L5.12 159Z"
        style="fill: var(--primary)" />
    <path d="M13.97 165.231L28.93 165.841V161.211L13.97 160.561V165.231Z"
        style="fill: var(--darker)" />
    <path d="M12.65 160.509L5.14 160.189L4.47 164.849L12.65 165.179V160.509Z"
        style="fill: var(--darker)" />
    <path d="M30.08 161.25V165.89L33.44 166.03V161.4L30.08 161.25Z" style="fill: var(--darker)" />
    <path
        d="M27.55 161.551C27.1955 161.188 26.7166 160.974 26.21 160.951L22.68 160.801C22.4752 160.78 22.2682 160.802 22.0727 160.866C21.8772 160.931 21.6975 161.036 21.5454 161.175C21.3934 161.314 21.2724 161.483 21.1905 161.672C21.1086 161.861 21.0675 162.065 21.07 162.271V164.431C21.0817 164.922 21.2865 165.389 21.64 165.731C21.9579 166.057 22.3777 166.265 22.83 166.321H22.99L26.52 166.461C26.724 166.48 26.9299 166.457 27.1242 166.392C27.3185 166.327 27.4969 166.221 27.6479 166.083C27.7988 165.944 27.9188 165.775 28.0002 165.587C28.0815 165.399 28.1223 165.196 28.12 164.991V162.841C28.1015 162.354 27.8976 161.892 27.55 161.551ZM26.44 165.611L22.91 165.471C22.6622 165.46 22.4286 165.353 22.26 165.171C22.1729 165.09 22.1031 164.993 22.0549 164.885C22.0068 164.776 21.9813 164.659 21.98 164.541V162.381C21.9795 162.281 21.9999 162.183 22.0399 162.092C22.0799 162.001 22.1385 161.919 22.2121 161.852C22.2856 161.785 22.3724 161.735 22.4667 161.703C22.5611 161.672 22.661 161.661 22.76 161.671L26.29 161.821H26.37C26.5866 161.852 26.7869 161.954 26.94 162.111C27.0258 162.192 27.094 162.289 27.1405 162.398C27.1869 162.506 27.2106 162.623 27.21 162.741V163.071C27.1671 163.062 27.1229 163.062 27.08 163.071L26.08 163.021C26.0054 163.013 25.9301 163.022 25.8594 163.047C25.7887 163.072 25.7243 163.112 25.6708 163.164C25.6174 163.217 25.5761 163.28 25.5501 163.351C25.524 163.421 25.5137 163.496 25.52 163.571C25.5424 163.731 25.6191 163.879 25.7373 163.99C25.8556 164.101 26.0083 164.169 26.17 164.181L27.17 164.231V164.941C27.1661 165.033 27.1442 165.123 27.1054 165.206C27.0666 165.29 27.0117 165.365 26.9439 165.427C26.8761 165.489 26.7967 165.538 26.7102 165.569C26.6238 165.601 26.5319 165.615 26.44 165.611Z"
        fill="white" />
    <path
        d="M12.8 301.67C12.8 301.1 19.92 301.55 19.92 301.55C19.92 301.55 24.29 305.99 28.53 306.99C32.77 307.99 30.41 310.54 25.66 310.54H13.92C10.55 310.54 12.66 307.67 12.8 301.67Z"
        style="fill: var(--darker)" />
    <path
        d="M23.65 303.37C22.6259 303.239 21.6316 302.935 20.71 302.47C20.6859 302.459 20.6652 302.441 20.65 302.42C20.6355 302.374 20.6355 302.325 20.65 302.28C20.65 302.2 21.28 300.55 22.24 300.15C22.3843 300.083 22.5412 300.049 22.7 300.049C22.8588 300.049 23.0158 300.083 23.16 300.15C23.48 300.3 23.64 300.5 23.63 300.75C23.62 301 23.1 301.5 22.52 301.75C23.0564 301.661 23.607 301.723 24.11 301.93C24.2035 301.978 24.2857 302.046 24.3512 302.129C24.4167 302.212 24.464 302.307 24.49 302.41C24.5429 302.538 24.555 302.68 24.5246 302.816C24.4942 302.952 24.4228 303.076 24.32 303.17C24.128 303.315 23.8901 303.386 23.65 303.37ZM21.36 302.37C22.36 302.81 23.71 303.2 24.04 302.93C24.04 302.93 24.16 302.83 24.04 302.55C24.008 302.444 23.9364 302.354 23.84 302.3C23.0239 302.092 22.1671 302.11 21.36 302.35V302.37ZM22.63 300.37C22.5304 300.371 22.432 300.392 22.34 300.43C21.776 300.809 21.3484 301.359 21.12 302C22.18 301.6 23.19 301 23.21 300.73C23.21 300.63 23.06 300.54 22.96 300.49C22.8586 300.433 22.746 300.399 22.63 300.39V300.37Z"
        style="fill: var(--primary)" />
    <path
        d="M52.57 301.67C52.57 301.1 59.69 301.55 59.69 301.55C59.69 301.55 64.06 305.99 68.31 306.99C72.56 307.99 70.18 310.54 65.44 310.54H53.7C50.32 310.54 52.43 307.67 52.57 301.67Z"
        style="fill: var(--darker)" />
    <path
        d="M63.43 303.37C62.386 303.243 61.3713 302.939 60.43 302.47L60.37 302.42C60.3601 302.398 60.3549 302.374 60.3549 302.35C60.3549 302.326 60.3601 302.302 60.37 302.28C60.37 302.2 60.99 300.55 61.95 300.15C62.0943 300.083 62.2512 300.049 62.41 300.049C62.5688 300.049 62.7257 300.083 62.87 300.15C63.2 300.3 63.35 300.5 63.34 300.75C63.33 301 62.81 301.5 62.23 301.75C62.7698 301.663 63.323 301.725 63.83 301.93C63.9235 301.978 64.0057 302.046 64.0712 302.129C64.1367 302.212 64.184 302.307 64.21 302.41C64.2575 302.539 64.2668 302.68 64.2366 302.815C64.2065 302.949 64.1382 303.073 64.04 303.17C63.8642 303.302 63.6498 303.372 63.43 303.37ZM61.13 302.37C62.18 302.81 63.48 303.2 63.82 302.93C63.82 302.93 63.94 302.83 63.82 302.55C63.8057 302.496 63.7805 302.447 63.7461 302.404C63.7117 302.361 63.6688 302.325 63.62 302.3C62.8008 302.091 61.9402 302.108 61.13 302.35V302.37ZM62.41 300.37C62.3102 300.369 62.2115 300.39 62.12 300.43C61.5504 300.803 61.1212 301.355 60.9 302C61.9 301.6 62.97 301 62.99 300.73C62.99 300.63 62.83 300.54 62.73 300.49C62.6317 300.434 62.5226 300.4 62.41 300.39V300.37Z"
        style="fill: var(--primary)" />
    <path opacity="0.2"
        d="M22.58 196.48C25.68 190.08 27.84 184.82 27.84 184.82C27.84 184.82 28.52 201.01 26.5 213.21L22.58 196.48Z"
        fill="black" />
    <path d="M83.3638 151.885L86.5397 162.312L104.275 156.91L101.099 146.483L83.3638 151.885Z"
        style="fill: var(--darker)" />
    <path opacity="0.1"
        d="M83.3638 151.885L86.5397 162.312L104.275 156.91L101.099 146.483L83.3638 151.885Z"
        fill="white" />
    <path opacity="0.3"
        d="M103.545 154.538L85.8003 159.943L86.5258 162.325L104.271 156.92L103.545 154.538Z"
        fill="black" />
    <path
        d="M136.319 174.612C155.017 173.769 169.492 157.928 168.649 139.23C167.807 120.532 151.966 106.058 133.268 106.9C114.57 107.743 100.095 123.583 100.938 142.281C101.78 160.979 117.621 175.454 136.319 174.612Z"
        style="fill: var(--primary)" />
    <path opacity="0.8"
        d="M136.319 174.612C155.017 173.769 169.492 157.928 168.649 139.23C167.807 120.532 151.966 106.058 133.268 106.9C114.57 107.743 100.095 123.583 100.938 142.281C101.78 160.979 117.621 175.454 136.319 174.612Z"
        fill="white" />
    <path opacity="0.2"
        d="M169 136.391V152.441H110.33V117.311C114.338 113.121 119.36 110.038 124.91 108.361C126.1 108.002 127.309 107.705 128.53 107.471H141C147.083 108.613 152.738 111.4 157.349 115.529C161.961 119.657 165.354 124.97 167.16 130.891C167.637 132.463 168.001 134.067 168.25 135.691L169 136.391Z"
        fill="black" />
    <path opacity="0.4"
        d="M169.02 136.39V152.44H110.33V146.32L129.09 130.86L139.67 140.56L157.51 125.49L168.29 135.69V135.7L169.02 136.39Z"
        fill="white" />
    <path opacity="0.4"
        d="M129 120.48C129.002 121.537 128.69 122.571 128.104 123.451C127.518 124.331 126.684 125.017 125.708 125.422C124.732 125.827 123.657 125.934 122.621 125.728C121.584 125.523 120.631 125.014 119.884 124.266C119.137 123.519 118.628 122.567 118.422 121.53C118.216 120.493 118.323 119.418 118.728 118.442C119.134 117.466 119.82 116.632 120.699 116.046C121.579 115.46 122.613 115.148 123.67 115.15C124.37 115.15 125.063 115.288 125.71 115.556C126.356 115.824 126.944 116.217 127.439 116.712C127.934 117.206 128.326 117.794 128.594 118.441C128.862 119.087 129 119.78 129 120.48Z"
        fill="white" />
    <path opacity="0.2"
        d="M160.65 162.66C159.917 163.536 159.136 164.371 158.31 165.16H110.31V162.66H160.65Z"
        fill="black" />
    <path opacity="0.2"
        d="M153 169.359C151.494 170.32 149.912 171.156 148.27 171.859H121.27C119.635 171.156 118.059 170.32 116.56 169.359H153Z"
        fill="black" />
    <path
        d="M108 161.35L107.92 161.42C107.55 160.94 107.19 160.42 106.85 159.95C114.34 153.71 146.03 155 151.32 159.17C151.413 159.244 151.491 159.335 151.549 159.439C151.607 159.542 151.644 159.656 151.658 159.774C151.672 159.892 151.663 160.012 151.63 160.126C151.598 160.24 151.544 160.347 151.47 160.44C151.396 160.534 151.305 160.611 151.202 160.669C151.098 160.727 150.984 160.764 150.866 160.778C150.748 160.792 150.629 160.783 150.514 160.751C150.4 160.718 150.293 160.664 150.2 160.59C145.59 157 114.7 155.75 108 161.35Z"
        style="fill: var(--primary)" />
    <path
        d="M155.53 159.53C154.84 163.78 143.23 167.53 132.74 169.28C128.655 169.963 124.522 170.324 120.38 170.36C119.63 170.36 118.9 170.36 118.18 170.31C117.64 170.01 117.11 169.7 116.59 169.36C116.07 169.02 115.48 168.63 114.94 168.23C120.78 168.802 126.671 168.55 132.44 167.48C144.7 165.48 153.36 161.6 153.74 159.24C153.86 158.52 152.92 157.86 152.12 157.43C151.908 157.316 151.75 157.123 151.679 156.893C151.608 156.663 151.63 156.414 151.74 156.2C151.854 155.988 152.048 155.831 152.279 155.761C152.509 155.692 152.758 155.717 152.97 155.83C155.39 157.1 155.7 158.55 155.53 159.53Z"
        style="fill: var(--primary)" />
    <path
        d="M164.27 124.06L154.84 124.26C154.603 124.257 154.376 124.163 154.206 123.998C154.037 123.832 153.938 123.607 153.93 123.37C153.929 123.25 153.951 123.132 153.995 123.021C154.04 122.91 154.106 122.809 154.189 122.723C154.273 122.638 154.373 122.57 154.483 122.523C154.592 122.476 154.71 122.451 154.83 122.45L163.19 122.26C163.56 122.85 163.93 123.45 164.27 124.06Z"
        style="fill: var(--primary)" />
    <path
        d="M166 127.509H160.86C160.619 127.509 160.387 127.414 160.217 127.243C160.046 127.072 159.95 126.841 159.95 126.599C159.95 126.358 160.046 126.127 160.217 125.956C160.387 125.785 160.619 125.689 160.86 125.689H165.16C165.43 126.279 165.71 126.889 166 127.509Z"
        style="fill: var(--primary)" />
    <path
        d="M124.83 108.64C117.945 110.737 111.835 114.828 107.275 120.396C102.715 125.964 99.9083 132.76 99.2103 139.923C98.5123 147.087 99.9542 154.296 103.354 160.64C106.753 166.984 111.958 172.178 118.309 175.564C124.66 178.95 131.873 180.377 139.035 179.663C146.197 178.95 152.986 176.129 158.545 171.557C164.104 166.985 168.182 160.867 170.263 153.978C172.345 147.088 172.337 139.735 170.24 132.85C167.428 123.618 161.065 115.881 152.549 111.341C144.033 106.801 134.062 105.829 124.83 108.64ZM126.09 112.77C132.161 110.919 138.644 110.91 144.72 112.744C150.796 114.579 156.191 118.174 160.223 123.076C164.255 127.977 166.742 133.964 167.37 140.28C167.998 146.596 166.739 152.956 163.752 158.555C160.764 164.155 156.183 168.743 150.588 171.738C144.992 174.733 138.634 176.001 132.317 175.382C126.001 174.763 120.01 172.284 115.103 168.259C110.196 164.234 106.593 158.843 104.75 152.77C102.282 144.636 103.143 135.855 107.144 128.355C111.145 120.855 117.959 115.25 126.09 112.77Z"
        style="fill: var(--darker)" />
    <path opacity="0.1"
        d="M124.83 108.64C117.945 110.737 111.835 114.828 107.275 120.396C102.715 125.964 99.9083 132.76 99.2103 139.923C98.5123 147.087 99.9542 154.296 103.354 160.64C106.753 166.984 111.958 172.178 118.309 175.564C124.66 178.95 131.873 180.377 139.035 179.663C146.197 178.95 152.986 176.129 158.545 171.557C164.104 166.985 168.182 160.867 170.263 153.978C172.345 147.088 172.337 139.735 170.24 132.85C167.428 123.618 161.065 115.881 152.549 111.341C144.033 106.801 134.062 105.829 124.83 108.64ZM126.09 112.77C132.161 110.919 138.644 110.91 144.72 112.744C150.796 114.579 156.191 118.174 160.223 123.076C164.255 127.977 166.742 133.964 167.37 140.28C167.998 146.596 166.739 152.956 163.752 158.555C160.764 164.155 156.183 168.743 150.588 171.738C144.992 174.733 138.634 176.001 132.317 175.382C126.001 174.763 120.01 172.284 115.103 168.259C110.196 164.234 106.593 158.843 104.75 152.77C102.282 144.636 103.143 135.855 107.144 128.355C111.145 120.855 117.959 115.25 126.09 112.77Z"
        fill="white" />
    <path
        d="M123.87 105.479C116.985 107.576 110.876 111.668 106.316 117.237C101.756 122.806 98.9498 129.602 98.2526 136.766C97.5555 143.93 98.9984 151.139 102.399 157.483C105.8 163.827 111.005 169.02 117.357 172.405C123.709 175.79 130.922 177.215 138.084 176.501C145.247 175.786 152.036 172.964 157.594 168.39C163.152 163.817 167.229 157.698 169.309 150.807C171.389 143.917 171.379 136.564 169.28 129.679C166.466 120.449 160.102 112.714 151.586 108.176C143.07 103.638 133.101 102.668 123.87 105.479ZM125.12 109.599C131.19 107.746 137.674 107.735 143.751 109.568C149.827 111.401 155.224 114.995 159.257 119.895C163.29 124.796 165.779 130.783 166.409 137.099C167.038 143.415 165.78 149.775 162.794 155.376C159.807 160.976 155.227 165.565 149.631 168.561C144.036 171.558 137.678 172.827 131.361 172.208C125.044 171.59 119.053 169.112 114.145 165.087C109.237 161.062 105.634 155.672 103.79 149.599C101.321 141.466 102.181 132.686 106.18 125.186C110.179 117.687 116.991 112.081 125.12 109.599Z"
        style="fill: var(--darker)" />
    <path opacity="0.3"
        d="M123.87 105.479C116.985 107.576 110.876 111.668 106.316 117.237C101.756 122.806 98.9498 129.602 98.2526 136.766C97.5555 143.93 98.9984 151.139 102.399 157.483C105.8 163.827 111.005 169.02 117.357 172.405C123.709 175.79 130.922 177.215 138.084 176.501C145.247 175.786 152.036 172.964 157.594 168.39C163.152 163.817 167.229 157.698 169.309 150.807C171.389 143.917 171.379 136.564 169.28 129.679C166.466 120.449 160.102 112.714 151.586 108.176C143.07 103.638 133.101 102.668 123.87 105.479ZM125.12 109.599C131.19 107.746 137.674 107.735 143.751 109.568C149.827 111.401 155.224 114.995 159.257 119.895C163.29 124.796 165.779 130.783 166.409 137.099C167.038 143.415 165.78 149.775 162.794 155.376C159.807 160.976 155.227 165.565 149.631 168.561C144.036 171.558 137.678 172.827 131.361 172.208C125.044 171.59 119.053 169.112 114.145 165.087C109.237 161.062 105.634 155.672 103.79 149.599C101.321 141.466 102.181 132.686 106.18 125.186C110.179 117.687 116.991 112.081 125.12 109.599Z"
        fill="white" />
    <path
        d="M26.4 174.939C26.9611 176.784 28.2318 178.33 29.9327 179.238C31.6336 180.145 33.6254 180.34 35.47 179.779L87.74 163.859C88.0412 163.767 88.321 163.616 88.5633 163.415C88.8056 163.214 89.0056 162.966 89.1516 162.687C89.2977 162.408 89.3869 162.103 89.414 161.789C89.4412 161.475 89.4059 161.159 89.31 160.859L86.45 151.479C86.2675 150.879 85.8545 150.376 85.3015 150.08C84.7486 149.783 84.1007 149.719 83.5 149.899L31.23 165.819C30.3128 166.099 29.4598 166.557 28.7201 167.167C27.9804 167.778 27.3686 168.528 26.9198 169.376C26.471 170.223 26.194 171.151 26.1048 172.106C26.0156 173.06 26.1159 174.023 26.4 174.939Z"
        style="fill: var(--darker)" />
    <path opacity="0.3"
        d="M26.4 174.939C26.9611 176.784 28.2318 178.33 29.9327 179.238C31.6336 180.145 33.6254 180.34 35.47 179.779L87.74 163.859C88.0412 163.767 88.321 163.616 88.5633 163.415C88.8056 163.214 89.0056 162.966 89.1516 162.687C89.2977 162.408 89.3869 162.103 89.414 161.789C89.4412 161.475 89.4059 161.159 89.31 160.859L86.45 151.479C86.2675 150.879 85.8545 150.376 85.3015 150.08C84.7486 149.783 84.1007 149.719 83.5 149.899L31.23 165.819C30.3128 166.099 29.4598 166.557 28.7201 167.167C27.9804 167.778 27.3686 168.528 26.9198 169.376C26.471 170.223 26.194 171.151 26.1048 172.106C26.0156 173.06 26.1159 174.023 26.4 174.939Z"
        fill="white" />
    <path opacity="0.3"
        d="M26.14 173.72C26.1823 174.135 26.2695 174.544 26.4 174.94C26.6777 175.854 27.1327 176.703 27.739 177.44C28.3453 178.177 29.0911 178.788 29.9335 179.236C30.7759 179.685 31.6985 179.963 32.6485 180.055C33.5986 180.146 34.5573 180.05 35.47 179.77L87.74 163.85C88.0427 163.761 88.3242 163.611 88.568 163.41C88.8118 163.21 89.0128 162.962 89.1592 162.682C89.3056 162.403 89.3944 162.096 89.4203 161.782C89.4462 161.467 89.4087 161.15 89.31 160.85L88.59 158.48C88.6871 158.781 88.7231 159.098 88.6959 159.413C88.6687 159.728 88.5788 160.034 88.4316 160.313C88.2844 160.593 88.0828 160.84 87.8387 161.04C87.5945 161.241 87.3128 161.39 87.01 161.48L34.75 177.4C33.1114 177.902 31.3482 177.807 29.7725 177.134C28.1967 176.46 26.91 175.251 26.14 173.72Z"
        fill="black" />
    <path opacity="0.3"
        d="M31.68 169.59C31.2786 169.793 30.9436 170.106 30.7144 170.493C30.4851 170.88 30.3713 171.325 30.3863 171.774C30.4013 172.224 30.5444 172.66 30.7988 173.031C31.0533 173.402 31.4084 173.692 31.8224 173.868C32.2365 174.044 32.6921 174.098 33.1357 174.023C33.5793 173.949 33.9924 173.749 34.3263 173.448C34.6602 173.146 34.901 172.756 35.0204 172.322C35.1397 171.889 35.1327 171.43 35 171C34.7426 170.376 34.2501 169.878 33.6289 169.615C33.0077 169.351 32.3077 169.342 31.68 169.59Z"
        fill="black" />
    <path opacity="0.4"
        d="M145.27 120.92C142.07 123.1 141.8 128.25 144.65 132.43C147.5 136.61 152.39 138.24 155.59 136.06C158.79 133.88 159.06 128.73 156.21 124.55C153.36 120.37 148.46 118.75 145.27 120.92Z"
        fill="white" />
    <path opacity="0.4"
        d="M140.25 133.78C139.854 133.916 139.511 134.173 139.269 134.515C139.027 134.856 138.898 135.265 138.901 135.683C138.903 136.102 139.037 136.509 139.283 136.848C139.53 137.186 139.876 137.439 140.273 137.57C140.671 137.702 141.099 137.705 141.499 137.58C141.898 137.455 142.248 137.207 142.5 136.873C142.751 136.538 142.891 136.133 142.9 135.714C142.909 135.296 142.787 134.885 142.55 134.54C142.339 134.141 141.981 133.839 141.553 133.698C141.124 133.556 140.657 133.586 140.25 133.78Z"
        fill="white" />
    <path
        d="M40.41 119.08C39.7355 119.58 39.1155 120.15 38.56 120.78C37.22 122.37 36.66 124.37 38.46 127.03C38.46 127.03 38.99 128.89 35.19 129.74C32.75 121 29.71 119 29.71 119C31.53 118.9 33.41 117.27 35.07 115.24C36.1056 113.949 37.0416 112.582 37.87 111.15C38.27 110.48 38.62 109.84 38.87 109.26L39.18 111.26L40.41 119.08Z"
        fill="#EBB376" />
    <path opacity="0.2"
        d="M40.41 119.079C39.7356 119.58 39.1155 120.149 38.56 120.779C36.9133 119.273 35.707 117.348 35.07 115.209C36.1056 113.919 37.0416 112.551 37.87 111.119C38.32 111.119 38.77 111.199 39.23 111.259L40.41 119.079Z"
        fill="black" />
    <path
        d="M42.17 95.3898C42.17 95.3898 47.08 89.7398 41.17 84.9998C35.26 80.2598 23.68 82.3998 21.54 93.0998C19.4 103.8 22.35 108.32 22.35 108.32C22.35 108.32 22.35 101.51 24.35 99.5198C24.0353 101.246 24.0353 103.014 24.35 104.74C24.94 106.74 24.35 105.46 24.35 105.46C24.35 105.46 26.16 96.9198 34.88 99.3698C43.6 101.82 42.17 95.3898 42.17 95.3898Z"
        style="fill: var(--darker)" />
    <path
        d="M46.94 96.2493C53.41 98.2493 54.44 102.329 52.88 109.139C50.93 117.659 47.27 123.019 39.72 118.769C29.47 112.999 36.19 92.9993 46.94 96.2493Z"
        fill="#EBB376" />
    <path
        d="M48.8 107.5C49.0217 108.626 49.381 109.721 49.87 110.76C49.5983 110.968 49.2747 111.098 48.9344 111.135C48.5941 111.172 48.2501 111.115 47.94 110.97L48.8 107.5Z"
        fill="#D58745" />
    <path
        d="M45 105.769C44.85 106.299 44.44 106.649 44.08 106.549C43.72 106.449 43.56 105.939 43.71 105.399C43.86 104.859 44.27 104.519 44.63 104.619C44.99 104.719 45.15 105.229 45 105.769Z"
        style="fill: var(--darker)" />
    <path d="M44.47 104.601L45.76 104.471C45.76 104.471 44.91 105.291 44.47 104.601Z"
        style="fill: var(--darker)" />
    <path
        d="M51.69 107.519C51.54 108.049 51.13 108.399 50.77 108.299C50.41 108.199 50.25 107.689 50.4 107.149C50.55 106.609 50.96 106.269 51.31 106.369C51.66 106.469 51.84 106.999 51.69 107.519Z"
        style="fill: var(--darker)" />
    <path d="M51.16 106.351L52.45 106.221C52.45 106.221 51.6 107.001 51.16 106.351Z"
        style="fill: var(--darker)" />
    <path
        d="M43.19 101.679C43.1448 101.679 43.1003 101.668 43.0603 101.647C43.0202 101.626 42.9858 101.596 42.96 101.559C42.921 101.496 42.9076 101.421 42.9225 101.348C42.9374 101.276 42.9794 101.212 43.04 101.169C43.5535 100.885 44.126 100.723 44.7124 100.697C45.2988 100.671 45.8833 100.781 46.42 101.019C46.4535 101.034 46.4836 101.056 46.5085 101.083C46.5334 101.11 46.5525 101.141 46.5646 101.176C46.5768 101.211 46.5818 101.247 46.5793 101.284C46.5767 101.321 46.5668 101.356 46.55 101.389C46.5195 101.457 46.4633 101.509 46.394 101.536C46.3246 101.562 46.2476 101.559 46.18 101.529C45.7313 101.331 45.2436 101.237 44.7535 101.255C44.2634 101.272 43.7836 101.4 43.35 101.629C43.3025 101.661 43.247 101.678 43.19 101.679Z"
        style="fill: var(--darker)" />
    <path
        d="M53.5 103.999C53.4588 103.999 53.4182 103.989 53.3817 103.969C53.3452 103.95 53.3138 103.923 53.29 103.889C53.0411 103.534 52.7144 103.241 52.3349 103.031C51.9554 102.821 51.533 102.701 51.1 102.679C51.0258 102.679 50.9545 102.65 50.902 102.597C50.8495 102.545 50.82 102.473 50.82 102.399C50.82 102.325 50.8495 102.254 50.902 102.201C50.9545 102.149 51.0258 102.119 51.1 102.119C51.6215 102.135 52.1323 102.271 52.5921 102.517C53.052 102.764 53.4484 103.113 53.75 103.539C53.7763 103.564 53.7973 103.595 53.8116 103.628C53.8259 103.662 53.8333 103.698 53.8333 103.734C53.8333 103.771 53.8259 103.807 53.8116 103.84C53.7973 103.874 53.7763 103.904 53.75 103.929C53.7194 103.964 53.6796 103.988 53.6353 104.001C53.591 104.013 53.544 104.013 53.5 103.999Z"
        style="fill: var(--darker)" />
    <path
        d="M36.54 104.999C36.54 104.999 41.18 100.609 41.98 96.3591C41.98 96.3591 56.4 95.0391 53.06 108.249C53.06 108.249 57.84 97.0691 46.79 93.4191C35.74 89.7691 30.79 106.059 35.1 112.659C35.1 112.659 33.65 107.759 36.54 104.999Z"
        style="fill: var(--darker)" />
    <path
        d="M46.44 113.89C45.5841 113.901 44.7528 113.604 44.0975 113.053C43.4422 112.503 43.0066 111.735 42.87 110.89C42.8644 110.854 42.8662 110.817 42.8754 110.781C42.8846 110.746 42.9009 110.712 42.9233 110.683C42.9458 110.654 42.9739 110.63 43.006 110.612C43.0381 110.595 43.0735 110.584 43.11 110.58C43.1828 110.571 43.2561 110.592 43.314 110.637C43.372 110.682 43.41 110.747 43.42 110.82C43.5285 111.535 43.8918 112.187 44.4431 112.656C44.9944 113.125 45.6965 113.378 46.42 113.37C46.4943 113.37 46.5655 113.4 46.618 113.452C46.6705 113.505 46.7 113.576 46.7 113.65C46.7 113.724 46.6705 113.796 46.618 113.848C46.5655 113.901 46.4943 113.93 46.42 113.93L46.44 113.89Z"
        style="fill: var(--darker)" />
    <path
        d="M35.42 103.71C35.4091 103.751 35.4132 103.795 35.4315 103.833C35.4498 103.872 35.4812 103.903 35.52 103.92L42.11 105.45C42.0131 106.072 42.1231 106.708 42.4231 107.261C42.723 107.813 43.1962 108.252 43.77 108.51C44.5279 108.884 45.3961 108.968 46.2117 108.747C47.0273 108.526 47.7343 108.015 48.2 107.31C48.2757 107.173 48.3393 107.029 48.39 106.88C48.5072 106.783 48.6431 106.71 48.7892 106.667C48.9354 106.624 49.0888 106.612 49.24 106.63C49.3234 106.664 49.3977 106.717 49.4568 106.784C49.5159 106.852 49.5581 106.933 49.58 107.02C49.4994 107.633 49.6183 108.256 49.9191 108.796C50.2198 109.336 50.6865 109.766 51.25 110.02C52.006 110.395 52.8733 110.48 53.6878 110.259C54.5024 110.038 55.2076 109.526 55.67 108.82C55.8709 108.476 55.9963 108.093 56.038 107.697C56.0797 107.301 56.0367 106.901 55.9119 106.522C55.7871 106.144 55.5833 105.797 55.314 105.503C55.0447 105.21 54.7161 104.977 54.35 104.82C53.5925 104.444 52.7236 104.359 51.9074 104.58C51.0912 104.801 50.3842 105.313 49.92 106.02C49.8433 106.159 49.7764 106.302 49.72 106.45C49.6342 106.348 49.5189 106.275 49.39 106.24C49.1033 106.159 48.7968 106.188 48.53 106.32C48.6163 105.708 48.501 105.084 48.2016 104.543C47.9021 104.001 47.4347 103.572 46.87 103.32C46.1136 102.943 45.2455 102.856 44.4295 103.075C43.6134 103.295 42.9057 103.805 42.44 104.51C42.34 104.692 42.2564 104.883 42.19 105.08L35.63 103.56C35.5829 103.556 35.536 103.569 35.4976 103.597C35.4591 103.624 35.4316 103.664 35.42 103.71ZM50.33 106.26C50.7392 105.649 51.3583 105.21 52.0698 105.026C52.7814 104.842 53.5358 104.925 54.19 105.26C54.5103 105.396 54.7981 105.598 55.034 105.854C55.27 106.11 55.4489 106.413 55.5586 106.743C55.6683 107.073 55.7065 107.423 55.6705 107.769C55.6346 108.115 55.5253 108.45 55.35 108.75C54.9484 109.369 54.3327 109.819 53.6205 110.012C52.9084 110.206 52.1499 110.131 51.49 109.8C51.1626 109.665 50.8683 109.461 50.6273 109.202C50.3864 108.942 50.2045 108.634 50.0943 108.297C49.984 107.961 49.948 107.605 49.9887 107.253C50.0294 106.901 50.1458 106.562 50.33 106.26ZM42.85 104.71C43.2516 104.091 43.8673 103.642 44.5794 103.448C45.2916 103.254 46.0501 103.33 46.71 103.66C47.0303 103.796 47.3181 103.998 47.5541 104.254C47.79 104.51 47.9689 104.813 48.0786 105.143C48.1883 105.473 48.2265 105.823 48.1905 106.169C48.1546 106.515 48.0453 106.85 47.87 107.15C47.4608 107.761 46.8417 108.2 46.1302 108.384C45.4186 108.569 44.6642 108.485 44.01 108.15C43.6965 108.013 43.4152 107.813 43.184 107.561C42.9528 107.309 42.7769 107.011 42.6677 106.687C42.5584 106.363 42.5182 106.02 42.5496 105.679C42.581 105.339 42.6833 105.009 42.85 104.71Z"
        style="fill: var(--darker)" />
    <g opacity="0.3">
        <path
            d="M35.42 103.71C35.4091 103.751 35.4132 103.795 35.4315 103.833C35.4498 103.872 35.4812 103.903 35.52 103.92L42.11 105.45C42.0131 106.072 42.1231 106.708 42.4231 107.261C42.723 107.813 43.1962 108.252 43.77 108.51C44.5279 108.884 45.3961 108.968 46.2117 108.747C47.0273 108.526 47.7343 108.015 48.2 107.31C48.2757 107.173 48.3393 107.029 48.39 106.88C48.5072 106.783 48.6431 106.71 48.7892 106.667C48.9354 106.624 49.0888 106.612 49.24 106.63C49.3234 106.664 49.3977 106.717 49.4568 106.784C49.5159 106.852 49.5581 106.933 49.58 107.02C49.4994 107.633 49.6183 108.256 49.9191 108.796C50.2198 109.336 50.6865 109.766 51.25 110.02C52.006 110.395 52.8733 110.48 53.6878 110.259C54.5024 110.038 55.2076 109.526 55.67 108.82C55.8709 108.476 55.9963 108.093 56.038 107.697C56.0797 107.301 56.0367 106.901 55.9119 106.522C55.7871 106.144 55.5833 105.797 55.314 105.503C55.0447 105.21 54.7161 104.977 54.35 104.82C53.5925 104.444 52.7236 104.359 51.9074 104.58C51.0912 104.801 50.3842 105.313 49.92 106.02C49.8433 106.159 49.7764 106.302 49.72 106.45C49.6342 106.348 49.5189 106.275 49.39 106.24C49.1033 106.159 48.7968 106.188 48.53 106.32C48.6163 105.708 48.501 105.084 48.2016 104.543C47.9021 104.001 47.4347 103.572 46.87 103.32C46.1136 102.943 45.2455 102.856 44.4295 103.075C43.6134 103.295 42.9057 103.805 42.44 104.51C42.34 104.692 42.2564 104.883 42.19 105.08L35.63 103.56C35.5829 103.556 35.536 103.569 35.4976 103.597C35.4591 103.624 35.4316 103.664 35.42 103.71ZM50.33 106.26C50.7392 105.649 51.3583 105.21 52.0698 105.026C52.7814 104.842 53.5358 104.925 54.19 105.26C54.5103 105.396 54.7981 105.598 55.034 105.854C55.27 106.11 55.4489 106.413 55.5586 106.743C55.6683 107.073 55.7065 107.423 55.6705 107.769C55.6346 108.115 55.5253 108.45 55.35 108.75C54.9484 109.369 54.3327 109.819 53.6205 110.012C52.9084 110.206 52.1499 110.131 51.49 109.8C51.1626 109.665 50.8683 109.461 50.6273 109.202C50.3864 108.942 50.2045 108.634 50.0943 108.297C49.984 107.961 49.948 107.605 49.9887 107.253C50.0294 106.901 50.1458 106.562 50.33 106.26ZM42.85 104.71C43.2516 104.091 43.8673 103.642 44.5794 103.448C45.2916 103.254 46.0501 103.33 46.71 103.66C47.0303 103.796 47.3181 103.998 47.5541 104.254C47.79 104.51 47.9689 104.813 48.0786 105.143C48.1883 105.473 48.2265 105.823 48.1905 106.169C48.1546 106.515 48.0453 106.85 47.87 107.15C47.4608 107.761 46.8417 108.2 46.1302 108.384C45.4186 108.569 44.6642 108.485 44.01 108.15C43.6965 108.013 43.4152 107.813 43.184 107.561C42.9528 107.309 42.7769 107.011 42.6677 106.687C42.5584 106.363 42.5182 106.02 42.5496 105.679C42.581 105.339 42.6833 105.009 42.85 104.71Z"
            fill="white" />
    </g>
    <path
        d="M37.18 106.69C37.3354 105.923 37.185 105.125 36.761 104.468C36.3369 103.81 35.6727 103.344 34.91 103.17C32.84 102.77 30.63 106.6 35.31 109.11C36 109.47 36.6 108.89 37.18 106.69Z"
        fill="#EBB376" />
    <path opacity="0.2"
        d="M16 128.08C16 128.08 13.48 142.24 22 149.57C30.52 156.9 30.46 135.63 28.5 128.64C27 123.29 16 128.08 16 128.08Z"
        fill="black" />
    <path
        d="M48 175.5L48.06 173.55C48.0719 173.187 47.9963 172.827 47.8397 172.5C47.683 172.173 47.4499 171.888 47.16 171.67L44.43 169.59C43.8913 169.181 43.2626 168.907 42.5963 168.79C41.9301 168.673 41.2456 168.718 40.6 168.92L39.78 169.17C39.46 172.4 41.5 176.17 41.5 176.17L41.96 177.3C42.0487 177.534 42.1828 177.748 42.3547 177.931C42.5265 178.113 42.7326 178.259 42.9613 178.361C43.1899 178.464 43.4364 178.52 43.6868 178.526C43.9371 178.533 44.1863 178.49 44.42 178.4L46.67 177.51C47.0648 177.343 47.4015 177.063 47.638 176.705C47.8746 176.348 48.0005 175.929 48 175.5Z"
        fill="#EBB376" />
    <path
        d="M25.43 127.999C26.87 136.619 28.01 145.279 29.04 153.999L28.04 151.999C30.66 154.766 33.24 157.569 35.78 160.409C37.99 162.929 41.16 166.519 43.22 169.109C43.4878 169.491 43.6135 169.955 43.5754 170.42C43.5373 170.885 43.3378 171.322 43.0115 171.656C42.6851 171.989 42.2524 172.198 41.7883 172.246C41.3242 172.294 40.8578 172.179 40.47 171.919C34.55 167.309 28.6 162.149 23.03 157.129C22.4754 156.598 22.122 155.891 22.03 155.129C20.4 146.549 18.88 137.939 17.66 129.289C17.6372 128.318 17.9685 127.372 18.5921 126.627C19.2157 125.883 20.0889 125.39 21.0488 125.242C22.0087 125.094 22.9897 125.3 23.8088 125.822C24.6278 126.344 25.229 127.146 25.5 128.079L25.43 127.999Z"
        fill="#E9B376" />
    <path
        d="M23.53 119.56C18.53 120.11 14.43 122.28 16.6 137.75L28.85 137.12C28.85 137.12 29.44 118.9 23.53 119.56Z"
        style="fill: var(--darker)" />
</svg>