<svg xmlns="http://www.w3.org/2000/svg" stroke-width="1.5" width="24" height="24" fill="none"
    viewBox="0 0 24 24">
    <path stroke="currentColor"
        d="M18.5 9h-13a1 1 0 0 0-1 1v10a1 1 0 0 0 1 1h13a1 1 0 0 0 1-1V10a1 1 0 0 0-1-1Z" />
    <path fill="currentColor"
        d="M8.5 14a1 1 0 1 0 0-2 1 1 0 0 0 0 2Zm7 0a1 1 0 1 0 0-2 1 1 0 0 0 0 2ZM10 16a1 1 0 1 0 0 2v-2Zm4 2a1 1 0 1 0 0-2v2Zm-4 0h4v-2h-4v2Z" />
    <path stroke="currentColor" stroke-linecap="round" stroke-linejoin="round"
        d="M12 5v4M2 13v4m20-4v4" />
    <path stroke="currentColor" d="M12 5a1 1 0 1 0 0-2 1 1 0 0 0 0 2Z" />
</svg>
  