<svg xmlns="http://www.w3.org/2000/svg" width="24" height="24" fill="none" stroke-width="1.5"
    viewBox="0 0 24 24">
    <path stroke="currentColor" stroke-linecap="round" stroke-linejoin="round"
        d="M5 4.5h9.778c.962.015 1.88.39 2.554 1.046A3.42 3.42 0 0 1 18.384 8c0 .918-.378 1.8-1.052 2.455a3.753 3.753 0 0 1-2.554 1.045m0 0a3.76 3.76 0 0 1 2.593 1.025A3.422 3.422 0 0 1 18.445 15c0 .929-.386 1.819-1.074 2.475a3.757 3.757 0 0 1-2.593 1.026H5m9.778-7.001H7.444m0-7v14M8.667 1v3.5M13.556 1v3.5m-4.889 14V22m4.889-3.5V22" />
</svg>
  