<svg xmlns="http://www.w3.org/2000/svg" width="24" height="24" fill="none" viewBox="0 0 24 24"
    stroke-width="2">
    <path stroke="currentColor" stroke-linejoin="round"
        d="M12 22a9.97 9.97 0 0 0 7.071-2.929A9.97 9.97 0 0 0 22 12a9.969 9.969 0 0 0-2.929-7.071A9.969 9.969 0 0 0 12 2a9.969 9.969 0 0 0-7.071 2.929A9.969 9.969 0 0 0 2 12a9.969 9.969 0 0 0 2.929 7.071A9.969 9.969 0 0 0 12 22Z" />
    <path fill="currentColor" fill-rule="evenodd"
        d="M12 5.5A1.25 1.25 0 1 1 12 8a1.25 1.25 0 0 1 0-2.5Z"
        clip-rule="evenodd" />
    <path stroke="currentColor" stroke-linecap="round" stroke-linejoin="round"
        d="M12.25 17v-7h-1m-.75 7H14" />
</svg>
  