<svg xmlns="http://www.w3.org/2000/svg" width="24" height="24" fill="none" stroke-width="1.5"
    viewBox="0 0 24 24">
    <path stroke="currentColor" stroke-linecap="round" stroke-linejoin="round"
        d="M2.5 4a1 1 0 0 1 1-1h17a1 1 0 0 1 1 1v12a1 1 0 0 1-1 1h-17a1 1 0 0 1-1-1V4Z" />
    <path stroke="currentColor" stroke-linecap="round" stroke-linejoin="round"
        d="M2.5 13a1 1 0 0 1 1-1h17a1 1 0 0 1 1 1v3a1 1 0 0 1-1 1h-17a1 1 0 0 1-1-1v-3ZM11 6 9 8.5M14 7l-1.5 2" />
    <path fill="currentColor" d="M12 15.5a1 1 0 1 0 0-2 1 1 0 0 0 0 2Z" />
    <path stroke="currentColor" stroke-linecap="round" stroke-linejoin="round"
        d="M8.5 17 7 21h10l-1.5-4" />
</svg>
  