<svg xmlns="http://www.w3.org/2000/svg" width="24" height="24" stroke-width="1.5" fill="none"
    viewBox="0 0 24 24">
    <path stroke="currentColor" stroke-linecap="round" stroke-linejoin="round"
        stroke-miterlimit="10"
        d="M18 18.86h-.76c-.8 0-1.56.31-2.12.87l-1.71 1.69c-.78.77-2.05.77-2.83 0l-1.71-1.69c-.56-.56-1.33-.87-2.12-.87H6c-1.66 0-3-1.33-3-2.97V4.97C3 3.33 4.34 2 6 2h12c1.66 0 3 1.33 3 2.97v10.91c0 1.64-1.34 2.98-3 2.98Z" />
    <path stroke="currentColor" stroke-linecap="round" d="M6 6h12M6 10h7" />
</svg>
  