<svg xmlns="http://www.w3.org/2000/svg" width="24" height="24" fill="none" stroke-width="1.5"
    viewBox="0 0 24 24">
    <path stroke="currentColor" stroke-linecap="round" stroke-linejoin="round"
        d="m21.839 4.839-2.676-2.676c-.831-.831-1.563-.771-2.545.211L14.12 4.871c-.982.982-1.042 1.714-.211 2.545l2.67 2.67c.837.837 1.563.771 2.545-.211l2.497-2.497c.988-.977 1.048-1.708.217-2.54ZM22 19.77v-4.04c0-1.59-.64-2.23-2.23-2.23h-4.04c-1.59 0-2.23.64-2.23 2.23v4.04c0 1.59.64 2.23 2.23 2.23h4.04c1.59 0 2.23-.64 2.23-2.23ZM10.5 8.52V3.98C10.5 2.57 9.86 2 8.27 2H4.23C2.64 2 2 2.57 2 3.98v4.53c0 1.42.64 1.98 2.23 1.98h4.04c1.59.01 2.23-.56 2.23-1.97Zm0 11.25v-4.04c0-1.59-.64-2.23-2.23-2.23H4.23c-1.59 0-2.23.64-2.23 2.23v4.04C2 21.36 2.64 22 4.23 22h4.04c1.59 0 2.23-.64 2.23-2.23Z" />
</svg>
  