<svg xmlns="http://www.w3.org/2000/svg" width="120" height="74" fill="none" viewBox="0 0 120 74">
    <path fill="#ED0006" fill-rule="evenodd"
        d="M59.927 64.789c-6.305 5.441-14.484 8.726-23.422 8.726-19.943 0-36.11-16.354-36.11-36.529C.396 16.814 16.563.459 36.506.459c8.938 0 17.117 3.285 23.422 8.726C66.233 3.744 74.412.458 83.35.458c19.943 0 36.109 16.355 36.109 36.529 0 20.174-16.166 36.528-36.109 36.528-8.937 0-17.117-3.285-23.422-8.726Z"
        clip-rule="evenodd" />
    <path fill="#F9A000" fill-rule="evenodd"
        d="M59.927 64.789c7.764-6.7 12.687-16.67 12.687-27.803 0-11.132-4.923-21.102-12.687-27.802C66.233 3.744 74.412.458 83.35.458c19.943 0 36.109 16.354 36.109 36.529 0 20.174-16.166 36.528-36.109 36.528-8.937 0-17.117-3.285-23.422-8.726Z"
        clip-rule="evenodd" />
    <path fill="#FF5E00" fill-rule="evenodd"
        d="M59.927 64.789c7.764-6.7 12.687-16.67 12.687-27.802 0-11.133-4.923-21.103-12.687-27.802-7.764 6.7-12.687 16.669-12.687 27.802 0 11.132 4.923 21.102 12.687 27.802Z"
        clip-rule="evenodd" />
</svg>
  