<svg xmlns="http://www.w3.org/2000/svg" width="138" height="62" fill="none" viewBox="0 0 138 62">
    <g clip-path="url(#a)">
        <path fill="#172B85" fill-rule="evenodd"
            d="M33.225 52.033h-11.22l-8.413-32.098c-.4-1.477-1.248-2.782-2.495-3.397C7.984 14.992 4.554 13.76.813 13.14v-1.235h18.074a4.71 4.71 0 0 1 4.677 4.012l4.366 23.154 11.214-27.166h10.909L33.225 52.033Zm23.064 0H45.693l8.725-40.128h10.596l-8.725 40.128Zm22.435-29.011c.311-2.162 2.182-3.398 4.365-3.398 3.43-.31 7.166.31 10.285 1.851l1.87-8.64c-3.117-1.235-6.547-1.855-9.659-1.855-10.285 0-17.769 5.559-17.769 13.273 0 5.869 5.301 8.95 9.043 10.806 4.048 1.852 5.608 3.087 5.296 4.938 0 2.777-3.118 4.013-6.231 4.013-3.742 0-7.484-.926-10.908-2.472l-1.871 8.645c3.741 1.541 7.79 2.162 11.532 2.162 11.531.305 18.698-5.248 18.698-13.583 0-10.497-14.651-11.112-14.651-15.74Zm51.734 29.011-8.413-40.128h-9.038c-1.871 0-3.741 1.236-4.365 3.087l-15.58 37.041h10.908l2.177-5.863h13.403l1.247 5.863h9.661Zm-15.892-29.322 3.113 15.124h-8.725l5.612-15.124Z"
            clip-rule="evenodd" />
    </g>
    <defs>
        <clipPath id="a">
            <path fill="#fff" d="M0 10h131v43H0z" />
        </clipPath>
    </defs>
</svg>
  