<svg xmlns="http://www.w3.org/2000/svg" width="51" height="60" fill="none" viewBox="0 0 51 60">
    <path fill="#253B80"
        d="m14.852 57.099 1.012-6.428-2.255-.053H2.846l7.48-47.433a.611.611 0 0 1 .608-.519h18.151c6.026 0 10.184 1.254 12.355 3.729 1.018 1.16 1.666 2.374 1.98 3.71.329 1.4.335 3.074.013 5.115l-.023.15v1.308l1.018.576c.857.455 1.538.976 2.06 1.572.872.992 1.435 2.254 1.673 3.75.245 1.538.164 3.369-.238 5.44-.465 2.385-1.215 4.461-2.23 6.16-.932 1.566-2.12 2.864-3.53 3.87-1.348.956-2.948 1.682-4.757 2.147-1.754.456-3.752.686-5.945.686h-1.412a4.28 4.28 0 0 0-2.761 1.016 4.275 4.275 0 0 0-1.44 2.57l-.107.579-1.788 11.329-.081.416c-.021.132-.058.198-.112.242a.303.303 0 0 1-.186.068h-8.721Z" />
    <path fill="#179BD7"
        d="M45.39 15.521c-.053.347-.115.7-.185 1.064-2.394 12.29-10.582 16.535-21.042 16.535h-5.325a2.586 2.586 0 0 0-2.556 2.19l-2.726 17.292-.772 4.902a1.362 1.362 0 0 0 1.344 1.575h9.445a2.273 2.273 0 0 0 2.245-1.916l.093-.48 1.778-11.285.114-.619a2.27 2.27 0 0 1 2.245-1.92h1.412c9.151 0 16.315-3.715 18.409-14.466.874-4.491.421-8.241-1.893-10.879-.7-.795-1.57-1.455-2.585-1.993Z" />
    <path fill="#222D65"
        d="M42.886 14.523a18.842 18.842 0 0 0-2.328-.516c-1.436-.233-3.009-.343-4.694-.343H21.637a2.268 2.268 0 0 0-2.243 1.92l-3.026 19.168-.087.56a2.586 2.586 0 0 1 2.556-2.191h5.325c10.46 0 18.649-4.248 21.042-16.535.072-.364.132-.718.186-1.064a12.76 12.76 0 0 0-1.968-.83 17.2 17.2 0 0 0-.536-.169Z" />
    <path fill="#253B80"
        d="M19.395 15.583a2.263 2.263 0 0 1 2.242-1.917h14.227c1.686 0 3.259.11 4.694.342a19.036 19.036 0 0 1 2.866.683c.706.235 1.363.511 1.968.83.712-4.541-.006-7.633-2.46-10.433C40.223 2.005 35.337.686 29.085.686h-18.15A2.594 2.594 0 0 0 8.37 2.878L.81 50.799a1.56 1.56 0 0 0 1.538 1.804h11.206l2.814-17.851 3.026-19.169Z" />
</svg>
  