<svg xmlns="http://www.w3.org/2000/svg" width="24" height="24" fill="none" viewBox="0 0 24 24">
    <path fill="currentColor" fill-opacity=".35"
        d="M12.105 17.21a8.105 8.105 0 1 0 0-16.21 8.105 8.105 0 0 0 0 16.21Z" />
    <path stroke="currentColor" stroke-linecap="round"
        d="M10.947 14.895v-4.92A1.447 1.447 0 1 0 9.5 11.421h5.21a1.447 1.447 0 1 0-1.447-1.448v4.921" />
    <path fill="currentColor" fill-rule="evenodd"
        d="M15.579 17.863a.178.178 0 0 0-.25-.162 8.08 8.08 0 0 1-3.224.667 8.078 8.078 0 0 1-3.223-.666.178.178 0 0 0-.25.16v2.243A2.895 2.895 0 0 0 11.526 23h1.158a2.895 2.895 0 0 0 2.895-2.895v-2.242Z"
        clip-rule="evenodd" />
</svg>
  