<svg xmlns="http://www.w3.org/2000/svg" width="25" height="24" fill="none" viewBox="0 0 25 24">
    <path fill="currentColor"
        d="M16.206 2h-8.38c-3.64 0-5.81 2.17-5.81 5.81v8.37c0 3.65 2.17 5.82 5.81 5.82h8.37c3.64 0 5.81-2.17 5.81-5.81V7.81c.01-3.64-2.16-5.81-5.8-5.81Z"
        opacity=".4" />
    <path fill="currentColor"
        d="M6.896 18.9c-.41 0-.75-.34-.75-.75v-2.07c0-.41.34-.75.75-.75s.75.34.75.75v2.07c0 .42-.34.75-.75.75Zm5.12 0c-.41 0-.75-.34-.75-.75V14c0-.41.34-.75.75-.75s.75.34.75.75v4.15c0 .42-.34.75-.75.75Zm5.12 0c-.41 0-.75-.34-.75-.75v-6.22c0-.41.34-.75.75-.75s.75.34.75.75v6.22c0 .42-.33.75-.75.75Zm.75-13.08c0-.05-.02-.11-.03-.16l-.03-.13c-.02-.04-.05-.07-.07-.11-.03-.04-.06-.09-.1-.12-.01-.01-.01-.02-.02-.02-.03-.02-.06-.03-.09-.05a.638.638 0 0 0-.14-.08c-.05-.02-.1-.02-.15-.03-.04-.01-.07-.02-.11-.02h-2.93c-.41 0-.75.34-.75.75s.34.75.75.75h1.25c-2.38 2.5-5.38 4.26-8.75 5.11-.4.1-.65.51-.55.91.08.34.39.57.73.57.06 0 .12-.01.18-.02 3.57-.89 6.76-2.74 9.31-5.36v.97c0 .41.34.75.75.75s.75-.34.75-.75V5.82Z" />
</svg>
  