<svg xmlns="http://www.w3.org/2000/svg" width="64" height="64" fill="none" viewBox="0 0 64 64">
  <path fill="#CEB15F" d="M32.059 22.94l6.668 13.514 14.91 2.167-10.79 10.518 2.549 14.85-13.337-7.011-13.337 7.01 2.545-14.85L10.48 38.622l14.91-2.167L32.06 22.94z"/>
  <path fill="#C90" d="M10.48 38.621l14.91-2.167 6.672 7.014L10.48 38.62z"/>
  <path fill="gray" d="M32.062 43.468l-.003 13.51-13.337 7.01 13.34-20.52z"/>
  <path fill="#C90" d="M32.062 43.468l10.784 5.67 10.792-10.517-21.576 4.847z"/>
  <path fill="#A7A9AC" d="M18.023 5.138l-.475-.824a.876.876 0 10-1.505.878l.475.821a.878.878 0 00.76.44.872.872 0 00.745-1.314zM20.364 9.2l-.825-1.44a.879.879 0 00-1.52.878l.825 1.44a.882.882 0 00.763.44.836.836 0 00.436-.12.872.872 0 00.32-1.198zM25.066 17.334l-.825-1.44a.879.879 0 10-1.519.878l.825 1.44a.882.882 0 001.199.325.882.882 0 00.32-1.203zM22.718 13.269l-.824-1.44a.885.885 0 00-1.53.889l.824 1.44a.882.882 0 001.463.098.881.881 0 00.067-.987zM27.064 20.794l-.475-.824a.88.88 0 10-1.52.878l.476.821a.878.878 0 001.63-.552.875.875 0 00-.11-.323zM2.392 30.39h-.875a.878.878 0 100 1.757h.875a.879.879 0 000-1.757zM7.07 30.39H5.464a.878.878 0 100 1.757H7.07a.878.878 0 000-1.757zM11.747 30.39h-1.606a.878.878 0 100 1.757h1.606a.879.879 0 000-1.757zM16.424 30.39h-1.606a.878.878 0 100 1.757h1.606a.878.878 0 000-1.757zM20.518 30.39h-.875a.879.879 0 000 1.757h.879a.878.878 0 000-1.757h-.004zM62.61 30.39h-1.022a.879.879 0 000 1.757h1.023a.878.878 0 000-1.757zM49.31 30.39h-1.606a.878.878 0 100 1.757h1.606a.878.878 0 000-1.757zM58.664 30.39h-1.606a.878.878 0 100 1.757h1.606a.879.879 0 100-1.757zM53.987 30.39h-1.606a.878.878 0 100 1.757h1.606a.879.879 0 000-1.757zM44.488 30.39h-.878a.879.879 0 000 1.757h.878a.879.879 0 000-1.757z"/>
  <path fill="#C90" d="M30.806 20.452a.72.72 0 01-.72-.72V.72a.72.72 0 111.44 0v19.001a.718.718 0 01-.72.731zM22.092 26.174a.72.72 0 01-.36-.098L5.24 16.563a.729.729 0 01.72-1.267l16.477 9.517a.72.72 0 01-.36 1.36h.014zM42.022 26.174a.72.72 0 01-.63-.36.72.72 0 01.266-1.002l16.477-9.516a.729.729 0 01.72 1.267l-16.477 9.513a.721.721 0 01-.356.098z"/>
  <path fill="#A7A9AC" d="M47.761 3.993a.875.875 0 00-1.195.32l-.475.825a.876.876 0 001.52.875l.478-.82a.878.878 0 00-.328-1.2zM41.071 15.584a.882.882 0 00-1.199.32l-.824 1.44a.879.879 0 00.32 1.2.875.875 0 001.2-.342l.824-1.44a.882.882 0 00-.32-1.178zM45.767 7.453a.879.879 0 00-1.2.32l-.824 1.441a.882.882 0 00.32 1.2.886.886 0 001.2-.321l.824-1.44a.878.878 0 00-.32-1.2zM43.408 11.519a.878.878 0 00-1.199.32l-.825 1.44a.879.879 0 001.52.879l.825-1.44a.879.879 0 00-.32-1.2zM38.727 19.642a.882.882 0 00-1.199.32l-.475.825a.878.878 0 001.52.879l.475-.825a.879.879 0 00-.32-1.2z"/>
  <path fill="#CEB15F" d="M35.036 20.474a.506.506 0 01-.104 0 .396.396 0 01-.277-.483l4.922-18.363a.393.393 0 11.76.205l-4.923 18.363a.392.392 0 01-.378.278zM23.918 23.455a.376.376 0 01-.278-.115L10.184 9.888a.393.393 0 01.555-.555l13.46 13.452a.393.393 0 01-.282.67zM43.17 28.611a.393.393 0 01-.1-.774l18.363-4.93a.393.393 0 11.206.76l-18.364 4.93a.362.362 0 01-.105.014zM10.084 26.771a1.019 1.019 0 100-2.038 1.019 1.019 0 000 2.038zM14.76 27.643a1.019 1.019 0 100-2.038 1.019 1.019 0 000 2.038zM27.176 8.447a1.02 1.02 0 11-2.039 0 1.02 1.02 0 012.04 0zM49.36 15.163a1.018 1.018 0 11-2.037.007 1.018 1.018 0 012.037-.007z"/>
</svg>
