<svg xmlns="http://www.w3.org/2000/svg" width="38" height="57" fill="none" viewBox="0 0 38 57">
  <path fill="#006837" d="M37.462 13.546H.94v42.597h36.522V13.546z"/>
  <path fill="#004E29" d="M.94 12.462L29.584.652v11.81H.94z"/>
  <path fill="#CEB15F" d="M17.453 21.77l-2.323-1.343 2.16-1.253a.407.407 0 00-.406-.702l-2.16 1.253v-2.679a.407.407 0 00-.814 0v2.679l-2.16-1.253a.407.407 0 10-.408.702l2.16 1.253-2.314 1.343a.407.407 0 00.212.756.425.425 0 00.205-.054l2.32-1.34v2.521a.407.407 0 00.813 0v-2.52l2.322 1.34c.062.035.131.053.202.053a.403.403 0 00.202-.756h-.011zM33.404 49.269l-2.323-1.34 2.16-1.256a.406.406 0 00-.406-.702l-2.16 1.253v-2.68a.408.408 0 10-.81 0v2.68l-2.161-1.253a.404.404 0 10-.403.702l2.16 1.256-2.319 1.34a.412.412 0 10.404.72l2.318-1.357v2.52a.407.407 0 00.81 0v-2.52l2.323 1.339a.418.418 0 00.205.054.406.406 0 00.202-.756z"/>
  <path fill="#fff" d="M33.404 25.465l-2.323-1.34 2.16-1.257a.403.403 0 00.148-.55.407.407 0 00-.554-.152l-2.16 1.257V20.74a.407.407 0 00-.81 0v2.683l-2.161-1.257a.407.407 0 00-.593.458.404.404 0 00.19.244l2.16 1.257-2.319 1.34a.407.407 0 10.41.702l2.323-1.34v2.52a.407.407 0 10.81 0v-2.52l2.323 1.34a.411.411 0 00.565-.148.407.407 0 00-.17-.554zM15.54 49.269l-2.322-1.34 2.16-1.256a.406.406 0 00-.406-.702l-2.16 1.253v-2.68a.407.407 0 00-.814 0v2.68l-2.16-1.253a.407.407 0 10-.408.702l2.16 1.256-2.322 1.34a.412.412 0 10.404.72l2.322-1.34v2.521a.407.407 0 00.814 0v-2.52l2.319 1.339a.424.424 0 00.205.054.395.395 0 00.36-.202.408.408 0 00-.151-.572z"/>
  <path fill="#CEB15F" d="M9.528 37.527l-2.32-1.354L9.37 34.92a.404.404 0 10-.389-.691l-2.16 1.253v-2.68a.407.407 0 10-.81 0v2.68l-2.16-1.253a.407.407 0 10-.408.702l2.16 1.253-2.322 1.343a.407.407 0 00.206.756c.07 0 .14-.019.201-.054l2.305-1.336v2.52a.407.407 0 00.81 0v-2.52l2.322 1.34a.415.415 0 00.452-.028.403.403 0 00-.048-.674v-.004z"/>
  <path fill="#C1272D" d="M26.984 32.31c0-2.16-1.757-4.156-3.925-4.156-1.404 0-2.636.965-3.327 2.074-.695-1.109-1.926-2.074-3.33-2.074-2.161 0-3.925 1.988-3.925 4.155v.033c0 .472 0 5.725 7.255 9.185 7.612-3.626 7.252-9.218 7.252-9.218z"/>
</svg>
