<svg xmlns="http://www.w3.org/2000/svg" width="51" height="65" fill="none" viewBox="0 0 51 65">
  <path fill="#006837" d="M50.206 55.294L37.42 39.55l9.934-.018-12.797-15.76 9.808-.014L25.455.469 6.481 23.82l9.848-.017L3.494 39.605l9.974-.018L.645 55.373l49.56-.08z"/>
  <path fill="#C1272D" d="M33.187 21.679a4.184 4.184 0 10-5.917-5.918 4.184 4.184 0 005.917 5.918z"/>
  <path fill="#911D22" d="M28.087 21.058a2.996 2.996 0 004.234-4.216l-4.234 4.216z"/>
  <path fill="#C1272D" d="M22.189 33.602a4.184 4.184 0 10-8.26-1.34 4.184 4.184 0 008.26 1.34z"/>
  <path fill="#911D22" d="M15.912 35.263a2.996 2.996 0 004.235-4.235l-4.234 4.235z"/>
  <path fill="#C1272D" d="M37.266 45.653a4.184 4.184 0 10-8.144-1.922 4.184 4.184 0 008.144 1.922z"/>
  <path fill="#911D22" d="M31.064 47.03a2.992 2.992 0 004.231-4.23l-4.23 4.23z"/>
  <path fill="gray" d="M29.422 51.048h-7.921v13.323h7.921V51.048z"/>
  <path fill="#BCBEC0" d="M25.822 51.048H21.5v13.323h4.32V51.048z"/>
  <path fill="#CEB15F" d="M34.463 32.512l-2.322-1.34 2.16-1.256a.416.416 0 00.157-.564.413.413 0 00-.563-.156l-2.16 1.256v-2.664a.407.407 0 00-.815 0v2.682l-2.16-1.256a.413.413 0 10-.407.72l2.16 1.256-2.318 1.34a.404.404 0 00.201.756.36.36 0 00.202-.054l2.322-1.34v2.521a.407.407 0 00.814 0v-2.52l2.319 1.339a.388.388 0 00.205.054.396.396 0 00.36-.202.404.404 0 00-.155-.572z"/>
  <path fill="#fff" d="M25.663 12.88l-2.322-1.342 2.16-1.253a.407.407 0 00-.095-.745.404.404 0 00-.308.043l-2.16 1.252V8.168a.404.404 0 00-.241-.41.407.407 0 00-.57.41v2.68l-2.16-1.254a.408.408 0 10-.407.702l2.16 1.254-2.325 1.332a.407.407 0 00.205.756c.07 0 .14-.02.201-.054l2.323-1.34v2.52a.407.407 0 00.81 0v-2.52l2.322 1.358a.406.406 0 00.407-.702v-.018zM19.045 49.172l-2.322-1.34 2.16-1.256a.413.413 0 10-.407-.72l-2.16 1.253V44.43a.407.407 0 10-.814 0v2.68l-2.16-1.254a.413.413 0 10-.407.72l2.16 1.257-2.319 1.34a.411.411 0 00.09.757.412.412 0 00.314-.038l2.322-1.339v2.52a.407.407 0 10.814 0v-2.52l2.319 1.34a.418.418 0 00.205.053.407.407 0 00.201-.756l.004-.018z"/>
</svg>
