<svg xmlns="http://www.w3.org/2000/svg" width="76" height="40" fill="none" viewBox="0 0 76 40">
  <path fill="#C1272D" d="M35.036 20.412a4.264 4.264 0 00-6.017.446l-1.757 2.038v-9.552a12.487 12.487 0 10-24.97 0v22.684h24.97v-.054l8.22-9.538a4.267 4.267 0 00-.446-6.024z"/>
  <path fill="#CEB15F" d="M30.485 36.49a3.071 3.071 0 01-3.072 3.07H3.653A3.071 3.071 0 01.58 36.49a3.071 3.071 0 013.071-3.072h23.743a3.072 3.072 0 013.072 3.071h.018z"/>
  <path fill="#C90" d="M3.677 11.803h-.522a.403.403 0 110-.803h.522a.404.404 0 01.31.7.404.404 0 01-.31.103zM23.737 11.803h-1.012a.403.403 0 010-.803h1.012a.404.404 0 01.31.7.404.404 0 01-.31.103zm-2.88 0h-1.009a.403.403 0 110-.803h1.008a.405.405 0 01.407.564.403.403 0 01-.407.239zm-2.863 0h-1.012a.403.403 0 110-.803h1.012a.403.403 0 010 .803zm-2.88 0H14.1a.403.403 0 110-.803h1.012a.404.404 0 010 .803zm-2.881 0H11.22a.403.403 0 110-.803h1.012a.405.405 0 01.441.401.404.404 0 01-.441.402zm-2.88 0H8.34a.403.403 0 110-.803h1.012a.404.404 0 01.31.7.404.404 0 01-.31.103zm-2.881 0h-.94a.403.403 0 110-.803h1.012a.404.404 0 01.309.7.404.404 0 01-.31.103h-.071zM26.117 11.803h-.526a.404.404 0 010-.803h.526a.404.404 0 01.31.7.403.403 0 01-.31.103z"/>
  <path fill="#fff" d="M3.771 25.943h-.616a.598.598 0 010-1.196h.616a.598.598 0 110 1.196zM32.134 25.943H30.88a.598.598 0 010-1.196h1.253a.598.598 0 110 1.196zm-3.547 0h-1.25a.598.598 0 010-1.196h1.25a.598.598 0 110 1.196zm-3.546 0h-1.25a.598.598 0 010-1.196h1.25a.598.598 0 110 1.196zm-3.544 0h-1.253a.598.598 0 010-1.196h1.239a.598.598 0 110 1.196h.014zm-3.546 0H16.7a.598.598 0 010-1.196h1.25a.598.598 0 110 1.196zm-3.543 0h-1.253a.598.598 0 010-1.196h1.253a.598.598 0 110 1.196zm-3.547 0H9.6a.598.598 0 010-1.196h1.25a.598.598 0 110 1.196h.01zm-3.543 0H6.065a.598.598 0 010-1.196h1.253a.598.598 0 110 1.196zM35.043 25.943h-.597a.598.598 0 010-1.196h.615a.598.598 0 110 1.196h-.018z"/>
  <path fill="#D1D3D4" d="M5.77 20.498a1.246 1.246 0 11-2.492-.007 1.246 1.246 0 012.491.007zM9.842 20.498a1.25 1.25 0 11-2.499 0 1.25 1.25 0 012.499 0zM13.921 20.498a1.25 1.25 0 11-2.499 0 1.25 1.25 0 012.5 0zM17.98 20.498a1.25 1.25 0 11-2.5 0 1.25 1.25 0 012.5 0zM22.048 20.498a1.25 1.25 0 11-2.499 0 1.25 1.25 0 012.5 0zM24.871 21.744a1.246 1.246 0 100-2.492 1.246 1.246 0 000 2.492z"/>
  <path fill="#C90" d="M.599 36.49a3.071 3.071 0 003.071 3.07h23.743a3.072 3.072 0 003.072-3.07H.599z"/>
  <path fill="#C1272D" d="M41.41 20.412a4.264 4.264 0 016.016.446l1.76 2.038v-9.552a12.484 12.484 0 0124.968 0v22.684H49.187v-.054l-8.224-9.534a4.267 4.267 0 01.446-6.028z"/>
  <path fill="#CEB15F" d="M45.968 36.49a3.066 3.066 0 003.068 3.07h23.757a3.072 3.072 0 000-6.142H49.05a3.068 3.068 0 00-3.068 3.071h-.014z"/>
  <path fill="#C90" d="M73.29 11.803h-.522a.403.403 0 110-.803h.522a.404.404 0 110 .803zM70.914 11.803h-1.012a.402.402 0 110-.803h1.012a.404.404 0 01.309.7.404.404 0 01-.31.103zm-2.881 0h-1.012a.403.403 0 110-.803h1.012a.404.404 0 01.31.7.403.403 0 01-.31.103zm-2.88 0H64.14a.403.403 0 110-.803h1.011a.404.404 0 01.31.7.404.404 0 01-.31.103zm-2.881 0H61.26a.403.403 0 010-.803h1.012a.404.404 0 01.31.7.405.405 0 01-.31.103zm-2.88 0h-1.013a.404.404 0 010-.803h1.012a.404.404 0 01.31.7.403.403 0 01-.31.103zm-2.863 0h-1.012a.403.403 0 110-.803h1.012a.404.404 0 010 .803zm-2.88 0h-1.013a.403.403 0 110-.803h1.012a.403.403 0 010 .803zM50.854 11.803h-.526a.403.403 0 110-.803h.526a.404.404 0 01.31.7.403.403 0 01-.31.103z"/>
  <path fill="#fff" d="M73.29 25.943h-.616a.597.597 0 110-1.196h.616a.598.598 0 110 1.196zM70.38 25.943h-1.252a.598.598 0 010-1.196h1.253a.598.598 0 110 1.196zm-3.546 0h-1.25a.598.598 0 010-1.196h1.268a.598.598 0 110 1.196h-.018zm-3.543 0h-1.253a.598.598 0 010-1.196h1.253a.598.598 0 110 1.196zm-3.547 0h-1.25a.598.598 0 010-1.196h1.25a.598.598 0 110 1.196zm-3.543 0h-1.253a.598.598 0 010-1.196h1.253a.598.598 0 110 1.196zm-3.547 0h-1.25a.598.598 0 010-1.196h1.25a.598.598 0 110 1.196zm-3.543 0h-1.253a.598.598 0 110-1.196h1.253a.598.598 0 110 1.196zm-3.546 0h-1.253a.598.598 0 110-1.196h1.253a.598.598 0 110 1.196zM42.007 25.943h-.616a.598.598 0 010-1.196h.616a.598.598 0 110 1.196z"/>
  <path fill="#D1D3D4" d="M70.676 20.498a1.246 1.246 0 102.492-.007 1.246 1.246 0 00-2.492.007zM66.603 20.498a1.25 1.25 0 102.5 0 1.25 1.25 0 00-2.5 0zM62.531 20.498a1.25 1.25 0 102.5 0 1.25 1.25 0 00-2.5 0zM58.466 20.498a1.25 1.25 0 102.5 0 1.25 1.25 0 00-2.5 0zM54.397 20.498a1.25 1.25 0 102.5 0 1.25 1.25 0 00-2.5 0zM50.328 20.498a1.25 1.25 0 102.5 0 1.25 1.25 0 00-2.5 0z"/>
  <path fill="#C90" d="M75.854 36.49a3.071 3.071 0 01-3.072 3.07H49.05a3.068 3.068 0 01-3.068-3.07h29.872z"/>
</svg>
