<svg xmlns="http://www.w3.org/2000/svg" width="62" height="66" fill="none" viewBox="0 0 62 66">
  <path fill="#006837" d="M31.067 7.78a27.348 27.348 0 10-.007 54.697 27.348 27.348 0 00.007-54.696zm0 41.01a13.664 13.664 0 110-27.33 13.664 13.664 0 010 27.33z"/>
  <path fill="#C1272D" d="M9.654 52.181a3.007 3.007 0 100-6.013 3.007 3.007 0 000 6.013z"/>
  <path fill="#911D22" d="M8.113 50.856a2.162 2.162 0 103.046-3.046l-3.046 3.046z"/>
  <path fill="#C1272D" d="M24.536 60.353a3.007 3.007 0 10-5.935-.963 3.007 3.007 0 005.935.963z"/>
  <path fill="#911D22" d="M20.02 61.543a2.16 2.16 0 003.043-3.046l-3.043 3.046z"/>
  <path fill="#C1272D" d="M56.866 38.113a3.007 3.007 0 100-6.013 3.007 3.007 0 000 6.013z"/>
  <path fill="#911D22" d="M55.329 36.78a2.16 2.16 0 003.042-3.042l-3.042 3.043z"/>
  <path fill="#C1272D" d="M21.498 29.16a3.006 3.006 0 10-5.852-1.382 3.006 3.006 0 005.852 1.381z"/>
  <path fill="#911D22" d="M17.042 30.156a2.16 2.16 0 003.043-3.043l-3.043 3.043z"/>
  <path fill="#C1272D" d="M37.926 50.154a3.007 3.007 0 100-6.013 3.007 3.007 0 000 6.013z"/>
  <path fill="#911D22" d="M36.389 48.825a2.163 2.163 0 003.188.146 2.16 2.16 0 00-.145-3.188l-3.043 3.042z"/>
  <path fill="#C1272D" d="M43.068 24.448a3.007 3.007 0 100-6.013 3.007 3.007 0 000 6.014z"/>
  <path fill="#911D22" d="M41.527 23.123a2.158 2.158 0 003.169.123 2.16 2.16 0 00-.122-3.169l-3.047 3.046z"/>
  <path fill="#004E29" d="M11.34 27.921c1.393-1.393.57-4.475-1.836-6.882-2.408-2.407-5.489-3.23-6.882-1.836-1.394 1.394-.572 4.475 1.835 6.882 2.408 2.408 5.489 3.23 6.882 1.836z"/>
  <path fill="#fff" d="M10.954 27.826a.277.277 0 01-.198-.08l-7.969-7.971a.278.278 0 01.393-.393l7.972 7.969a.28.28 0 010 .396.278.278 0 01-.198.079z"/>
  <path fill="#004E29" d="M9.506 39.91c2.407-2.407 3.229-5.488 1.835-6.881-1.393-1.394-4.474-.572-6.882 1.835-2.407 2.408-3.229 5.489-1.835 6.882 1.393 1.394 4.474.572 6.882-1.835z"/>
  <path fill="#fff" d="M2.996 41.65a.28.28 0 01-.256-.173.274.274 0 01.062-.303l7.968-7.972a.28.28 0 01.478.196.277.277 0 01-.082.196l-7.972 7.972a.281.281 0 01-.198.083z"/>
  <path fill="#004E29" d="M18.014 16.948c1.316-3.14.91-6.303-.908-7.065-1.818-.761-4.358 1.167-5.674 4.306-1.316 3.14-.91 6.303.908 7.065 1.818.762 4.358-1.166 5.674-4.306z"/>
  <path fill="#fff" d="M12.552 21.057a.28.28 0 01-.256-.382l4.357-10.395a.28.28 0 01.36-.148.277.277 0 01.148.36l-4.357 10.395a.28.28 0 01-.252.17z"/>
  <path fill="#004E29" d="M20.866 49.33c1.826-.74 2.27-3.897.992-7.052-1.28-3.156-3.796-5.114-5.623-4.373-1.826.74-2.27 3.898-.992 7.053 1.28 3.155 3.796 5.113 5.623 4.373z"/>
  <path fill="#fff" d="M20.675 49.11a.277.277 0 01-.259-.173l-4.234-10.442a.28.28 0 01.155-.36.284.284 0 01.36.155l4.23 10.442a.281.281 0 01-.15.36.286.286 0 01-.102.018z"/>
  <path fill="#004E29" d="M49.49 37.074c1.301-1.48.285-4.502-2.27-6.751-2.556-2.25-5.684-2.874-6.986-1.394-1.302 1.479-.285 4.502 2.27 6.75 2.556 2.25 5.684 2.874 6.986 1.395z"/>
  <path fill="#fff" d="M49.092 37a.28.28 0 01-.183-.072l-8.462-7.446a.279.279 0 01-.107-.308.278.278 0 01.467-.11l8.462 7.447a.28.28 0 01-.184.49h.007z"/>
  <path fill="#004E29" d="M48.581 49.888c-3.24-1.08-6.352-.45-6.982 1.418-.63 1.869 1.48 4.263 4.71 5.347 3.23 1.084 6.352.45 6.978-1.418.627-1.87-1.48-4.264-4.706-5.347z"/>
  <path fill="#fff" d="M52.787 55.343a.277.277 0 01-.09 0l-10.684-3.601a.282.282 0 01-.176-.36.278.278 0 01.36-.177l10.687 3.601a.277.277 0 01-.09.54l-.007-.003z"/>
  <path fill="#004E29" d="M38.452 60.546c1.08-3.241.447-6.356-1.44-6.982-1.887-.627-4.26 1.48-5.343 4.71-1.084 3.23-.45 6.351 1.418 6.978 1.869.626 4.281-1.466 5.365-4.706z"/>
  <path fill="#fff" d="M33.278 65.043a.262.262 0 01-.09 0 .278.278 0 01-.173-.36L36.615 54a.28.28 0 01.361-.177.278.278 0 01.176.36l-3.6 10.687a.278.278 0 01-.274.173z"/>
  <path fill="#004E29" d="M52.75 46.452c2.225-2.577 2.82-5.71 1.329-6.998-1.492-1.288-4.505-.244-6.73 2.333-2.226 2.576-2.82 5.709-1.33 6.997 1.492 1.288 4.505.244 6.73-2.332z"/>
  <path fill="#fff" d="M46.374 48.681a.291.291 0 01-.184-.065.284.284 0 01-.029-.396l7.371-8.53a.28.28 0 01.421.36l-7.352 8.538a.275.275 0 01-.227.093z"/>
  <path fill="#004E29" d="M28.163 53.223c2.868-1.835 4.331-4.669 3.269-6.329-1.063-1.66-4.248-1.517-7.116.318-2.867 1.835-4.33 4.668-3.268 6.328 1.062 1.66 4.248 1.518 7.115-.317z"/>
  <path fill="#fff" d="M21.493 53.513a.27.27 0 01-.234-.126.276.276 0 01.083-.385l9.495-6.078a.278.278 0 01.299.468L21.64 53.47a.27.27 0 01-.147.043z"/>
  <path fill="#004E29" d="M57.433 27.995c2.407-2.407 3.23-5.488 1.836-6.882-1.394-1.393-4.475-.571-6.882 1.836-2.408 2.407-3.23 5.489-1.836 6.882 1.393 1.394 4.475.572 6.882-1.836z"/>
  <path fill="#fff" d="M50.921 29.734a.28.28 0 01-.258-.385.277.277 0 01.06-.09l7.976-7.961a.279.279 0 11.393.396l-7.969 7.957a.28.28 0 01-.202.083z"/>
  <path fill="#004E29" d="M52.218 15.249c-1.315-3.14-3.857-5.07-5.675-4.321-1.818.749-2.225 3.925-.907 7.064 1.317 3.14 3.856 5.07 5.674 4.321 1.819-.749 2.226-3.924.908-7.064z"/>
  <path fill="#fff" d="M51.105 22.104a.277.277 0 01-.256-.169l-4.356-10.399a.276.276 0 01.253-.397.278.278 0 01.258.185l4.36 10.395a.281.281 0 01-.15.36.288.288 0 01-.109.025z"/>
  <path fill="#C1272D" d="M41.624.903L31.067 6.42 20.51.903v14.299l10.557-5.516 10.557 5.516V.903z"/>
  <path fill="#911D22" d="M32.569 8.05l7.604-3.97v7.942L32.57 8.051z"/>
</svg>
