<svg xmlns="http://www.w3.org/2000/svg" width="48" height="66" fill="none" viewBox="0 0 48 66">
  <path fill="#C90" d="M3.008 56.93H7.76v4.767a.753.753 0 101.501 0V56.49l6.046-6.045a.763.763 0 10-1.08-1.08L8.182 55.41H3.008a.751.751 0 00-.304 1.46c.098.035.2.049.304.042v.018zM12.65 59.691h4.754v4.754a.753.753 0 001.501 0v-5.196l6.046-6.042a.757.757 0 10-1.08-1.063l-6.046 6.042H12.65a.753.753 0 000 1.505z"/>
  <path fill="#C1272D" d="M44.575 37.62c-1.527-5.467-7.404-8.837-14.27-8.769-1.955-7.878-7.612-13.574-14.288-13.574C7.736 15.277 1 24.073 1 34.922c0 8.674 4.295 16.034 10.258 18.638 5.585 2.549 14.291 2.88 20.423 1.177 9.056-2.528 14.817-10.194 12.895-17.118z"/>
  <path fill="#414042" d="M8.891 26.896a1.253 1.253 0 100-2.506 1.253 1.253 0 000 2.506zM18.52 26.896a1.253 1.253 0 100-2.506 1.253 1.253 0 000 2.506z"/>
  <path fill="#CEB15F" d="M17.285 27.598l-3.32 5.754-3.32-5.754h6.64z"/>
  <path fill="#fff" d="M4.466 36.971A15.814 15.814 0 0020.28 52.785L4.466 36.971z"/>
  <path fill="#911D22" d="M17.897 33.349a14.915 14.915 0 0028.757 5.778 14.914 14.914 0 001.067-5.778H17.897z"/>
  <path fill="#006837" d="M8.193 18.226L16.017.87l7.828 17.356H8.193z"/>
  <path fill="#D1D3D4" d="M24.533 17.376a1.253 1.253 0 01-1.253 1.253H8.762a1.25 1.25 0 01-.884-2.137 1.25 1.25 0 01.884-.366h14.51a1.248 1.248 0 011.254 1.25h.007z"/>
</svg>
