<svg xmlns="http://www.w3.org/2000/svg" width="60" height="51" fill="none" viewBox="0 0 60 51">
  <path fill="#006837" d="M15.627 6.401V.28H.864v14.763h5.762v6.121h6.84v5.761H27.51V12.882h-6.122v-6.48h-5.76z"/>
  <path fill="#fff" d="M24.42 24.653a.72.72 0 01-.49-.201L3.444 3.964a.693.693 0 11.979-.98L24.91 23.472a.692.692 0 01-.49 1.181z"/>
  <path fill="#006837" d="M44.433 9.282V3.88h14.763v14.403h-6.121v5.76h-6.482v6.122H32.191V15.763h6.12V9.282h6.122z"/>
  <path fill="#fff" d="M35.02 27.89a.72.72 0 01-.489-.201.695.695 0 010-.98L55.02 6.221a.692.692 0 11.98.98L35.51 27.689a.695.695 0 01-.49.201z"/>
  <path fill="#C1272D" d="M27.315 50.794a5.592 5.592 0 100-11.183 5.592 5.592 0 000 11.183z"/>
  <path fill="#911D22" d="M24.456 48.353a4 4 0 105.657-5.657l-5.657 5.657z"/>
  <path fill="#C1272D" d="M24.521 39.276a5.592 5.592 0 100-11.184 5.592 5.592 0 000 11.184z"/>
  <path fill="#911D22" d="M21.662 36.834a4.001 4.001 0 005.66-5.656l-5.66 5.656z"/>
  <path fill="#C1272D" d="M37.44 41.75a5.592 5.592 0 100-11.184 5.592 5.592 0 000 11.183z"/>
  <path fill="#911D22" d="M34.578 39.28a4.002 4.002 0 005.657-5.661l-5.657 5.66z"/>
</svg>
