<svg xmlns="http://www.w3.org/2000/svg" width="46" height="58" fill="none" viewBox="0 0 46 58">
  <path fill="#C90" d="M41.4 21.887H27.58a11.011 11.011 0 10-8.363 0H5.396a4.537 4.537 0 000 9.07h6.532v21.889a4.537 4.537 0 109.07 0v-7.598a2.398 2.398 0 114.792 0v7.598a4.537 4.537 0 109.07 0v-21.9h6.536a4.538 4.538 0 000-9.07l.004.01z"/>
  <path fill="#CEB15F" d="M41.4 21.887H27.58A11.007 11.007 0 0023.398.697v42.156a2.398 2.398 0 012.398 2.398v7.594a4.537 4.537 0 109.07 0V30.946H41.4a4.537 4.537 0 000-9.07v.01z"/>
  <path fill="#C90" d="M26.764 52.55a3.568 3.568 0 007.133 0V37.877L26.764 52.55zM41.285 29.952a3.564 3.564 0 100-7.13v7.13z"/>
  <path fill="#911D22" d="M18.208 11.113a5.192 5.192 0 1010.381 0H18.21z"/>
  <path fill="#fff" d="M24.672 24.972a1.274 1.274 0 11-2.55.008 1.274 1.274 0 012.55-.008zM24.672 30.29a1.274 1.274 0 11-2.548.008 1.274 1.274 0 012.548-.007zM24.672 35.609a1.274 1.274 0 11-2.55 0 1.274 1.274 0 012.55 0z"/>
  <path fill="#58595B" d="M19.591 9.42a1.271 1.271 0 100-2.541 1.271 1.271 0 000 2.542zM28.492 8.16a1.274 1.274 0 11-2.548.008 1.274 1.274 0 012.548-.007z"/>
  <path fill="#006837" d="M33.835 17.72H12.987v4.285h20.848v-4.284z"/>
  <path fill="#006837" d="M31.704 22.005h-5.092v13.42h5.092v-13.42z"/>
  <path fill="#004E29" d="M29.158 22.005h-2.546v13.42h2.546v-13.42z"/>
</svg>
