<svg xmlns="http://www.w3.org/2000/svg" width="44" height="56" fill="none" viewBox="0 0 44 56">
  <path fill="#CEB15F" d="M38.261 37.095V25.858a16.65 16.65 0 10-33.3 0v11.237A6.121 6.121 0 006.367 49.19h30.487a6.121 6.121 0 001.408-12.095z"/>
  <path fill="#C90" d="M36.083 38.446l-9.989 8.702h9.989a4.353 4.353 0 100-8.703zM16.473 50.641a5.138 5.138 0 0010.277 0H16.473zM21.611 9.208a16.65 16.65 0 00-16.65 16.65v11.237A6.121 6.121 0 006.367 49.19h15.245V9.208z"/>
  <path fill="#fff" d="M24.5 14.53l9.808 9.812a9.808 9.808 0 00-9.809-9.812z"/>
  <path fill="#C1272D" d="M32.169.706L21.612 6.223 11.053.706v14.299l10.557-5.513 10.558 5.513V.706z"/>
  <path fill="#911D22" d="M23.113 7.857l7.601-3.971v7.943l-7.601-3.972z"/>
  <path fill="#58595B" d="M38.261 35.594h-33.3v3.528h33.3v-3.528z"/>
</svg>
