<svg xmlns="http://www.w3.org/2000/svg" width="34" height="65" fill="none" viewBox="0 0 34 65">
  <path fill="#CEB15F" d="M31.665 44.398c0 8.188-6.64 20.524-14.828 20.524-8.188 0-14.824-12.34-14.824-20.524a14.828 14.828 0 0129.652 0z"/>
  <path fill="#C90" d="M5.542 47.793c1.588 0 2.977-1.199 3.737-2.992.76 1.8 2.16 2.992 3.738 2.992 1.577 0 2.978-1.199 3.737-2.992.76 1.8 2.16 2.992 3.738 2.992 1.577 0 2.978-1.199 3.737-2.992.764 1.8 2.16 2.992 3.738 2.992 2.405 0 4.353-2.747 4.353-6.121H1.188c0 3.374 1.948 6.121 4.354 6.121zM23.293 49.417H2.175c0 3.19 1.836 5.761 4.101 5.761 1.495 0 2.802-1.127 3.518-2.816.72 1.69 2.024 2.816 3.522 2.816 1.497 0 2.801-1.127 3.518-2.816.72 1.69 2.027 2.816 3.521 2.816 1.494 0 2.805-1.127 3.521-2.816.72 1.69 2.024 2.816 3.518 2.816 2.265 0 4.102-2.589 4.102-5.76h-8.203zM19.782 56.745H5.95c0 3.136 1.8 5.681 4.025 5.681 1.473 0 2.755-1.112 3.46-2.769.72 1.657 1.988 2.77 3.457 2.77 1.47 0 2.755-1.113 3.457-2.77.72 1.657 1.99 2.77 3.46 2.77 2.225 0 4.026-2.546 4.026-5.682h-8.052zM16.833 24.777A15.346 15.346 0 001.487 40.124h30.696a15.35 15.35 0 00-15.35-15.347z"/>
  <path fill="#fff" d="M17.881 27.813l9.823 9.808a9.81 9.81 0 00-9.823-9.808z"/>
  <path fill="#006837" d="M30.369 17.28a6.589 6.589 0 00-5.311-1.101c-1.898.432-3.223 1.76-4.39 2.934l-.32.32a159.82 159.82 0 01-3.295 3.188l-.22.212-.22-.212c-1.08-1.034-2.206-2.103-3.294-3.187l-.317-.32c-1.166-1.174-2.491-2.503-4.393-2.935a6.534 6.534 0 00-1.44-.159 6.544 6.544 0 00-5.968 9.105 6.546 6.546 0 006.083 3.988 8.06 8.06 0 003.637-.883l.108-.053c.511-.26 1.044-.515 1.556-.764.586-.284 1.191-.576 1.8-.882.4-.205.789-.44 1.163-.666.416-.263.847-.504 1.289-.72.414.194.843.453 1.293.72.36.227.763.464 1.163.67.594.306 1.199.597 1.8.882.515.248 1.044.507 1.56.767l.114.064a8.052 8.052 0 003.626.893 6.564 6.564 0 003.997-11.86h-.021zM13.51 24.843a77.59 77.59 0 01-1.74.86c-.572.278-1.08.512-1.594.782l-.112.058a6.164 6.164 0 01-2.769.67 4.642 4.642 0 01-1.08-9.188 4.681 4.681 0 011.97.013c1.36.31 2.38 1.336 3.46 2.423.108.108.216.22.324.324 1.059 1.055 2.142 2.089 3.194 3.093l-.612.36c-.357.22-.699.429-1.041.602v.003zm16.715.512a4.649 4.649 0 01-3.868 1.883 6.193 6.193 0 01-2.776-.688l-.104-.069c-.53-.27-1.08-.529-1.592-.78-.511-.253-1.17-.566-1.739-.861-.342-.173-.684-.382-1.051-.602a16.898 16.898 0 00-.609-.36c1.052-1.004 2.135-2.038 3.19-3.09l.328-.327c1.08-1.08 2.1-2.11 3.46-2.42a4.659 4.659 0 014.76 7.313z"/>
  <path fill="#C90" d="M16.902 20.633a.915.915 0 01-.911-.915V1.43a.915.915 0 011.825 0v18.296a.915.915 0 01-.914.907z"/>
</svg>
