<svg xmlns="http://www.w3.org/2000/svg" width="57" height="58" fill="none" viewBox="0 0 57 58">
  <path fill="#C1272D" d="M56.32 53.43a4.493 4.493 0 01-4.494 4.483H5.376a4.497 4.497 0 01-3.18-7.674 4.497 4.497 0 013.18-1.317h46.45a4.497 4.497 0 014.494 4.497v.011z"/>
  <path fill="#911D22" d="M.898 53.43a4.497 4.497 0 004.497 4.483h46.449a4.494 4.494 0 004.494-4.494l-55.44.011z"/>
  <path fill="#C90" d="M31.007 19.562H26.21A19.998 19.998 0 006.212 39.549v13.87h44.793V39.55a19.999 19.999 0 00-19.998-19.987z"/>
  <path fill="#D1D3D4" d="M52.07 39.02a20.96 20.96 0 00-20.945-20.135h-5.04a20.885 20.885 0 00-13.564 4.98 21.153 21.153 0 00-3.817 4.256A20.852 20.852 0 005.12 39.83l.058-.08a2.006 2.006 0 003.96-.342v-5.106a1.681 1.681 0 113.364 0v-.155a2.794 2.794 0 005.555 0v-.925a2.114 2.114 0 014.224 0v4.879a2.795 2.795 0 005.585 0v-6.63a2.733 2.733 0 115.466 0v5.434a2.358 2.358 0 104.717 0V39.866a2.79 2.79 0 005.563 0v-4.638a1.944 1.944 0 113.889 0v3.385a2.268 2.268 0 004.274 1.051 1.44 1.44 0 00.295-.644z"/>
  <path fill="#006837" d="M21.86 4.262v-3.24H14.3v7.921h3.24v3.6h3.24v3.242h8.282V7.862h-3.24v-3.6H21.86z"/>
  <path fill="#004E29" d="M28.717 15.543l-7.98.008-.003-3.342-3.345.004V8.868L14.05 8.86l.007-7.975 14.659 14.658z"/>
  <path fill="#fff" d="M27.15 14.344a.378.378 0 01-.27-.111L15.578 2.93a.385.385 0 01.27-.654.378.378 0 01.27.114l11.306 11.303a.382.382 0 01-.274.651z"/>
  <path fill="#006837" d="M40.224 7.143v-3.24h7.922v7.92h-2.88v3.241h-3.961v3.241h-7.562v-7.922h3.24v-3.24h3.242z"/>
  <path fill="#004E29" d="M33.578 18.11l7.979.008.003-3.342 3.346.004.003-3.345 3.334-.007-.003-7.976-14.662 14.659z"/>
  <path fill="#fff" d="M35.144 16.926a.378.378 0 00.27-.112L46.706 5.512a.383.383 0 10-.544-.54L34.86 16.274a.385.385 0 00.131.626c.049.02.101.028.154.026z"/>
  <path fill="#C1272D" d="M28.879 26.291a5.052 5.052 0 100-10.103 5.052 5.052 0 000 10.103z"/>
  <path fill="#911D22" d="M26.293 24.088a3.619 3.619 0 005.115.002 3.616 3.616 0 00.002-5.115l-5.117 5.113z"/>
</svg>
