<svg xmlns="http://www.w3.org/2000/svg" width="69" height="69" fill="none" viewBox="0 0 69 69">
  <path fill="#CEB15F" d="M18.873 8.247a1.21 1.21 0 01-1.055-.608l-.54-.937a1.218 1.218 0 112.107-1.217l.543.937a1.22 1.22 0 01-1.055 1.825zM25.78 20.209a1.216 1.216 0 01-1.055-.609l-1.257-2.16a1.218 1.218 0 012.106-1.22l1.257 2.16a1.213 1.213 0 01-.447 1.663 1.194 1.194 0 01-.604.166zm-3.454-5.981a1.216 1.216 0 01-1.055-.609l-1.256-2.16a1.218 1.218 0 012.11-1.217l1.253 2.16a1.218 1.218 0 01-.443 1.664c-.186.105-.395.16-.608.162zM28.516 24.95a1.22 1.22 0 01-1.055-.608l-.54-.94a1.217 1.217 0 012.106-1.216l.544.94a1.22 1.22 0 01-1.055 1.825zM3.08 35.692H2a1.26 1.26 0 010-2.52h1.08a1.26 1.26 0 010 2.52zM16.882 35.692h-2.57a1.26 1.26 0 010-2.52h2.57a1.26 1.26 0 010 2.52zm-6.899 0h-2.57a1.26 1.26 0 010-2.52h2.57a1.26 1.26 0 010 2.52zM22.29 35.692h-1.08a1.26 1.26 0 010-2.52h1.08a1.26 1.26 0 010 2.52zM18.33 63.925a1.217 1.217 0 01-1.055-1.826l.543-.936a1.216 1.216 0 112.107 1.217l-.54.936a1.22 1.22 0 01-1.055.609zM21.066 59.183a1.229 1.229 0 01-.962-.475 1.218 1.218 0 01-.09-1.35l1.257-2.161a1.218 1.218 0 112.107 1.217l-1.257 2.16a1.217 1.217 0 01-1.055.609zm3.453-5.98a1.214 1.214 0 01-1.051-1.827l1.253-2.16a1.218 1.218 0 112.11 1.217l-1.257 2.16a1.21 1.21 0 01-1.055.61zM27.972 47.214c-.213 0-.423-.055-.608-.162a1.22 1.22 0 01-.447-1.663l.544-.937a1.216 1.216 0 112.107 1.217l-.54.937a1.21 1.21 0 01-1.056.608zM51.017 63.925a1.224 1.224 0 01-1.055-.608l-.54-.94a1.218 1.218 0 012.11-1.217l.54.94a1.214 1.214 0 01-.432 1.677c-.19.105-.406.156-.623.148zM48.28 59.183a1.218 1.218 0 01-1.055-.609l-1.256-2.16a1.218 1.218 0 112.11-1.217l1.253 2.16a1.22 1.22 0 01-1.052 1.83v-.004zm-3.453-5.98a1.22 1.22 0 01-1.055-.61l-1.256-2.16a1.217 1.217 0 112.11-1.217l1.256 2.16a1.22 1.22 0 01-1.055 1.826zM41.374 47.214a1.214 1.214 0 01-1.055-.608l-.54-.937a1.216 1.216 0 112.106-1.217l.544.937a1.218 1.218 0 01-1.055 1.825zM67.343 35.692h-1.08a1.26 1.26 0 010-2.52h1.08a1.26 1.26 0 010 2.52zM61.93 35.692h-2.57a1.26 1.26 0 110-2.52h2.57a1.26 1.26 0 010 2.52zm-6.898 0H52.46a1.26 1.26 0 010-2.52h2.57a1.26 1.26 0 010 2.52zM48.13 35.692h-1.081a1.26 1.26 0 010-2.52h1.08a1.26 1.26 0 010 2.52z"/>
  <path fill="#C90" d="M34.356 23.107a1.081 1.081 0 01-1.08-1.152V1.665a1.08 1.08 0 112.16 0v20.29a1.08 1.08 0 01-1.08 1.152zM24.004 29.39c-.2.002-.398-.05-.572-.15L5.788 19.052a1.149 1.149 0 111.149-1.991l17.644 10.182a1.148 1.148 0 01-.577 2.16v-.014zM6.368 51.895a1.149 1.149 0 01-.576-2.16l17.644-10.183a1.15 1.15 0 011.148 1.991L6.941 51.729c-.173.105-.37.163-.573.166zM34.356 68.966a1.08 1.08 0 01-1.08-1.149V46.573a1.08 1.08 0 112.16 0v21.244a1.08 1.08 0 01-1.08 1.149zM62.978 51.895c-.2 0-.398-.054-.572-.155L44.763 41.554a1.15 1.15 0 011.148-1.991l17.644 10.186a1.149 1.149 0 01-.577 2.16v-.014zM45.342 29.39a1.149 1.149 0 01-.576-2.16L62.41 17.047a1.15 1.15 0 011.148 1.991L45.915 29.221c-.173.107-.37.165-.573.17z"/>
  <path fill="#CEB15F" d="M50.473 8.247a1.214 1.214 0 01-1.051-1.826l.54-.936a1.218 1.218 0 112.11 1.217l-.544.937a1.21 1.21 0 01-1.055.608zM43.57 20.209c-.213 0-.422-.056-.608-.162a1.22 1.22 0 01-.446-1.664l1.256-2.16a1.218 1.218 0 112.107 1.217l-1.253 2.16a1.225 1.225 0 01-1.055.609zm3.45-5.981a1.217 1.217 0 01-1.051-1.826l1.256-2.16a1.217 1.217 0 112.107 1.217l-1.253 2.16a1.228 1.228 0 01-1.059.609zM40.838 24.95a1.216 1.216 0 01-1.051-1.826l.54-.939a1.219 1.219 0 012.11 1.221l-.544.936a1.218 1.218 0 01-1.055.609zM34.677 37.525a3.122 3.122 0 100-6.244 3.122 3.122 0 000 6.244z"/>
  <path fill="#006837" d="M37.86 23.313a.827.827 0 01-.209-.026.814.814 0 01-.572-.997l5.267-19.674a.81.81 0 111.567.42L38.645 22.73a.81.81 0 01-.785.584zM25.963 26.503a.813.813 0 01-.576-.238L10.984 11.862a.815.815 0 111.149-1.148l14.403 14.402a.814.814 0 01-.573 1.387zM3.102 43.678a.81.81 0 01-.209-1.595l19.675-5.279a.814.814 0 11.417 1.57L3.315 43.65a.856.856 0 01-.213.03zM26.222 66.784a.81.81 0 01-.785-1.019l5.268-19.678a.814.814 0 011.57.421l-5.271 19.675a.81.81 0 01-.782.601zM57.79 58.319a.803.803 0 01-.573-.238L42.815 43.678a.814.814 0 011.148-1.148l14.403 14.402a.81.81 0 01-.572 1.383l-.004.004zM46.57 32.023a.813.813 0 01-.209-1.599l19.682-5.275a.814.814 0 01.421 1.57L46.79 31.994a.862.862 0 01-.22.029z"/>
  <path fill="#C90" d="M34.677 42.252a7.854 7.854 0 117.85-7.85 7.86 7.86 0 01-7.85 7.85zm0-13.682a5.822 5.822 0 105.819 5.822 5.826 5.826 0 00-5.82-5.812v-.01z"/>
  <path fill="#C1272D" d="M15.039 28.573a2.099 2.099 0 11-4.198 0 2.099 2.099 0 014.198 0z"/>
  <path fill="#006837" d="M42.591 57.508a2.099 2.099 0 11-4.198.008 2.099 2.099 0 014.198-.008z"/>
  <path fill="#C1272D" d="M60.602 40.56a2.1 2.1 0 11-4.199 0 2.1 2.1 0 014.199 0zM55.212 15.585a2.099 2.099 0 11-4.198.008 2.099 2.099 0 014.198-.008zM15.348 54.606a1.588 1.588 0 11-3.175 0 1.588 1.588 0 013.175 0zM19.918 50.307a1.588 1.588 0 11-3.176 0 1.588 1.588 0 013.176 0zM31.116 13.998a1.588 1.588 0 11-3.177 0 1.588 1.588 0 013.177 0z"/>
  <path fill="#006837" d="M29.193 7.682a1.588 1.588 0 11-3.176 0 1.588 1.588 0 013.176 0z"/>
</svg>
