<svg xmlns="http://www.w3.org/2000/svg" width="54" height="61" fill="none" viewBox="0 0 54 61">
  <path fill="#D1D3D4" d="M26.941.77a21.021 21.021 0 00-21.02 21.021v32.133h42.056V21.79A21.02 21.02 0 0026.94.771z"/>
  <path fill="#fff" d="M16.823 20.448l-2.495-1.44 2.323-1.35a.437.437 0 00-.436-.757l-2.337 1.35v-2.88a.44.44 0 00-.875 0v2.88l-2.337-1.35a.435.435 0 10-.436.757l2.337 1.35-2.498 1.44a.436.436 0 00.201.814c.077 0 .153-.02.22-.058l2.495-1.44v2.7a.44.44 0 00.875 0v-2.7l2.495 1.44a.443.443 0 00.598-.158.44.44 0 00-.13-.598zM26.2 10.802l-2.5-1.44 2.338-1.347a.436.436 0 10-.436-.756l-2.337 1.346v-2.88a.44.44 0 10-.875 0v2.88L20.053 7.26a.432.432 0 00-.594.158.436.436 0 00.159.598l2.336 1.347-2.495 1.44a.436.436 0 10.436.756l2.495-1.44v2.715a.44.44 0 00.875 0v-2.7l2.495 1.44a.447.447 0 00.487-.032.436.436 0 00-.047-.725v-.014zM39.245 17.211l-2.499-1.44 2.34-1.35a.436.436 0 10-.435-.757l-2.34 1.35v-2.88a.436.436 0 10-.872 0v2.88l-2.34-1.35a.435.435 0 10-.436.757l2.34 1.35-2.498 1.44a.436.436 0 10.435.756l2.5-1.44v2.7a.435.435 0 10.87 0v-2.7l2.5 1.44a.435.435 0 10.435-.756zM45.305 30.696l-2.499-1.44 2.34-1.35a.437.437 0 00-.439-.757l-2.337 1.35v-2.88a.44.44 0 00-.874 0v2.88l-2.337-1.35a.437.437 0 00-.436.756l2.337 1.35-2.495 1.44a.439.439 0 00.216.818c.077.001.153-.02.22-.061l2.495-1.44v2.7a.44.44 0 00.874 0v-2.7l2.5 1.44c.064.04.139.062.215.061a.44.44 0 00.22-.817z"/>
  <path fill="#006837" d="M40.253 46.208l-6.866-8.458 5.336-.008-6.874-8.469 5.268-.007L26.956 16.75 16.762 29.295l5.293-.007-6.899 8.49 5.362-.007-6.892 8.48 26.627-.043z"/>
  <path fill="#004E29" d="M27.535 46.23l-13.91.02 6.893-8.479-5.362.007 6.9-8.49-5.294.007L26.956 16.75l.58 29.48z"/>
  <path fill="#58595B" d="M29.613 44.159h-4.68V51h4.68V44.16z"/>
  <path fill="#C1272D" d="M28.95 29.115a2.06 2.06 0 100-4.12 2.06 2.06 0 000 4.12zM22.62 36.788a2.06 2.06 0 100-4.12 2.06 2.06 0 000 4.12z"/>
  <path fill="#BCBEC0" d="M44.47 20.754A14.896 14.896 0 0029.574 5.858L44.47 20.754z"/>
  <path fill="#C90" d="M53.068 55.764a4.829 4.829 0 01-4.828 4.828H5.64a4.832 4.832 0 01-4.833-4.828 4.829 4.829 0 014.829-4.829h42.6a4.828 4.828 0 014.829 4.829h.003z"/>
  <path fill="#CEB15F" d="M.807 55.764a4.832 4.832 0 004.829 4.828h42.6a4.829 4.829 0 004.829-4.828H.807z"/>
</svg>
