<svg xmlns="http://www.w3.org/2000/svg" width="43" height="55" fill="none" viewBox="0 0 43 55">
  <path fill="gray" d="M39.399 12.539a1.441 1.441 0 00-2.02-.328L22.843 22.696V8.956a1.45 1.45 0 00-2.9 0v13.236L8.783 11.75a1.448 1.448 0 00-1.977 2.117L19.948 26.15V53.526a1.45 1.45 0 102.898 0V42.431l12.03-10.082a1.447 1.447 0 00-1.858-2.218l-10.172 8.523V26.268l16.229-11.71a1.441 1.441 0 00.324-2.02z"/>
  <path fill="#C1272D" d="M21.564 10.774a4.98 4.98 0 100-9.96 4.98 4.98 0 000 9.96z"/>
  <path fill="#911D22" d="M19.015 8.574a3.565 3.565 0 005.04-5.04l-5.04 5.04z"/>
  <path fill="#C1272D" d="M7.763 16.568a4.98 4.98 0 100-9.96 4.98 4.98 0 000 9.96z"/>
  <path fill="#911D22" d="M5.213 14.368a3.564 3.564 0 005.041-5.041l-5.04 5.04z"/>
  <path fill="#C1272D" d="M42.57 13.454a4.98 4.98 0 10-9.955-.289 4.98 4.98 0 009.956.29z"/>
  <path fill="#911D22" d="M35.027 16.07a3.564 3.564 0 005.041-5.04l-5.04 5.04z"/>
  <path fill="#C1272D" d="M38.054 33.201a4.98 4.98 0 10-8.112-5.778 4.98 4.98 0 008.112 5.778z"/>
  <path fill="#911D22" d="M31.448 33.106a3.564 3.564 0 005.041-5.041l-5.04 5.04z"/>
  <path fill="#006837" d="M18.665 44.975c1.703-2.405-.284-6.74-4.44-9.681-4.154-2.942-8.903-3.377-10.606-.972-1.703 2.405.285 6.74 4.44 9.682s8.903 3.377 10.606.971z"/>
  <path fill="#fff" d="M17.902 44.934a.432.432 0 01-.122-.06L4.025 35.15a.418.418 0 01.483-.68l13.754 9.722a.419.419 0 01-.36.741z"/>
</svg>
