<svg xmlns="http://www.w3.org/2000/svg" width="33" height="56" fill="none" viewBox="0 0 33 56">
  <path fill="#C1272D" d="M16.556.887A16.08 16.08 0 00.493 16.95a5.657 5.657 0 0011.31 0 4.753 4.753 0 019.506 0v32.6a5.653 5.653 0 0011.306 0v-32.6A16.081 16.081 0 0016.555.887z"/>
  <path fill="#911D22" d="M3.136 13.417a13.787 13.787 0 00-.457 3.533 3.471 3.471 0 006.938 0c0-.451.045-.901.133-1.343h-.054l-6.56-2.19zM24.153 5.34a13.823 13.823 0 00-6.632-2.235V10.079a6.921 6.921 0 013.417 1.495l3.147-6.121c.02-.039.043-.076.068-.112zM23.779 35.28a.957.957 0 01-.288.199v4.944l6.636-6.633a.956.956 0 01.306-.205v-4.958l-6.654 6.654z"/>
  <path fill="#fff" d="M23.49 47.984v1.552c.002.34.052.678.148 1.005.05-.035.097-.073.14-.116l6.655-6.654v-2.625a.956.956 0 00-.306.206l-6.636 6.632zM23.49 40.423v2.639a.957.957 0 00.289-.198l6.654-6.654V33.58a.956.956 0 00-.306.205l-6.636 6.637zM30.433 28.627V26.02a.955.955 0 00-.306.205l-6.636 6.633v2.639a.957.957 0 00.288-.198l6.654-6.672zM30.433 21.047v-2.625a.956.956 0 00-.306.206L23.49 25.26v2.64a.957.957 0 00.288-.199l6.654-6.654zM29.972 13.417a13.78 13.78 0 00-.691-1.987.898.898 0 00-.202.15l-5.588 5.59v2.635c.106-.048.204-.114.288-.195l6.193-6.193zM24.153 5.34c-.026.038-.05.076-.072.116l-3.147 6.121a7.048 7.048 0 011.386 1.52l3.382-6.571a14.165 14.165 0 00-1.549-1.185zM17.52 3.105c-.32-.022-.64-.033-.964-.033-.324 0-.645 0-.965.033V10.079c.318-.044.64-.067.961-.068.322.001.643.024.962.068v-.068l.007-6.906zM7.428 6.508l.018.025 4.548 5.196c.49-.436 1.039-.8 1.63-1.08l-4.68-5.326c-.532.36-1.038.756-1.516 1.185zM3.755 11.592c-.25.592-.457 1.202-.62 1.825l6.561 2.16h.054a6.876 6.876 0 01.63-1.8h-.09l-6.535-2.185z"/>
</svg>
