<svg xmlns="http://www.w3.org/2000/svg" width="39" height="55" fill="none" viewBox="0 0 39 55">
  <path fill="#911D22" d="M38.08 30.302c-10.968 1.142-7.662 13.99-7.662 13.99l3.035-1.693c4.375-2.43 4.8-5.48 4.627-12.297z"/>
  <path fill="#C1272D" d="M19.457 2.177v27.528l-14.104 7.86a9.04 9.04 0 008.8 15.793L30.43 44.29s-3.306-12.847 7.662-13.989V2.177H19.457z"/>
  <path fill="#BCBEC0" d="M38.8 1.04H18.276V9.32H38.8V1.039z"/>
  <path fill="#fff" d="M36.64 15.802h-1.167a.9.9 0 010-1.8h1.167a.9.9 0 010 1.8zM32.269 15.802h-1.894a.9.9 0 110-1.8h1.894a.9.9 0 110 1.8zm-5.095 0H25.28a.9.9 0 110-1.8h1.894a.9.9 0 110 1.8zM21.787 15.802H20.62a.9.9 0 110-1.8h1.167a.9.9 0 110 1.8z"/>
  <path fill="#CEB15F" d="M36.345 20.843h-2.33a.9.9 0 110-1.8h2.33a.9.9 0 110 1.8zm-6.262 0h-2.33a.9.9 0 110-1.8h2.33a.9.9 0 110 1.8zm-6.258 0h-2.33a.9.9 0 110-1.8h2.33a.9.9 0 110 1.8z"/>
  <path fill="#911D22" d="M14.153 53.358a9.045 9.045 0 01-12.3-3.496 9.041 9.041 0 013.5-12.297l8.8 15.793z"/>
</svg>
