<svg xmlns="http://www.w3.org/2000/svg" width="53" height="60" fill="none" viewBox="0 0 53 60">
  <path fill="#004E29" d="M41.724 51.237h-3.6v-5.4h3.6a4.886 4.886 0 004.883-4.88v-8.674a4.886 4.886 0 00-4.883-4.879h-3.6v-5.4h3.6a10.302 10.302 0 0110.295 10.29v8.663a10.305 10.305 0 01-10.295 10.28z"/>
  <path fill="#006837" d="M38.123 17.704H.377v42.05h37.746v-42.05z"/>
  <path fill="#C90" d="M11.046 16.113a.742.742 0 01-.742-.742V8.346a.745.745 0 01.742-.746h5.091V1.31a.745.745 0 111.488 0v7.036a.745.745 0 01-.746.745h-5.088v6.301a.742.742 0 01-.745.72zM17.628 19.27a.745.745 0 01-.745-.745V11.5a.745.745 0 01.745-.745h5.088v-6.29a.745.745 0 111.49 0V11.5a.746.746 0 01-.745.742h-5.087v6.283a.745.745 0 01-.746.745zM23.461 23.958a.745.745 0 01-.745-.741v-7.029a.745.745 0 01.745-.742h5.088V9.152a.745.745 0 011.487 0v7.036a.745.745 0 01-.742.745h-5.087v6.284a.746.746 0 01-.746.741z"/>
  <path fill="#004E29" d="M35.369 57.16H22.032L35.369 43.5v13.66z"/>
  <path fill="#D1D3D4" d="M19.252 26.443l3.158 6.398 7.06 1.027-5.108 4.98 1.206 7.028-6.316-3.32-6.315 3.32 1.206-7.029-5.106-4.98 7.057-1.026 3.158-6.398z"/>
  <path fill="#fff" d="M19.256 36.161l5.105 2.686 5.11-4.98-10.215 2.294z"/>
</svg>
