<svg xmlns="http://www.w3.org/2000/svg" width="45" height="50" fill="none" viewBox="0 0 45 50">
  <path fill="#C1272D" d="M40.729 21.059H3.282v28.446h37.447V21.059z"/>
  <path fill="#BCBEC0" d="M44.33 9.177H.4v11.882H44.33V9.177z"/>
  <path fill="#CEB15F" d="M44.33 9.177H.4v6.841H44.33V9.177z"/>
  <path fill="#fff" d="M22.725 9.177h-1.8v40.328h1.8V9.177z"/>
  <path fill="#C90" d="M36.02 1.932A6.787 6.787 0 0030.523.791c-1.966.446-3.334 1.822-4.54 3.039l-.331.33a222.947 222.947 0 01-3.406 3.295l-.227.22-.23-.22c-1.124-1.08-2.284-2.178-3.407-3.294l-.331-.331c-1.207-1.217-2.575-2.593-4.54-3.04a6.777 6.777 0 10-1.362 13.38 8.363 8.363 0 003.763-.91l.108-.054c.533-.27 1.08-.537 1.613-.792a79.327 79.327 0 001.847-.911c.41-.213.814-.458 1.203-.692.431-.272.876-.522 1.332-.749.459.226.904.476 1.336.75.389.237.792.478 1.206.69.612.318 1.239.624 1.844.915.533.256 1.08.526 1.613.796l.119.065a8.357 8.357 0 003.752.94A6.787 6.787 0 0036.019 1.95v-.018zm-17.443 7.82c-.59.303-1.206.602-1.8.89-.594.288-1.098.53-1.646.807l-.115.06a6.406 6.406 0 01-2.88.696 4.8 4.8 0 01-2.97-8.681 4.829 4.829 0 013.91-.829c1.407.32 2.462 1.383 3.582 2.52l.335.34c1.08 1.08 2.215 2.16 3.302 3.197-.213.122-.425.248-.63.36-.378.245-.735.46-1.088.64zm17.309.534a4.814 4.814 0 01-4 1.948 6.406 6.406 0 01-2.881-.72l-.112-.072a86.152 86.152 0 00-1.645-.807c-.54-.26-1.21-.587-1.8-.89-.36-.18-.72-.396-1.08-.626a9.147 9.147 0 00-.63-.36c1.08-1.037 2.21-2.11 3.301-3.197l.335-.335c1.12-1.127 2.16-2.186 3.583-2.52a4.821 4.821 0 014.925 7.56l.004.019z"/>
  <path fill="#911D22" d="M38.209 47.344H24.73l13.477-13.64v13.64z"/>
</svg>
