<svg xmlns="http://www.w3.org/2000/svg" width="62" height="74" fill="none" viewBox="0 0 62 74">
  <path fill="#006837" d="M59.281 38.585c.973-6.02-3.119-11.69-9.14-12.663-6.02-.973-11.689 3.12-12.662 9.14-.973 6.02 3.119 11.69 9.14 12.662 6.02.973 11.689-3.119 12.662-9.139z"/>
  <path fill="#A7A9AC" d="M47.966 23.614a.882.882 0 01-.879-.882V1.405a.879.879 0 011.757 0v21.327a.882.882 0 01-.878.882z"/>
  <path fill="#004E29" d="M61.116 35.1H39.872v4.68h21.244V35.1z"/>
  <path fill="#fff" d="M49.687 46.118a6.121 6.121 0 006.121-6.121l-6.12 6.121z"/>
  <path fill="#CEB15F" d="M50.674 24.658h-4.681v2.88h4.68v-2.88z"/>
  <path fill="#C90" d="M61.116 37.26H39.872v2.52h21.244v-2.52z"/>
  <path fill="#A7A9AC" d="M20.093 32.288a.878.878 0 01-.879-.879V1.405a.878.878 0 111.757 0v30.004a.879.879 0 01-.878.879z"/>
  <path fill="#C1272D" d="M25.914 67.512c7.685-3.183 11.335-11.994 8.151-19.679-3.183-7.685-11.994-11.334-19.679-8.151C6.701 42.865 3.051 51.676 6.235 59.36c3.183 7.685 11.994 11.335 19.679 8.151z"/>
  <path fill="#fff" d="M31.792 52.203a8.862 8.862 0 00-8.844-8.861l8.844 8.861z"/>
  <path fill="#C90" d="M23.308 34.38h-6.12v6.481h6.12V34.38z"/>
  <path fill="#911D22" d="M35.248 53.73a15.065 15.065 0 01-30.127 0l5.203 4.966 4.728-4.966 5.073 4.966 4.562-4.966 5.43 4.966 5.131-4.966z"/>
</svg>
