<svg xmlns="http://www.w3.org/2000/svg" width="56" height="66" fill="none" viewBox="0 0 56 66">
  <path fill="#C1272D" d="M5.212 61.55l22.48-55.822L50.167 61.55H5.212z"/>
  <path fill="#D1D3D4" d="M55.363 61.269a4.489 4.489 0 01-4.49 4.486H4.507a4.485 4.485 0 01-4.49-4.486 4.49 4.49 0 014.49-4.49h46.366a4.49 4.49 0 014.49 4.49zM27.692 11.356a5.361 5.361 0 100-10.723 5.361 5.361 0 000 10.723z"/>
  <path fill="#911D22" d="M44.277 55H29.942l8.8-13.492L44.277 55z"/>
  <path fill="#BCBEC0" d="M.017 61.269a4.486 4.486 0 004.49 4.486h46.366a4.487 4.487 0 004.49-4.486H.017z"/>
  <path fill="#fff" d="M27.26 9.84a4.353 4.353 0 004.37-4.357L27.26 9.84z"/>
</svg>
