<svg xmlns="http://www.w3.org/2000/svg" width="54" height="68" fill="none" viewBox="0 0 54 68">
  <path fill="#C1272D" d="M20.97 20.113H1.73v47.13h19.24v-47.13z"/>
  <path fill="#CEB15F" d="M11.593 16.131c2.7 0 4.89-3.56 4.89-7.95 0-4.391-2.19-7.95-4.89-7.95-2.7 0-4.89 3.559-4.89 7.95 0 4.39 2.19 7.95 4.89 7.95z"/>
  <path fill="#C90" d="M11.593.23v15.905c2.7 0 4.893-3.561 4.893-7.954S14.293.23 11.593.23z"/>
  <path fill="#58595B" d="M11.593 19.354a.633.633 0 01-.634-.638V9.293a.638.638 0 011.271 0v9.423a.637.637 0 01-.637.638z"/>
  <path fill="#911D22" d="M17.689 23.613H.776v3.389H17.69v-3.389zM17.689 32.486H.776v3.388H17.69v-3.389zM17.689 41.358H.776v3.388H17.69v-3.388zM17.689 50.23H.776v3.388H17.69V50.23zM17.689 59.102H.776v3.388H17.69v-3.388z"/>
  <path fill="#CEB15F" d="M40.402 39.69c2.7 0 4.89-3.559 4.89-7.95 0-4.39-2.19-7.95-4.89-7.95-2.7 0-4.89 3.56-4.89 7.95 0 4.391 2.19 7.95 4.89 7.95z"/>
  <path fill="#C90" d="M40.402 23.793v15.905c2.7 0 4.89-3.561 4.89-7.95 0-4.39-2.19-7.955-4.89-7.955z"/>
  <path fill="#58595B" d="M40.402 42.91a.638.638 0 01-.637-.638V32.85a.637.637 0 011.271 0v9.423a.636.636 0 01-.634.638z"/>
  <path fill="#C1272D" d="M53.48 44.065L30.302 67.243h9.902L53.48 53.967v-9.902zM27.32 43.68v10.615L37.937 43.68H27.32zM41.162 43.68l.072.072-13.913 13.913v9.193L50.499 43.68h-9.337zM53.48 57.338l-9.905 9.905h9.905v-9.905z"/>
  <path fill="#fff" d="M41.162 43.68h-3.226L27.32 54.295v3.37l13.913-13.913-.072-.072zM53.48 53.967L40.204 67.243h3.37l9.906-9.905v-3.37zM53.48 43.68h-2.981L27.32 66.858v.385h2.981L53.48 44.065v-.385z"/>
</svg>
