<svg xmlns="http://www.w3.org/2000/svg" width="53" height="73" fill="none" viewBox="0 0 53 73">
  <path fill="#D1D3D4" d="M40.916 26.28c1.783-7.55-2.893-15.115-10.444-16.897-7.55-1.782-15.115 2.894-16.897 10.444-1.782 7.55 2.894 15.115 10.444 16.897 7.55 1.782 15.116-2.894 16.898-10.444z"/>
  <path fill="#D1D3D4" d="M46.866 53.048c2.557-10.836-4.154-21.694-14.99-24.252-10.837-2.558-21.695 4.154-24.253 14.99-2.557 10.837 4.154 21.695 14.99 24.253 10.837 2.557 21.695-4.154 24.253-14.99z"/>
  <path fill="#58595B" d="M23.038 19.246a1.408 1.408 0 100-2.815 1.408 1.408 0 000 2.815zM31.464 19.246a1.408 1.408 0 100-2.815 1.408 1.408 0 000 2.815z"/>
  <path fill="#C1272D" d="M27.967 26.668L13.208 23.53l14.76-3.132v6.268z"/>
  <path fill="#006837" d="M27.25 36.397a1.271 1.271 0 100-2.542 1.271 1.271 0 000 2.542zM27.25 41.715a1.271 1.271 0 100-2.542 1.271 1.271 0 000 2.542zM27.25 47.033a1.271 1.271 0 100-2.542 1.271 1.271 0 000 2.542z"/>
  <path fill="gray" d="M33.926.044H20.58v11.133h13.347V.044z"/>
  <path fill="gray" d="M35.748 7.908H18.758v3.27h16.991v-3.27z"/>
  <path fill="#58595B" d="M27.78.044H20.58v11.133h7.201V.044z"/>
  <path fill="#58595B" d="M27.78 7.908h-9.023v3.27h9.023v-3.27z"/>
  <path fill="#fff" d="M27.19 64.435a17.092 17.092 0 0017.092-17.092L27.19 64.435z"/>
  <path fill="#C90" d="M51.512 29.57h-5.127v-5.135a.81.81 0 10-1.62 0v5.614l-6.536 6.531a.814.814 0 001.149 1.149l6.532-6.535h5.613a.813.813 0 000-1.624h-.01zM14.796 36.58l-6.532-6.535v-5.61a.813.813 0 10-1.624 0v5.135H1.502a.813.813 0 000 1.624h5.614l6.535 6.535a.81.81 0 101.145-1.149z"/>
</svg>
