<svg xmlns="http://www.w3.org/2000/svg" width="74" height="60" fill="none" viewBox="0 0 74 60">
  <path fill="#CEB15F" d="M62.944 27.32a6.02 6.02 0 008.512-8.512l-8.512 8.512z"/>
  <path fill="gray" d="M20.69 10.246a1.8 1.8 0 01-1.8 1.8H2.077a1.8 1.8 0 01-1.8-1.8 1.8 1.8 0 011.8-1.8h16.808a1.8 1.8 0 011.8 1.8h.004z"/>
  <path fill="gray" d="M4.026 2.194A1.876 1.876 0 002.15.318 1.876 1.876 0 00.273 2.194v7.562a1.876 1.876 0 001.877 1.876 1.876 1.876 0 001.876-1.876V2.194zM9.452 4.657a1.876 1.876 0 00-3.607-.717 1.873 1.873 0 00-.142.717v5.095a1.872 1.872 0 001.873 1.876 1.876 1.876 0 001.876-1.876V4.657zM15.364 4.657a1.876 1.876 0 10-3.752 0v5.095a1.877 1.877 0 001.876 1.876 1.876 1.876 0 001.876-1.876V4.657zM20.69 10.303a1.876 1.876 0 00-1.876-1.876 1.876 1.876 0 00-1.887 1.876v5.095a1.875 1.875 0 001.876 1.876 1.875 1.875 0 001.876-1.876l.01-5.095zM25.342 10.246a1.8 1.8 0 001.8 1.8h16.805a1.8 1.8 0 001.8-1.8 1.8 1.8 0 00-1.8-1.8H27.146a1.8 1.8 0 00-1.8 1.8h-.004z"/>
  <path fill="gray" d="M42.002 2.194A1.876 1.876 0 0143.878.318a1.876 1.876 0 011.876 1.876v7.562a1.876 1.876 0 01-3.752 0V2.194zM36.576 4.657a1.876 1.876 0 113.752 0v5.095a1.875 1.875 0 01-1.876 1.876 1.876 1.876 0 01-1.876-1.876V4.657zM30.664 4.657a1.876 1.876 0 113.752 0v5.095a1.877 1.877 0 01-1.877 1.876 1.876 1.876 0 01-1.875-1.876V4.657zM25.342 10.303a1.876 1.876 0 011.876-1.876 1.876 1.876 0 011.876 1.876v5.095a1.875 1.875 0 01-1.876 1.876 1.875 1.875 0 01-1.876-1.876v-5.095z"/>
  <path fill="#C90" d="M30.998 56.237a3.74 3.74 0 11-7.482.015v-23.12a3.741 3.741 0 013.741-3.745 3.741 3.741 0 013.741 3.741v23.11zM41.268 56.237a3.742 3.742 0 01-3.741 3.756 3.741 3.741 0 01-3.742-3.741v-23.12a3.743 3.743 0 013.742-3.745 3.741 3.741 0 013.74 3.741v23.11zM56.175 56.238a3.741 3.741 0 01-7.483 0v-23.12a3.74 3.74 0 013.742-3.742 3.741 3.741 0 013.74 3.741v23.12zM66.43 56.238a3.741 3.741 0 01-6.388 2.645 3.744 3.744 0 01-1.098-2.645v-23.12a3.744 3.744 0 013.744-3.742 3.741 3.741 0 013.742 3.741v23.12zM65 26.636a4.079 4.079 0 105.761-5.761L65 26.636z"/>
  <path fill="#58595B" d="M48.678 56.237a3.741 3.741 0 007.482 0h-7.482zM58.944 56.237a3.744 3.744 0 007.486 0h-7.486zM23.516 56.237a3.741 3.741 0 007.482 0h-7.482zM33.785 56.237a3.741 3.741 0 007.483 0h-7.483z"/>
  <path fill="#CEB15F" d="M27.358 45.684h-3.842v10.55h3.842v-10.55zM37.61 45.684h-3.843v10.55h3.842v-10.55zM52.52 45.684h-3.842v10.55h3.842v-10.55zM62.786 45.684h-3.842v10.55h3.842v-10.55z"/>
  <path fill="#C90" d="M56.056 22.452H37.138c-.2-.795-.5-1.56-.893-2.28a5.454 5.454 0 003.896-5.228H29.234v.217a9.703 9.703 0 00-1.595-.14l-11.162-.077a9.86 9.86 0 10-.13 19.714l7.202.05c0 .274-.026.552-.026.833v13.088h32.54a13.089 13.089 0 000-26.177h-.007z"/>
  <path fill="#C1272D" d="M10.773 23.809a3.036 3.036 0 10-4.293-4.293 3.036 3.036 0 004.293 4.293z"/>
  <path fill="#58595B" d="M23.286 21.692a1.292 1.292 0 11-2.584 0 1.292 1.292 0 012.584 0z"/>
  <path fill="#CEB15F" d="M31.55 16.104a3.14 3.14 0 106.279 0h-6.28z"/>
</svg>
