<svg xmlns="http://www.w3.org/2000/svg" width="83" height="49" fill="none" viewBox="0 0 83 49">
  <path fill="#006837" d="M6.49 7.557l-1.2 32.492 29.58-20.3-2.218-1.217A57.612 57.612 0 016.49 7.557zM49.889 18.532l-2.218 1.217 29.58 20.3-1.214-32.492a57.586 57.586 0 01-26.159 10.975h.011z"/>
  <path fill="#C1272D" d="M57.397 16.782L41.269 48.828 25.145 16.782h32.252z"/>
  <path fill="#C90" d="M82.18.478a1.239 1.239 0 00-1.75 0 55.704 55.704 0 01-4.494 4.029 54.842 54.842 0 01-18.226 9.722 55.937 55.937 0 01-32.878 0A54.842 54.842 0 016.605 4.507 55.695 55.695 0 012.11.477a1.236 1.236 0 00-1.75 1.747 59.052 59.052 0 006.121 5.333 57.612 57.612 0 0026.163 10.975c5.714.85 11.523.85 17.237 0A57.586 57.586 0 0076.037 7.557a58.679 58.679 0 006.121-5.333A1.235 1.235 0 0082.18.478z"/>
  <path fill="#fff" d="M14.073 21.189l-1.74-2.52 2.845-.235a.463.463 0 00-.08-.921l-2.84.237 1.3-2.754a.462.462 0 00-.836-.393l-1.3 2.755-1.638-2.33a.46.46 0 10-.756.526l1.628 2.344-3.032.248a.463.463 0 00.079.922l3.035-.256-1.213 2.575a.461.461 0 10.835.392l1.225-2.552 1.735 2.502a.462.462 0 00.76-.526l-.007-.014zM16.759 27.731l-2.56.04 1.166-2.096a.384.384 0 00-.292-.572.389.389 0 00-.385.198l-1.166 2.092-1.315-2.197a.39.39 0 00-.529-.136.393.393 0 00-.137.533l1.315 2.2-2.399.036a.387.387 0 00-.392.23.388.388 0 00.393.544l2.398-.036-1.25 2.236a.389.389 0 00.54.522.36.36 0 00.137-.144l1.25-2.236 1.227 2.06a.389.389 0 10.667-.4l-1.232-2.06 2.564-.036a.422.422 0 00.19-.054.396.396 0 00.191-.36.393.393 0 00-.381-.364zM29.725 22.42h1.527a.72.72 0 010 1.44h-1.527a.72.72 0 110-1.44zm4.32 0h1.524a.72.72 0 010 1.44h-1.523a.72.72 0 110-1.44zm4.322 0h1.523a.72.72 0 010 1.44h-1.523a.72.72 0 110-1.44zm4.32 0h1.527a.72.72 0 010 1.44h-1.526a.72.72 0 110-1.44zm4.321 0h1.523a.72.72 0 010 1.44h-1.523a.72.72 0 110-1.44zm4.321 0h1.523a.72.72 0 010 1.44H51.33a.72.72 0 110-1.44z"/>
  <path fill="#D1D3D4" d="M48.481 29.712a1.52 1.52 0 100-3.04 1.52 1.52 0 000 3.04zM43.523 29.712a1.52 1.52 0 100-3.04 1.52 1.52 0 000 3.04zM38.565 29.712a1.52 1.52 0 100-3.04 1.52 1.52 0 000 3.04zM33.606 29.712a1.52 1.52 0 100-3.04 1.52 1.52 0 000 3.04z"/>
  <path fill="#CEB15F" d="M65.451 18.532l2.989 2.229 3.525-1.2-1.192 3.53 2.229 2.984-3.727-.043-2.15 3.043-1.105-3.558-3.561-1.105 3.043-2.154-.05-3.726z"/>
</svg>
