<svg xmlns="http://www.w3.org/2000/svg" width="61" height="59" fill="none" viewBox="0 0 61 59">
  <path fill="#BCBEC0" d="M4.147 22.334a13.46 13.46 0 0026.919 0H4.146z"/>
  <path fill="#fff" d="M22.978 24.693H8.328a8.167 8.167 0 008.166 8.166l6.484-8.166z"/>
  <path fill="#BCBEC0" d="M58.838 22.334a13.46 13.46 0 01-26.919 0h26.919z"/>
  <path fill="#fff" d="M40.003 24.693h14.65a8.162 8.162 0 01-8.162 8.166l-6.488-8.166z"/>
  <path fill="#D1D3D4" d="M31.346 19.882a15.123 15.123 0 00-15.122 15.123v18.947a4.382 4.382 0 007.957 2.52 4.379 4.379 0 007.151 0 4.379 4.379 0 007.151 0 4.382 4.382 0 007.958-2.52V34.976a15.123 15.123 0 00-15.095-15.094z"/>
  <path fill="#CEB15F" d="M31.346 8.893a12.642 12.642 0 01-12.627 4.835 12.631 12.631 0 0025.255 0 12.641 12.641 0 01-12.627-4.835z"/>
  <path fill="#C90" d="M31.346.72a12.639 12.639 0 00-12.638 12.638v.36a12.641 12.641 0 0012.628-4.836 12.641 12.641 0 0012.627 4.836v-.36A12.642 12.642 0 0031.346.719z"/>
  <path fill="#58595B" d="M28.311 15.338a1.364 1.364 0 11-2.729.022 1.364 1.364 0 012.73-.022zM37.108 15.338a1.364 1.364 0 11-2.729.008 1.364 1.364 0 012.729-.008z"/>
  <path fill="#911D22" d="M28.304 18.247a3.043 3.043 0 006.085 0h-6.085z"/>
  <path fill="#fff" d="M22.608 54.164a1.944 1.944 0 11-3.89 0 1.944 1.944 0 013.89 0zM29.78 54.164a1.948 1.948 0 11-3.896.007 1.948 1.948 0 013.896-.007zM36.95 54.164a1.948 1.948 0 11-3.897.008 1.948 1.948 0 013.896-.008zM44.118 54.164a1.948 1.948 0 11-3.895.008 1.948 1.948 0 013.895-.008z"/>
  <path fill="#CEB15F" d="M12.896 9.707l-2.473-1.44 2.315-1.337a.43.43 0 00.047-.717.432.432 0 00-.48-.032L9.992 7.517V4.662a.432.432 0 10-.865 0v2.855L6.808 6.181a.432.432 0 00-.432.75L8.69 8.265l-2.474 1.44a.428.428 0 00-.155.591.425.425 0 00.36.216c.076 0 .15-.02.216-.057l2.474-1.44v2.675a.432.432 0 10.864 0V9.014l2.474 1.44c.065.039.14.059.216.058a.43.43 0 00.36-.216.435.435 0 00-.13-.59zM59.8 18.265l-2.474-1.44 2.315-1.336a.436.436 0 00-.432-.752l-2.319 1.34V13.22a.432.432 0 00-.864 0v2.855l-2.316-1.34a.435.435 0 00-.432.753l2.316 1.336-2.474 1.44a.432.432 0 10.432.75l2.474-1.44v2.674a.432.432 0 10.864 0v-2.664l2.474 1.44c.066.036.14.056.216.058a.442.442 0 00.426-.55.43.43 0 00-.207-.268zM7.485 43.73L5.01 42.29l2.319-1.337a.433.433 0 10-.436-.748L4.58 41.54v-2.855a.432.432 0 10-.864 0v2.855l-2.316-1.335a.434.434 0 00-.633.486.432.432 0 00.201.262l2.316 1.336-2.474 1.44a.433.433 0 00.432.75l2.474-1.44v2.675a.432.432 0 00.864 0v-2.676l2.473 1.44a.432.432 0 10.433-.748z"/>
</svg>
