<svg xmlns="http://www.w3.org/2000/svg" width="200.39" height="112.97" viewBox="0 0 200.39 112.97">
    <g id="Layer_2" data-name="Layer 2">
        <g id="Layer_1-2" data-name="Layer 1">
            <path
                d="M199.54,103.9l-60.27-101a6,6,0,0,0-8.87-1.64L2.3,102.26A6,6,0,0,0,6,113H28.33a6,6,0,0,0,3.72-1.29l91.24-71.9a6,6,0,0,1,8.86,1.64L154,78.06a6,6,0,0,1-5.16,9.08H121.13a6,6,0,0,0-3.69,1.26L99.68,102.24A6,6,0,0,0,103.37,113h91A6,6,0,0,0,199.54,103.9Z"
                style="fill: currentColor" />
        </g>
    </g>
</svg>
  