<svg xmlns="http://www.w3.org/2000/svg" width="118" height="31" fill="none" viewBox="0 0 118 31">
    <path fill="currentColor"
        d="M.76 6.28v-5.2H23.9v5.2h-8.54V30H9.5V6.28H.76ZM31.087 30.4c-1.32 0-2.506-.247-3.56-.74-1.053-.493-1.886-1.207-2.5-2.14-.613-.947-.92-2.093-.92-3.44 0-2.267.847-3.987 2.54-5.16 1.694-1.187 4.367-1.8 8.02-1.84l2.58-.04V15.8c0-.947-.28-1.673-.84-2.18-.546-.52-1.4-.773-2.56-.76a5.585 5.585 0 0 0-2.44.6c-.76.387-1.28 1.06-1.56 2.02h-4.86c.08-1.493.514-2.72 1.3-3.68.787-.973 1.854-1.693 3.2-2.16 1.36-.48 2.9-.72 4.62-.72 2.12 0 3.82.267 5.1.8 1.28.52 2.207 1.273 2.78 2.26.574.973.86 2.133.86 3.48V30h-4.88l-.48-3.56c-.706 1.493-1.593 2.527-2.66 3.1-1.053.573-2.3.86-3.74.86Zm1.96-3.84c.534 0 1.047-.093 1.54-.28.507-.2.954-.46 1.34-.78.4-.333.72-.707.96-1.12.24-.413.36-.84.36-1.28v-3.06l-2.1.04a10.99 10.99 0 0 0-2.72.36c-.84.213-1.52.567-2.04 1.06-.506.493-.76 1.16-.76 2 0 .96.334 1.713 1 2.26.667.533 1.474.8 2.42.8Zm21.25-17.24V30h-5.58V9.32h5.58Zm.06-8.22v5.26h-5.68V1.1h5.68Zm12.35 29.26c-1.52 0-2.727-.18-3.62-.54-.894-.36-1.554-.833-1.98-1.42-.427-.6-.7-1.26-.82-1.98-.12-.733-.18-1.473-.18-2.22V.28h5.72v23.2c0 .76.16 1.38.48 1.86.333.467.953.753 1.86.86l.98.06v3.6c-.4.133-.807.247-1.22.34-.414.107-.82.16-1.22.16Z" />
    <path fill="currentColor" fill-opacity="0.7"
        d="M80.822 30.4a9.43 9.43 0 0 1-2.84-.44 8.379 8.379 0 0 1-2.52-1.3 6.7 6.7 0 0 1-1.84-2.12c-.454-.84-.68-1.813-.68-2.92V9.32h5.84v13.56c0 .96.313 1.747.94 2.36.626.613 1.546.92 2.76.92 1.146 0 2.053-.293 2.72-.88.68-.6 1.02-1.433 1.02-2.5V9.32h5.78V30h-4.4l-.68-4.1c-.24 1.213-.694 2.147-1.36 2.8a5.2 5.2 0 0 1-2.26 1.32c-.84.253-1.667.38-2.48.38Zm36.634-.4h-6.1l-4.94-6.74-4.96 6.74h-6.12l7.96-10.78-7.26-9.9h6.1l4.3 5.8 4.28-5.8h6.12l-7.32 9.9 7.94 10.78Z" />
</svg>
  