<svg xmlns="http://www.w3.org/2000/svg" fill="none" viewBox="0 0 569 512">
    <path fill="#087EA4"
        d="M285.5 201c-30.1 0-54.5 24.4-54.5 54.5s24.4 54.5 54.5 54.5 54.5-24.4 54.5-54.5-24.4-54.5-54.5-54.5Z" />
    <path fill="#087EA4"
        d="M568.96 255.994c0-42.786-39.622-80.313-102.708-105.009.843-5.561 1.605-11.063 2.147-16.464 6.223-61.48-8.59-105.852-41.689-124.967-37.033-21.383-89.34-5.863-142.23 36.462C231.59 3.691 179.283-11.829 142.25 9.554c-33.099 19.115-47.912 63.487-41.689 124.967.541 5.401 1.284 10.923 2.147 16.504a289.153 289.153 0 0 0-15.375 6.365C31.011 182.709 0 217.765 0 255.994c0 42.787 39.622 80.313 102.708 105.01-.863 5.561-1.606 11.063-2.147 16.464-6.223 61.479 8.59 105.852 41.689 124.967a73.504 73.504 0 0 0 37.354 9.557c31.352 0 67.964-16.504 104.876-46.019 36.892 29.515 73.524 46.019 104.916 46.019a73.57 73.57 0 0 0 37.354-9.557c33.099-19.115 47.912-63.488 41.689-124.967-.541-5.401-1.304-10.903-2.147-16.464C529.378 336.347 569 298.761 569 255.994M389.155 27.102a47.442 47.442 0 0 1 24.087 5.903c22.982 13.272 33.299 49.273 28.281 98.765a267.819 267.819 0 0 1-1.224 10.22 478.705 478.705 0 0 0-80.288-16.845 480.233 480.233 0 0 0-54.797-61.179c31.373-24.254 60.818-36.864 83.921-36.864m-10.778 283.104a591.207 591.207 0 0 1-33.119 51.199 590.308 590.308 0 0 1-60.778 3.092 590.484 590.484 0 0 1-60.758-3.092 589.507 589.507 0 0 1-33.018-51.199 582.524 582.524 0 0 1-27.639-54.212 582.507 582.507 0 0 1 27.639-54.211 596.881 596.881 0 0 1 32.918-51.019 578.74 578.74 0 0 1 60.878-3.172 591.613 591.613 0 0 1 60.758 3.092 599.01 599.01 0 0 1 33.038 51.099 587.456 587.456 0 0 1 27.639 54.211 587.474 587.474 0 0 1-27.639 54.212m41.449-20.079a425.554 425.554 0 0 1 15.656 53.208 420.678 420.678 0 0 1-53.713 12.95 601.906 601.906 0 0 0 20.072-32.507c6.403-11.123 12.405-22.347 18.065-33.57m-173.442 100.17c12.485.763 25.231 1.205 38.137 1.205 12.906 0 25.732-.442 38.237-1.205a423.997 423.997 0 0 1-38.237 40.156 421.584 421.584 0 0 1-38.137-40.156Zm-59.051-34.133a420.744 420.744 0 0 1-53.733-12.91 425.436 425.436 0 0 1 15.596-53.127c5.58 11.223 11.561 22.447 18.065 33.57 6.503 11.124 13.227 22.087 20.072 32.507m-38.137-134.524a425.778 425.778 0 0 1-15.556-52.926 426.196 426.196 0 0 1 53.592-12.991c-6.864 10.381-13.589 21.143-20.072 32.366-6.483 11.224-12.404 22.307-18.065 33.551m173.543-100.17c-12.485-.763-25.231-1.205-38.237-1.205-12.9 0-25.612.402-38.137 1.205a421.449 421.449 0 0 1 38.137-40.157 421.625 421.625 0 0 1 38.237 40.157ZM401.7 188.21a590.306 590.306 0 0 0-20.172-32.526 420.591 420.591 0 0 1 53.853 12.97 428.932 428.932 0 0 1-15.596 53.127c-5.58-11.224-11.581-22.447-18.065-33.551m-274.203-56.44c-5.078-49.472 5.299-85.493 28.262-98.764a47.577 47.577 0 0 1 24.086-5.903c23.103 0 52.548 12.609 83.921 36.863a480.927 480.927 0 0 0-54.837 61.219 486.134 486.134 0 0 0-80.288 16.785c-.461-3.433-.883-6.826-1.204-10.2m-29.004 50.316a743.452 743.452 0 0 1 9.454-4.015 484.425 484.425 0 0 0 25.592 77.903 483.325 483.325 0 0 0-25.612 78.065c-51.144-20.982-80.79-50.055-80.79-78.065 0-26.543 26.094-53.468 71.356-73.888Zm57.326 296.857c-22.963-13.272-33.34-49.292-28.262-98.765.321-3.373.743-6.766 1.204-10.22a479.148 479.148 0 0 0 80.288 16.846 482.152 482.152 0 0 0 54.797 61.219c-43.737 33.791-83.7 44.935-107.967 30.92m285.664-98.765c5.018 49.493-5.299 85.493-28.282 98.765-24.246 14.055-64.23 2.871-107.947-30.92a482.064 482.064 0 0 0 54.777-61.219 478.608 478.608 0 0 0 80.288-16.846c.481 3.454.883 6.847 1.224 10.22m19.63-46.18a485.43 485.43 0 0 0-25.631-78.024 485.277 485.277 0 0 0 25.611-78.064c51.043 20.982 80.77 50.055 80.77 78.064 0 28.01-29.646 57.083-80.79 78.065" />
</svg>
  